M48
;Layer_Color=9474304
;FILE_FORMAT=4:4
METRIC,LZ
;TYPE=PLATED
T01F00S00C0.5000
T03F00S00C0.7500
T04F00S00C0.9000
T05F00S00C1.0000
T06F00S00C2.9000
%
T01
X0026162Y0010922
Y0012573
Y001397
X0028321
Y0012573
Y0010922
X0030734
Y0012446
Y001397
T03
X0031322Y003556
X0041322
T04
X0003302Y0004846
Y0007346
X0046736
Y0004846
Y0015641
Y0018141
Y002669
Y002919
Y0037739
Y0040239
X0039223Y0046609
X0036723
X0030714
X0028214
X0022205
X0019705
X0013696
X0011196
X0003429Y0040239
Y0037739
X0003302Y00292323
Y00267323
Y00182257
Y00157257
T05
X0041275Y0030353
Y0032893
T06
X0021292Y0007874
X0028492
M30
