G04*
G04 #@! TF.GenerationSoftware,Altium Limited,Altium Designer,24.3.1 (35)*
G04*
G04 Layer_Physical_Order=2*
G04 Layer_Color=16711680*
%FSLAX44Y44*%
%MOMM*%
G71*
G04*
G04 #@! TF.SameCoordinates,2743B645-7AAA-4EDF-9A08-FFA43F89998A*
G04*
G04*
G04 #@! TF.FilePolarity,Positive*
G04*
G01*
G75*
%ADD21R,1.2500X1.2500*%
%ADD22C,1.2500*%
%ADD26C,8.3000*%
%ADD29C,3.9000*%
%ADD30C,1.4000*%
%ADD31R,1.4000X1.4000*%
%ADD32R,1.4000X1.4000*%
%ADD33C,1.5000*%
%ADD34O,1.3000X2.6000*%
%ADD35C,0.7000*%
G36*
X501396Y-5250D02*
X-3810D01*
Y505460D01*
X501396D01*
Y-5250D01*
D02*
G37*
%LPC*%
G36*
X401770Y475630D02*
X382690D01*
Y456550D01*
X401770D01*
Y475630D01*
D02*
G37*
G36*
X316680D02*
X297600D01*
Y456550D01*
X316680D01*
Y475630D01*
D02*
G37*
G36*
X231590D02*
X212510D01*
Y456550D01*
X231590D01*
Y475630D01*
D02*
G37*
G36*
X146500D02*
X127420D01*
Y456550D01*
X146500D01*
Y475630D01*
D02*
G37*
G36*
X456384Y484910D02*
X452936D01*
X452686Y484860D01*
X452431D01*
X449050Y484188D01*
X448815Y484090D01*
X448564Y484040D01*
X445380Y482721D01*
X445168Y482579D01*
X444932Y482482D01*
X442066Y480566D01*
X441885Y480386D01*
X441673Y480244D01*
X439236Y477807D01*
X439094Y477595D01*
X438913Y477414D01*
X436998Y474548D01*
X436901Y474313D01*
X436759Y474100D01*
X435440Y470916D01*
X435390Y470665D01*
X435293Y470430D01*
X434620Y467049D01*
Y466794D01*
X434570Y466544D01*
Y464820D01*
Y463096D01*
X434620Y462846D01*
Y462591D01*
X435293Y459210D01*
X435390Y458975D01*
X435440Y458724D01*
X436759Y455540D01*
X436901Y455327D01*
X436998Y455092D01*
X438913Y452226D01*
X439094Y452045D01*
X439236Y451833D01*
X441673Y449396D01*
X441885Y449254D01*
X442066Y449073D01*
X444932Y447158D01*
X445168Y447061D01*
X445380Y446919D01*
X448564Y445600D01*
X448815Y445550D01*
X449050Y445452D01*
X452431Y444780D01*
X452686D01*
X452936Y444730D01*
X456384D01*
X456634Y444780D01*
X456889D01*
X460270Y445452D01*
X460505Y445550D01*
X460756Y445600D01*
X463940Y446919D01*
X464152Y447061D01*
X464388Y447158D01*
X467254Y449073D01*
X467435Y449254D01*
X467647Y449396D01*
X470084Y451833D01*
X470226Y452045D01*
X470406Y452226D01*
X472322Y455092D01*
X472419Y455327D01*
X472561Y455540D01*
X473880Y458724D01*
X473930Y458974D01*
X474027Y459210D01*
X474700Y462591D01*
Y462846D01*
X474750Y463096D01*
Y464820D01*
Y466544D01*
X474700Y466794D01*
Y467049D01*
X474027Y470430D01*
X473930Y470665D01*
X473880Y470916D01*
X472561Y474100D01*
X472419Y474313D01*
X472322Y474548D01*
X470406Y477414D01*
X470226Y477595D01*
X470084Y477807D01*
X467647Y480244D01*
X467435Y480386D01*
X467254Y480566D01*
X464388Y482482D01*
X464152Y482579D01*
X463940Y482721D01*
X460756Y484040D01*
X460505Y484090D01*
X460270Y484188D01*
X456889Y484860D01*
X456634D01*
X456384Y484910D01*
D02*
G37*
G36*
X38554D02*
X35106D01*
X34856Y484860D01*
X34601D01*
X31220Y484188D01*
X30984Y484090D01*
X30734Y484040D01*
X27550Y482721D01*
X27338Y482579D01*
X27102Y482482D01*
X24236Y480566D01*
X24055Y480386D01*
X23843Y480244D01*
X21406Y477807D01*
X21264Y477595D01*
X21084Y477414D01*
X19168Y474548D01*
X19071Y474313D01*
X18929Y474100D01*
X17610Y470916D01*
X17560Y470665D01*
X17463Y470430D01*
X16790Y467049D01*
Y466794D01*
X16740Y466544D01*
Y464820D01*
Y463096D01*
X16790Y462846D01*
Y462591D01*
X17463Y459210D01*
X17560Y458975D01*
X17610Y458724D01*
X18929Y455540D01*
X19071Y455327D01*
X19168Y455092D01*
X21084Y452226D01*
X21264Y452045D01*
X21406Y451833D01*
X23843Y449396D01*
X24055Y449254D01*
X24236Y449073D01*
X27102Y447158D01*
X27338Y447061D01*
X27550Y446919D01*
X30734Y445600D01*
X30985Y445550D01*
X31220Y445452D01*
X34601Y444780D01*
X34856D01*
X35106Y444730D01*
X38554D01*
X38804Y444780D01*
X39059D01*
X42440Y445452D01*
X42675Y445550D01*
X42926Y445600D01*
X46110Y446919D01*
X46322Y447061D01*
X46558Y447158D01*
X49424Y449073D01*
X49605Y449254D01*
X49817Y449396D01*
X52254Y451833D01*
X52396Y452045D01*
X52576Y452226D01*
X54492Y455092D01*
X54589Y455327D01*
X54731Y455540D01*
X56050Y458724D01*
X56100Y458974D01*
X56198Y459210D01*
X56870Y462591D01*
Y462846D01*
X56920Y463096D01*
Y464820D01*
Y466544D01*
X56870Y466794D01*
Y467049D01*
X56198Y470430D01*
X56100Y470665D01*
X56050Y470916D01*
X54731Y474100D01*
X54589Y474313D01*
X54492Y474548D01*
X52576Y477414D01*
X52396Y477595D01*
X52254Y477807D01*
X49817Y480244D01*
X49605Y480386D01*
X49424Y480566D01*
X46558Y482482D01*
X46322Y482579D01*
X46110Y482721D01*
X42926Y484040D01*
X42675Y484090D01*
X42440Y484188D01*
X39059Y484860D01*
X38804D01*
X38554Y484910D01*
D02*
G37*
G36*
X43830Y411930D02*
X24750D01*
Y392850D01*
X43830D01*
Y411930D01*
D02*
G37*
G36*
X476900Y386930D02*
X457820D01*
Y367850D01*
X476900D01*
Y386930D01*
D02*
G37*
G36*
X35546D02*
X33034D01*
X30608Y386280D01*
X28432Y385024D01*
X26656Y383248D01*
X25400Y381072D01*
X24750Y378646D01*
Y376134D01*
X25400Y373708D01*
X26656Y371532D01*
X28432Y369756D01*
X30608Y368500D01*
X33034Y367850D01*
X35546D01*
X37972Y368500D01*
X40148Y369756D01*
X41924Y371532D01*
X43180Y373708D01*
X43830Y376134D01*
Y378646D01*
X43180Y381072D01*
X41924Y383248D01*
X40148Y385024D01*
X37972Y386280D01*
X35546Y386930D01*
D02*
G37*
G36*
X414377Y364390D02*
X412063D01*
X409827Y363791D01*
X407823Y362634D01*
X406186Y360997D01*
X405029Y358993D01*
X404430Y356757D01*
Y354443D01*
X405029Y352207D01*
X406186Y350203D01*
X407823Y348566D01*
X409827Y347409D01*
X412063Y346810D01*
X414377D01*
X416613Y347409D01*
X418617Y348566D01*
X420254Y350203D01*
X421411Y352207D01*
X422010Y354443D01*
Y356757D01*
X421411Y358993D01*
X420254Y360997D01*
X418617Y362634D01*
X416613Y363791D01*
X414377Y364390D01*
D02*
G37*
G36*
X322010D02*
X304430D01*
Y346810D01*
X322010D01*
Y364390D01*
D02*
G37*
G36*
X414072Y338970D02*
X411428D01*
X408875Y338286D01*
X406585Y336964D01*
X404716Y335095D01*
X403394Y332805D01*
X402710Y330252D01*
Y327608D01*
X403394Y325055D01*
X404716Y322765D01*
X406585Y320896D01*
X408875Y319574D01*
X411428Y318890D01*
X414072D01*
X416625Y319574D01*
X418915Y320896D01*
X420784Y322765D01*
X422106Y325055D01*
X422790Y327608D01*
Y330252D01*
X422106Y332805D01*
X420784Y335095D01*
X418915Y336964D01*
X416625Y338286D01*
X414072Y338970D01*
D02*
G37*
G36*
X42560Y301863D02*
X23480D01*
Y282783D01*
X42560D01*
Y301863D01*
D02*
G37*
G36*
X476900Y276440D02*
X457820D01*
Y257360D01*
X476900D01*
Y276440D01*
D02*
G37*
G36*
X42560Y191797D02*
X23480D01*
Y172717D01*
X42560D01*
Y191797D01*
D02*
G37*
G36*
X476900Y165950D02*
X457820D01*
Y146870D01*
X476900D01*
Y165950D01*
D02*
G37*
G36*
X42560Y83000D02*
X23480D01*
Y63920D01*
X42560D01*
Y83000D01*
D02*
G37*
G36*
X476900Y58000D02*
X457820D01*
Y38920D01*
X476900D01*
Y58000D01*
D02*
G37*
G36*
X284920Y175774D02*
X279159Y175397D01*
X273497Y174271D01*
X268030Y172415D01*
X262853Y169862D01*
X258053Y166654D01*
X253712Y162848D01*
X249906Y158507D01*
X246698Y153707D01*
X244145Y148530D01*
X242289Y143063D01*
X241163Y137401D01*
X240786Y131640D01*
Y78740D01*
X241163Y72979D01*
X242289Y67317D01*
X244145Y61851D01*
X246698Y56673D01*
X249906Y51873D01*
X253712Y47532D01*
X258053Y43726D01*
X262853Y40518D01*
X268030Y37965D01*
X273497Y36109D01*
X279159Y34983D01*
X284920Y34606D01*
X290681Y34983D01*
X296343Y36109D01*
X301810Y37965D01*
X306987Y40518D01*
X311787Y43726D01*
X316128Y47532D01*
X319934Y51873D01*
X323142Y56673D01*
X325695Y61851D01*
X327551Y67317D01*
X328677Y72979D01*
X329054Y78740D01*
Y131640D01*
X328677Y137401D01*
X327551Y143063D01*
X325695Y148530D01*
X323142Y153707D01*
X319934Y158507D01*
X316128Y162848D01*
X311787Y166654D01*
X306987Y169862D01*
X301810Y172415D01*
X296343Y174271D01*
X290681Y175397D01*
X284920Y175774D01*
D02*
G37*
G36*
X364944Y59460D02*
X361496D01*
X361246Y59410D01*
X360991D01*
X357610Y58738D01*
X357374Y58640D01*
X357124Y58590D01*
X353940Y57271D01*
X353727Y57129D01*
X353492Y57032D01*
X350626Y55116D01*
X350445Y54936D01*
X350233Y54794D01*
X347796Y52357D01*
X347654Y52145D01*
X347473Y51964D01*
X345558Y49098D01*
X345461Y48863D01*
X345319Y48650D01*
X344000Y45466D01*
X343950Y45215D01*
X343853Y44980D01*
X343180Y41599D01*
Y41344D01*
X343130Y41094D01*
Y39370D01*
Y37646D01*
X343180Y37396D01*
Y37141D01*
X343853Y33760D01*
X343950Y33525D01*
X344000Y33274D01*
X345319Y30090D01*
X345461Y29878D01*
X345558Y29642D01*
X347473Y26776D01*
X347654Y26595D01*
X347796Y26383D01*
X350233Y23946D01*
X350445Y23804D01*
X350626Y23623D01*
X353492Y21708D01*
X353727Y21611D01*
X353940Y21469D01*
X357124Y20150D01*
X357375Y20100D01*
X357610Y20003D01*
X360991Y19330D01*
X361246D01*
X361496Y19280D01*
X364944D01*
X365194Y19330D01*
X365449D01*
X368830Y20003D01*
X369065Y20100D01*
X369316Y20150D01*
X372500Y21469D01*
X372713Y21611D01*
X372948Y21708D01*
X375814Y23623D01*
X375995Y23804D01*
X376207Y23946D01*
X378644Y26383D01*
X378786Y26595D01*
X378966Y26776D01*
X380882Y29642D01*
X380979Y29878D01*
X381121Y30090D01*
X382440Y33274D01*
X382490Y33524D01*
X382588Y33760D01*
X383260Y37141D01*
Y37396D01*
X383310Y37646D01*
Y39370D01*
Y41094D01*
X383260Y41344D01*
Y41599D01*
X382588Y44980D01*
X382490Y45215D01*
X382440Y45466D01*
X381121Y48650D01*
X380979Y48863D01*
X380882Y49098D01*
X378966Y51964D01*
X378786Y52145D01*
X378644Y52357D01*
X376207Y54794D01*
X375995Y54936D01*
X375814Y55116D01*
X372948Y57032D01*
X372713Y57129D01*
X372500Y57271D01*
X369316Y58590D01*
X369066Y58640D01*
X368830Y58738D01*
X365449Y59410D01*
X365194D01*
X364944Y59460D01*
D02*
G37*
G36*
X133804D02*
X130356D01*
X130106Y59410D01*
X129851D01*
X126470Y58738D01*
X126235Y58640D01*
X125984Y58590D01*
X122800Y57271D01*
X122587Y57129D01*
X122352Y57032D01*
X119486Y55116D01*
X119305Y54936D01*
X119093Y54794D01*
X116656Y52357D01*
X116514Y52145D01*
X116334Y51964D01*
X114418Y49098D01*
X114321Y48863D01*
X114179Y48650D01*
X112860Y45466D01*
X112810Y45215D01*
X112712Y44980D01*
X112040Y41599D01*
Y41344D01*
X111990Y41094D01*
Y39370D01*
Y37646D01*
X112040Y37396D01*
Y37141D01*
X112712Y33760D01*
X112810Y33525D01*
X112860Y33274D01*
X114179Y30090D01*
X114321Y29878D01*
X114418Y29642D01*
X116334Y26776D01*
X116514Y26595D01*
X116656Y26383D01*
X119093Y23946D01*
X119305Y23804D01*
X119486Y23623D01*
X122352Y21708D01*
X122587Y21611D01*
X122800Y21469D01*
X125984Y20150D01*
X126235Y20100D01*
X126470Y20003D01*
X129851Y19330D01*
X130106D01*
X130356Y19280D01*
X133804D01*
X134054Y19330D01*
X134309D01*
X137690Y20003D01*
X137925Y20100D01*
X138176Y20150D01*
X141360Y21469D01*
X141573Y21611D01*
X141808Y21708D01*
X144674Y23623D01*
X144855Y23804D01*
X145067Y23946D01*
X147504Y26383D01*
X147646Y26595D01*
X147826Y26776D01*
X149742Y29642D01*
X149839Y29878D01*
X149981Y30090D01*
X151300Y33274D01*
X151350Y33524D01*
X151447Y33760D01*
X152120Y37141D01*
Y37396D01*
X152170Y37646D01*
Y39370D01*
Y41094D01*
X152120Y41344D01*
Y41599D01*
X151447Y44980D01*
X151350Y45215D01*
X151300Y45466D01*
X149981Y48650D01*
X149839Y48863D01*
X149742Y49098D01*
X147826Y51964D01*
X147646Y52145D01*
X147504Y52357D01*
X145067Y54794D01*
X144855Y54936D01*
X144674Y55116D01*
X141808Y57032D01*
X141573Y57129D01*
X141360Y57271D01*
X138176Y58590D01*
X137926Y58640D01*
X137690Y58738D01*
X134309Y59410D01*
X134054D01*
X133804Y59460D01*
D02*
G37*
%LPD*%
D21*
X313220Y355600D02*
D03*
D22*
X413220D02*
D03*
D26*
X284920Y78740D02*
Y131640D01*
D29*
Y78740D02*
D03*
X212920D02*
D03*
D30*
X33020Y48460D02*
D03*
Y157257D02*
D03*
X467360Y73460D02*
D03*
Y181410D02*
D03*
Y291900D02*
D03*
Y402390D02*
D03*
X367230Y466090D02*
D03*
X282140D02*
D03*
X197050D02*
D03*
X111960D02*
D03*
X34290Y377390D02*
D03*
X33020Y267323D02*
D03*
D31*
Y182257D02*
D03*
X467360Y48460D02*
D03*
Y156410D02*
D03*
Y266900D02*
D03*
Y377390D02*
D03*
X34290Y402390D02*
D03*
X33020Y292323D02*
D03*
Y73460D02*
D03*
D32*
X392230Y466090D02*
D03*
X307140D02*
D03*
X222050D02*
D03*
X136960D02*
D03*
D33*
X412750Y328930D02*
D03*
Y303530D02*
D03*
D34*
X181420Y18740D02*
D03*
X316420D02*
D03*
D35*
X307340Y139700D02*
D03*
X283210D02*
D03*
X261620D02*
D03*
Y125730D02*
D03*
X283210D02*
D03*
X307340Y124460D02*
D03*
Y109220D02*
D03*
X283210D02*
D03*
X261620D02*
D03*
M02*
