M48
;Layer_Color=9474304
;FILE_FORMAT=4:4
METRIC,LZ
;TYPE=PLATED
T01F00S00C0.3100
T02F00S00C0.5000
T04F00S00C0.7112
T05F00S00C0.7500
T06F00S00C0.7700
T07F00S00C0.8000
T08F00S00C1.0000
T09F00S00C1.0160
T10F00S00C1.0700
T11F00S00C1.6000
T12F00S00C2.9000
T13F00S00C3.5000
%
T01
X0125984Y0028321
X0126365Y0031115
Y003683
X0127Y0041148
X0115697Y0040767
X0115443Y0032639
X0082423Y0023749
X008255Y0020955
X0082423Y0045212
X008382Y0047117
X0066421Y0036957
X0066675Y0034925
X0062357Y0028829
X0074803Y0076454
X007493Y0078105
X0078613
X0081153Y0076073
X013843Y007366
X0139319Y007112
X0140462Y0084836
X0144018Y0083566
X0143383Y0082296
X0136779Y0087503
X0135382Y0048514
X0126873Y0113411
X0126492Y0114808
X0123317Y0113538
X01220904Y01145974
X013716Y0122809
X0134874Y0125857
X0120015Y0113284
T02
X0148082Y004449
Y004574
Y004699
Y004824
Y004949
Y005074
X0148082Y0073613
Y0074863
Y0076113
Y0077363
Y0078613
Y0079863
T04
X0126873Y0110744
X0141986Y0125349
X0066421Y011303
X0067945Y0111506
T05
X0017653Y0028274
Y0038274
X0095631Y0107649
X0100203Y0107776
X0104267Y0111553
X0108204
Y0101553
X0104267
X0100203Y0117776
X0095631Y0117649
X0018462Y0151638
X0008462
T06
X0144145Y0107823
Y0110363
Y0112903
Y0115443
Y0117983
Y0120523
Y0123063
X0152085
Y0120523
Y0117983
Y0115443
Y0112903
Y0110363
Y0107823
T07
X0018749Y002032
X0023749
X0139319Y0107776
Y0117776
X0029845Y0144145
Y0149145
T08
X012954Y0019035
X013208
Y0021575
X012954
Y0024115
X013208
Y0026655
X012954
Y0029195
X013208
Y0031735
X012954
Y0034275
X013208
Y0036815
X012954
Y0039355
X013208
Y0041895
X012954
Y0044435
X013208
Y0046975
X012954
X012446Y0046995
Y0044455
Y0041915
Y0039375
X012192
Y0041915
Y0044455
Y0046995
X007874
Y0044455
Y0041915
Y0039375
X00762
Y0041915
Y0044455
Y0046995
X007112
Y0044455
Y0041915
Y0039375
Y0036835
Y0034295
Y0031755
Y0029215
Y0026675
Y0024135
Y0021595
Y0019055
X006858
Y0021595
Y0024135
Y0026675
Y0029215
Y0031755
Y0034295
Y0036835
Y0039375
Y0041915
Y0044455
Y0046995
X0058293Y0047451
Y0044951
X0017653Y0043942
Y0041402
X0058293Y0049951
Y0052451
Y0054951
Y0062771
Y0065271
Y0067771
Y0070271
Y0072771
Y0080765
Y0083265
Y0085765
X006858Y0085095
Y0082555
Y0080015
Y0077475
Y0074935
Y0072395
Y0069855
Y0067315
Y0064775
Y0062235
Y0059695
Y0057155
Y0054615
Y0052075
Y0049535
X007112
Y0052075
Y0054615
Y0057155
Y0059695
Y0062235
Y0064775
Y0067315
Y0069855
Y0072395
Y0074935
Y0077475
Y0080015
Y0082555
Y0085095
Y0087635
X006858
X00762
Y0085095
Y0082555
Y0080015
X007874
Y0082555
Y0085095
Y0087635
Y0074935
Y0072395
Y0069855
Y0067315
Y0064775
Y0062235
Y0059695
Y0057155
Y0054615
Y0052075
Y0049535
X00762
Y0052075
Y0054615
Y0057155
Y0059695
Y0062235
Y0064775
Y0067315
Y0069855
Y0072395
Y0074935
X012192
Y0072395
Y0069855
Y0067315
Y0064775
Y0062235
Y0059695
Y0057155
Y0054615
Y0052075
Y0049535
X012446
Y0052075
Y0054615
Y0057155
Y0059695
Y0062235
Y0064775
Y0067315
Y0069855
Y0072395
Y0074935
Y0077475
X012192
Y0080015
X012446
Y0084079
X012192
Y0086619
X012446
X012954Y0087615
Y0085075
Y0082535
Y0079995
Y0077455
Y0074915
Y0072375
Y0069835
Y0067295
Y0064755
Y0062215
Y0059675
Y0057135
Y0054595
Y0052055
Y0049515
X013208
Y0052055
Y0054595
Y0057135
Y0059675
Y0062215
Y0064755
Y0067295
Y0069835
Y0072375
Y0074915
Y0077455
Y0079995
Y0082535
Y0085075
Y0087615
Y0090155
X012954
Y0092695
X013208
Y0095235
X012954
Y0097775
X013208
Y0100315
X012954
Y0102855
X013208
Y0105395
X012954
Y0107935
X013208
X012446Y0106939
Y0104399
Y0101859
Y0099319
Y0096779
Y0094239
Y0091699
Y0089159
X012192
Y0091699
Y0094239
Y0096779
Y0099319
Y0101859
Y0104399
Y0106939
X007112Y0107955
Y0105415
Y0102875
Y0100335
Y0097795
Y0095255
Y0092715
Y0090175
X006858
Y0092715
Y0095255
Y0097795
Y0100335
Y0102875
Y0105415
Y0107955
X0058056Y0105263
Y0102763
X0058293Y0090765
Y0088265
X00762Y0090175
X007874
Y0092715
X00762
Y0095255
X007874
Y0097795
X00762
X0058674Y011569
Y011819
Y012069
Y012319
Y012569
X0002794Y0152019
X0005334
X006858Y0135895
Y0133355
X013208
Y0135895
T09
X00339693Y0007539
X00569563
Y0010079
Y0012619
Y0015159
Y0017699
Y0020239
X00490823Y003459
Y003713
Y003967
Y004221
Y004475
Y004729
X00260953
Y004475
Y004221
Y003967
Y003713
Y003459
X00339693Y0020239
Y0017699
Y0015159
Y0012619
Y0010079
X00260953Y0062022
Y0064562
Y0067102
Y0069642
Y0072182
Y0074722
X00490823
Y0072182
Y0069642
Y0067102
Y0064562
Y0062022
Y0089327
Y0091867
Y0094407
Y0096947
Y0099487
Y0102027
X00494633Y0117521
Y0120061
Y0122601
Y0125141
Y0127681
X00264763
Y0125141
Y0122601
Y0120061
Y0117521
X00260953Y0102027
Y0099487
Y0096947
Y0094407
Y0091867
Y0089327
X00264763Y0130221
X00494633
T10
X0151257Y0056007
Y0058547
Y0061087
Y0063627
Y0066167
Y0068707
T11
X0148902Y0003937
Y0009017
Y0014097
X0148971Y0022225
Y0027305
Y0032385
Y0037465
X0004572Y0039624
Y0034544
Y0029464
Y0024384
X0004514Y0047371
Y0052451
Y0057531
Y0065278
Y0070358
Y0075438
Y0083185
X0149352Y008763
Y009271
Y009779
X0004514Y0101092
Y0106172
Y0111252
X0004572Y0118999
Y0124079
X0004514Y0093345
Y0088265
X0004572Y0129159
X0058928Y0148844
X0064008
X0069088
X0076962
X0082042
X0087122
X0094996
X0100076
X0105156
X0124968
X0130048
X0135128
X0148082Y0149098
Y0144018
Y0138938
Y0133858
T12
X0010445Y0007049
Y0014249
X001108Y0137986
Y0145186
T13
X0018161Y0008255
X0027686Y0008382
X0018796Y0134112
X0018669Y0144272
M30
