G04*
G04 #@! TF.GenerationSoftware,Altium Limited,Altium Designer,25.0.2 (28)*
G04*
G04 Layer_Color=32896*
%FSLAX44Y44*%
%MOMM*%
G71*
G04*
G04 #@! TF.SameCoordinates,F35D9E54-4110-4E9A-A1CC-C6A2A34B17B7*
G04*
G04*
G04 #@! TF.FilePolarity,Positive*
G04*
G01*
G75*
G36*
X1185728Y636400D02*
X1177172D01*
X1170537Y655871D01*
X1165962D01*
X1164605Y655930D01*
X1163307Y656048D01*
X1162185Y656284D01*
X1161182Y656520D01*
X1160356Y656756D01*
X1159707Y656992D01*
X1159471Y657051D01*
X1159294Y657110D01*
X1159235Y657169D01*
X1159176D01*
X1158055Y657700D01*
X1157052Y658290D01*
X1156167Y658940D01*
X1155341Y659529D01*
X1154751Y660120D01*
X1154279Y660533D01*
X1153984Y660828D01*
X1153866Y660946D01*
X1153099Y661890D01*
X1152391Y662952D01*
X1151801Y663896D01*
X1151270Y664840D01*
X1150916Y665666D01*
X1150621Y666315D01*
X1150503Y666551D01*
X1150444Y666728D01*
X1150385Y666846D01*
Y666905D01*
X1147552Y675343D01*
X1147139Y676641D01*
X1146903Y677821D01*
X1146785Y678883D01*
X1146726Y679768D01*
Y680476D01*
X1146785Y681007D01*
X1146844Y681361D01*
Y681479D01*
X1147139Y682364D01*
X1147493Y683131D01*
X1147965Y683780D01*
X1148438Y684370D01*
X1148850Y684783D01*
X1149264Y685078D01*
X1149500Y685255D01*
X1149617Y685314D01*
X1150503Y685727D01*
X1151447Y686081D01*
X1152450Y686317D01*
X1153394Y686435D01*
X1154220Y686553D01*
X1154928Y686612D01*
X1160061D01*
X1162856Y678411D01*
X1167437D01*
X1164664Y686612D01*
X1168676D01*
X1185728Y636400D01*
D02*
G37*
G36*
X841321Y687085D02*
X842265Y687026D01*
X843976Y686671D01*
X845569Y686258D01*
X846277Y685963D01*
X846926Y685727D01*
X847516Y685432D01*
X848047Y685196D01*
X848519Y684901D01*
X848873Y684724D01*
X849168Y684547D01*
X849404Y684370D01*
X849522Y684311D01*
X849581Y684252D01*
X850938Y683072D01*
X852118Y681774D01*
X853121Y680417D01*
X853948Y679119D01*
X854538Y677939D01*
X854774Y677408D01*
X854951Y676995D01*
X855128Y676641D01*
X855246Y676346D01*
X855305Y676169D01*
Y676110D01*
X856485Y672688D01*
X848106D01*
X846926Y676110D01*
X846690Y676759D01*
X846395Y677349D01*
X846100Y677880D01*
X845864Y678293D01*
X845628Y678588D01*
X845392Y678824D01*
X845274Y678942D01*
X845215Y679001D01*
X844743Y679355D01*
X844330Y679591D01*
X843917Y679827D01*
X843504Y679945D01*
X843150Y680004D01*
X842914Y680063D01*
X842678D01*
X842147Y680004D01*
X841734Y679945D01*
X841380Y679768D01*
X841144Y679591D01*
X840967Y679414D01*
X840790Y679296D01*
X840731Y679178D01*
Y679119D01*
X840612Y678765D01*
X840554Y678352D01*
Y677939D01*
X840612Y677467D01*
X840671Y677113D01*
X840790Y676818D01*
X840849Y676582D01*
Y676523D01*
X840967Y676110D01*
X841321Y675107D01*
X841675Y674222D01*
X842088Y673455D01*
X842442Y672805D01*
X842796Y672274D01*
X843032Y671861D01*
X843209Y671566D01*
X843268Y671507D01*
X844330Y670150D01*
X844802Y669501D01*
X845274Y668970D01*
X845687Y668498D01*
X845982Y668085D01*
X846218Y667849D01*
X846277Y667790D01*
X847516Y666433D01*
X848106Y665725D01*
X848637Y665076D01*
X849109Y664545D01*
X849522Y664132D01*
X849758Y663837D01*
X849817Y663719D01*
X850525Y662834D01*
X851174Y661831D01*
X851823Y660887D01*
X852354Y660002D01*
X852826Y659175D01*
X853180Y658585D01*
X853357Y658349D01*
X853475Y658172D01*
X853534Y658054D01*
Y657995D01*
X854184Y656638D01*
X854892Y655222D01*
X855482Y653806D01*
X856013Y652449D01*
X856249Y651800D01*
X856485Y651269D01*
X856662Y650738D01*
X856839Y650325D01*
X856957Y649912D01*
X857075Y649676D01*
X857134Y649499D01*
Y649440D01*
X848578D01*
X848047Y650915D01*
X847516Y652272D01*
X847044Y653511D01*
X846572Y654514D01*
X846218Y655281D01*
X845923Y655930D01*
X845805Y656107D01*
X845746Y656284D01*
X845687Y656343D01*
Y656402D01*
X845156Y657405D01*
X844625Y658349D01*
X844094Y659175D01*
X843681Y659883D01*
X843327Y660415D01*
X843032Y660828D01*
X842855Y661123D01*
X842796Y661182D01*
X842265Y661890D01*
X841734Y662539D01*
X841262Y663129D01*
X840849Y663601D01*
X840495Y664014D01*
X840200Y664368D01*
X840023Y664545D01*
X839964Y664604D01*
X838960Y665725D01*
X838488Y666256D01*
X838075Y666728D01*
X837780Y667082D01*
X837544Y667436D01*
X837367Y667613D01*
X837308Y667672D01*
X836364Y668852D01*
X835951Y669442D01*
X835597Y669973D01*
X835243Y670445D01*
X835007Y670799D01*
X834889Y671094D01*
X834830Y671153D01*
X834417Y671920D01*
X834004Y672805D01*
X833591Y673632D01*
X833296Y674399D01*
X833001Y675048D01*
X832824Y675638D01*
X832706Y675992D01*
X832647Y676051D01*
Y676110D01*
X832470Y676523D01*
X832175Y677467D01*
X831998Y678293D01*
X831880Y679119D01*
X831821Y679886D01*
Y681243D01*
X831880Y681833D01*
X831998Y682364D01*
X832116Y682836D01*
X832234Y683249D01*
X832411Y683603D01*
X832529Y683839D01*
X832647Y684075D01*
X832765Y684252D01*
X832824Y684311D01*
Y684370D01*
X833237Y684842D01*
X833709Y685314D01*
X834889Y685963D01*
X836128Y686494D01*
X837367Y686789D01*
X838488Y687026D01*
X839019Y687085D01*
X839433D01*
X839787Y687143D01*
X840318D01*
X841321Y687085D01*
D02*
G37*
G36*
X1126032Y661417D02*
X1144897Y636400D01*
X1135633D01*
X1125690Y651601D01*
X1125780Y636400D01*
X1116457D01*
X1118356Y662255D01*
X1121236Y658408D01*
X1125690Y651601D01*
X1125662Y656284D01*
X1125957Y660061D01*
X1126032Y661417D01*
X1123007Y665430D01*
X1118617Y672312D01*
X1118758Y668321D01*
X1118463Y663719D01*
X1118356Y662255D01*
X1100113Y686612D01*
X1109495D01*
X1118617Y672312D01*
X1118109Y686612D01*
X1127432D01*
X1126032Y661417D01*
D02*
G37*
G36*
X1049015Y636400D02*
X1040755D01*
X1024234Y668852D01*
X1030134Y636400D01*
X1021932D01*
X998390Y686612D01*
X1007122D01*
X1021519Y651741D01*
X1015088Y686612D01*
X1021696D01*
X1038985Y651741D01*
X1029662Y686612D01*
X1038395D01*
X1049015Y636400D01*
D02*
G37*
G36*
X964698D02*
X956438D01*
X939917Y668852D01*
X945817Y636400D01*
X937615D01*
X914073Y686612D01*
X922805D01*
X937202Y651741D01*
X930771Y686612D01*
X937379D01*
X954668Y651741D01*
X945345Y686612D01*
X954078D01*
X964698Y636400D01*
D02*
G37*
G36*
X994304Y664492D02*
X999854Y648207D01*
X993365Y656300D01*
X993138Y663837D01*
X985527Y668970D01*
X985446Y666179D01*
X969065Y686612D01*
X978800D01*
X994304Y664492D01*
D02*
G37*
G36*
X1012433Y636400D02*
X1003877D01*
X999854Y648207D01*
X1002933Y644365D01*
X997741Y659588D01*
X994304Y664492D01*
X986766Y686612D01*
X995381D01*
X1012433Y636400D01*
D02*
G37*
G36*
X1155518D02*
X1146962D01*
X1129851Y686612D01*
X1138466D01*
X1155518Y636400D01*
D02*
G37*
G36*
X1113743D02*
X1105187D01*
X1098130Y657110D01*
X1102650D01*
X1099877Y665194D01*
X1095375D01*
X1098130Y657110D01*
X1091369D01*
X1088623Y665194D01*
X1095375D01*
X1088076Y686612D01*
X1096691D01*
X1113743Y636400D01*
D02*
G37*
G36*
X1088623Y665194D02*
X1083061D01*
X1085775Y657110D01*
X1091369D01*
X1098402Y636400D01*
X1089846D01*
X1072735Y686612D01*
X1081350D01*
X1088623Y665194D01*
D02*
G37*
G36*
X1086070Y636400D02*
X1077573D01*
X1073386Y644188D01*
X1075272D01*
X1072558Y652213D01*
X1069072D01*
X1059872Y669324D01*
X1062325Y652213D01*
X1069072D01*
X1073386Y644188D01*
X1063476D01*
X1064593Y636400D01*
X1056096D01*
X1051021Y686612D01*
X1057040D01*
X1086070Y636400D01*
D02*
G37*
G36*
X993365Y656300D02*
X993964Y636400D01*
X984583D01*
X985446Y666179D01*
X993365Y656300D01*
D02*
G37*
G36*
X928116Y636400D02*
X919560D01*
X912503Y657110D01*
X917023D01*
X914250Y665194D01*
X909748D01*
X912503Y657110D01*
X905741D01*
X902996Y665194D01*
X909748D01*
X902449Y686612D01*
X911064D01*
X928116Y636400D01*
D02*
G37*
G36*
X902996Y665194D02*
X897434D01*
X900148Y657110D01*
X905741D01*
X912775Y636400D01*
X904219D01*
X887108Y686612D01*
X895723D01*
X902996Y665194D01*
D02*
G37*
G36*
X861559Y636400D02*
X853003D01*
X850112Y644956D01*
X858668D01*
X861559Y636400D01*
D02*
G37*
G36*
X869407Y687085D02*
X870764Y686908D01*
X872003Y686671D01*
X873124Y686435D01*
X874009Y686199D01*
X874422Y686081D01*
X874717Y685963D01*
X874953Y685845D01*
X875130Y685786D01*
X875248Y685727D01*
X875307D01*
X876546Y685196D01*
X877608Y684547D01*
X878611Y683839D01*
X879437Y683190D01*
X880145Y682600D01*
X880676Y682128D01*
X880971Y681833D01*
X881030Y681774D01*
X881089Y681715D01*
X881916Y680712D01*
X882682Y679650D01*
X883332Y678588D01*
X883863Y677585D01*
X884276Y676700D01*
X884453Y676287D01*
X884571Y675992D01*
X884689Y675697D01*
X884748Y675520D01*
X884807Y675402D01*
Y675343D01*
X894188Y647670D01*
X894601Y646313D01*
X894837Y645133D01*
X894955Y644011D01*
X895014Y643067D01*
Y642359D01*
X894955Y641769D01*
X894896Y641415D01*
Y641356D01*
Y641297D01*
X894601Y640353D01*
X894129Y639527D01*
X893657Y638878D01*
X893126Y638288D01*
X892654Y637875D01*
X892241Y637521D01*
X891946Y637344D01*
X891828Y637285D01*
X890825Y636813D01*
X889763Y636518D01*
X888701Y636282D01*
X887698Y636105D01*
X886754Y635987D01*
X886341D01*
X885987Y635928D01*
X885338D01*
X883863Y635987D01*
X882505Y636164D01*
X881266Y636341D01*
X880145Y636636D01*
X879260Y636872D01*
X878847Y636990D01*
X878552Y637049D01*
X878316Y637167D01*
X878139Y637226D01*
X878021Y637285D01*
X877962D01*
X876723Y637875D01*
X875661Y638465D01*
X874658Y639173D01*
X873832Y639822D01*
X873124Y640412D01*
X872593Y640884D01*
X872298Y641179D01*
X872180Y641297D01*
X871295Y642359D01*
X870587Y643421D01*
X869938Y644483D01*
X869407Y645487D01*
X868994Y646372D01*
X868817Y646726D01*
X868699Y647021D01*
X868580Y647316D01*
X868521Y647493D01*
X868463Y647611D01*
Y647670D01*
X859081Y675343D01*
X858668Y676700D01*
X858432Y677939D01*
X858314Y679001D01*
X858255Y679945D01*
X858314Y680712D01*
X858373Y681243D01*
X858432Y681597D01*
Y681715D01*
X858727Y682659D01*
X859140Y683485D01*
X859612Y684134D01*
X860143Y684724D01*
X860615Y685137D01*
X861028Y685491D01*
X861323Y685668D01*
X861441Y685727D01*
X862385Y686199D01*
X863447Y686553D01*
X864568Y686789D01*
X865571Y686966D01*
X866515Y687085D01*
X866928D01*
X867282Y687143D01*
X867932D01*
X869407Y687085D01*
D02*
G37*
G36*
X1207770Y696432D02*
X1199214D01*
X1192579Y715903D01*
X1188004D01*
X1186646Y715962D01*
X1185348Y716080D01*
X1184227Y716316D01*
X1183224Y716553D01*
X1182398Y716788D01*
X1181749Y717025D01*
X1181513Y717084D01*
X1181336Y717142D01*
X1181277Y717202D01*
X1181218D01*
X1180097Y717732D01*
X1179094Y718323D01*
X1178209Y718972D01*
X1177383Y719562D01*
X1176793Y720152D01*
X1176321Y720565D01*
X1176026Y720860D01*
X1175908Y720978D01*
X1175141Y721922D01*
X1174433Y722984D01*
X1173843Y723928D01*
X1173311Y724872D01*
X1172958Y725698D01*
X1172663Y726347D01*
X1172544Y726583D01*
X1172486Y726760D01*
X1172427Y726878D01*
Y726937D01*
X1169594Y735375D01*
X1169181Y736673D01*
X1168945Y737853D01*
X1168827Y738915D01*
X1168768Y739800D01*
Y740508D01*
X1168827Y741039D01*
X1168886Y741393D01*
Y741511D01*
X1169181Y742396D01*
X1169535Y743163D01*
X1170007Y743812D01*
X1170479Y744402D01*
X1170892Y744816D01*
X1171305Y745110D01*
X1171541Y745287D01*
X1171659Y745347D01*
X1172544Y745760D01*
X1173489Y746114D01*
X1174492Y746350D01*
X1175436Y746468D01*
X1176262Y746586D01*
X1176970Y746645D01*
X1182103D01*
X1184898Y738443D01*
X1189479D01*
X1186705Y746645D01*
X1190718D01*
X1207770Y696432D01*
D02*
G37*
G36*
X1020845Y738443D02*
X1012531D01*
X1011168Y742455D01*
X1002612D01*
X1003976Y738443D01*
X1012531D01*
X1026804Y696432D01*
X1018249D01*
X1003976Y738443D01*
X995650D01*
X992877Y746645D01*
X1018012D01*
X1020845Y738443D01*
D02*
G37*
G36*
X982197D02*
X973883D01*
X972520Y742455D01*
X963965D01*
X965328Y738443D01*
X973883D01*
X988156Y696432D01*
X979601D01*
X965328Y738443D01*
X957002D01*
X954229Y746645D01*
X979365D01*
X982197Y738443D01*
D02*
G37*
G36*
X1065101Y738325D02*
X1051350D01*
X1048518Y746645D01*
X1062266D01*
X1065101Y738325D01*
D02*
G37*
G36*
X1154154Y738502D02*
X1149651D01*
X1149061Y738443D01*
X1148589Y738325D01*
X1148235Y738207D01*
X1147881Y738030D01*
X1147704Y737794D01*
X1147527Y737676D01*
X1147409Y737558D01*
Y737499D01*
X1147232Y737086D01*
X1147114Y736673D01*
Y736201D01*
Y735788D01*
X1147173Y735375D01*
X1147291Y735080D01*
X1147350Y734844D01*
Y734785D01*
X1149238Y729238D01*
X1149474Y728648D01*
X1149710Y728176D01*
X1150005Y727763D01*
X1150300Y727409D01*
X1150595Y727114D01*
X1150831Y726937D01*
X1150949Y726819D01*
X1151008Y726760D01*
X1151480Y726465D01*
X1152011Y726229D01*
X1152483Y726111D01*
X1152955Y725993D01*
X1153368Y725934D01*
X1153663Y725875D01*
X1158452D01*
X1161243Y717673D01*
X1158396D01*
X1158325Y719208D01*
X1149887Y720801D01*
X1149908Y719020D01*
X1150005Y718972D01*
X1150182Y718913D01*
X1150418Y718795D01*
X1150713Y718736D01*
X1151126Y718618D01*
X1152011Y718382D01*
X1153132Y718087D01*
X1154371Y717910D01*
X1155787Y717732D01*
X1157262Y717673D01*
X1158396D01*
X1159387Y696432D01*
X1150182D01*
X1149908Y719020D01*
X1149887Y719031D01*
X1149828D01*
X1148589Y719621D01*
X1147527Y720270D01*
X1146524Y720919D01*
X1145698Y721568D01*
X1144989Y722158D01*
X1144458Y722630D01*
X1144164Y722925D01*
X1144045Y723043D01*
X1143219Y724105D01*
X1142452Y725167D01*
X1141803Y726229D01*
X1141331Y727232D01*
X1140918Y728117D01*
X1140741Y728471D01*
X1140623Y728766D01*
X1140505Y729061D01*
X1140446Y729238D01*
X1140387Y729356D01*
Y729415D01*
X1138381Y735316D01*
X1138027Y736614D01*
X1137791Y737794D01*
X1137673Y738856D01*
X1137614Y739741D01*
X1137673Y740449D01*
X1137732Y740980D01*
X1137791Y741334D01*
Y741452D01*
X1138086Y742396D01*
X1138558Y743163D01*
X1139089Y743812D01*
X1139620Y744402D01*
X1140092Y744816D01*
X1140505Y745110D01*
X1140800Y745287D01*
X1140918Y745347D01*
X1141862Y745818D01*
X1142924Y746114D01*
X1144045Y746350D01*
X1145049Y746527D01*
X1145993Y746645D01*
X1146406D01*
X1146760Y746704D01*
X1151362D01*
X1154154Y738502D01*
D02*
G37*
G36*
X914538D02*
X910035D01*
X909445Y738443D01*
X908973Y738325D01*
X908619Y738207D01*
X908265Y738030D01*
X908088Y737794D01*
X907911Y737676D01*
X907793Y737558D01*
Y737499D01*
X907616Y737086D01*
X907498Y736673D01*
Y736201D01*
Y735788D01*
X907557Y735375D01*
X907675Y735080D01*
X907734Y734844D01*
Y734785D01*
X909622Y729238D01*
X909858Y728648D01*
X910094Y728176D01*
X910389Y727763D01*
X910684Y727409D01*
X910979Y727114D01*
X911215Y726937D01*
X911333Y726819D01*
X911392Y726760D01*
X911864Y726465D01*
X912395Y726229D01*
X912867Y726111D01*
X913339Y725993D01*
X913752Y725934D01*
X914047Y725875D01*
X918835D01*
X921627Y717673D01*
X918780D01*
X918708Y719208D01*
X910271Y720801D01*
X910292Y719020D01*
X910389Y718972D01*
X910566Y718913D01*
X910802Y718795D01*
X911097Y718736D01*
X911510Y718618D01*
X912395Y718382D01*
X913516Y718087D01*
X914755Y717910D01*
X916171Y717732D01*
X917646Y717673D01*
X918780D01*
X919771Y696432D01*
X910566D01*
X910292Y719020D01*
X910271Y719031D01*
X910212D01*
X908973Y719621D01*
X907911Y720270D01*
X906908Y720919D01*
X906081Y721568D01*
X905374Y722158D01*
X904842Y722630D01*
X904547Y722925D01*
X904429Y723043D01*
X903603Y724105D01*
X902836Y725167D01*
X902187Y726229D01*
X901715Y727232D01*
X901302Y728117D01*
X901125Y728471D01*
X901007Y728766D01*
X900889Y729061D01*
X900830Y729238D01*
X900771Y729356D01*
Y729415D01*
X898765Y735316D01*
X898411Y736614D01*
X898175Y737794D01*
X898057Y738856D01*
X897998Y739741D01*
X898057Y740449D01*
X898116Y740980D01*
X898175Y741334D01*
Y741452D01*
X898470Y742396D01*
X898942Y743163D01*
X899473Y743812D01*
X900004Y744402D01*
X900476Y744816D01*
X900889Y745110D01*
X901184Y745287D01*
X901302Y745347D01*
X902246Y745818D01*
X903308Y746114D01*
X904429Y746350D01*
X905433Y746527D01*
X906376Y746645D01*
X906790D01*
X907144Y746704D01*
X911746D01*
X914538Y738502D01*
D02*
G37*
G36*
X1072299Y717202D02*
X1060259D01*
X1057427Y725521D01*
X1069464D01*
X1072299Y717202D01*
D02*
G37*
G36*
X848198Y696432D02*
X840351D01*
X830425Y725636D01*
X829553Y696432D01*
X822768D01*
X805715Y746645D01*
X813504D01*
X824038Y715671D01*
X824420Y746645D01*
X831146D01*
X848198Y696432D01*
D02*
G37*
G36*
X1033295Y747117D02*
X1034593Y746940D01*
X1035832Y746704D01*
X1036835Y746409D01*
X1037720Y746114D01*
X1038074Y745996D01*
X1038369Y745878D01*
X1038605Y745760D01*
X1038782Y745701D01*
X1038900Y745641D01*
X1038959D01*
X1040139Y745051D01*
X1041201Y744343D01*
X1042145Y743635D01*
X1042971Y742927D01*
X1043620Y742337D01*
X1044151Y741806D01*
X1044446Y741452D01*
X1044505Y741393D01*
X1044564Y741334D01*
X1045390Y740213D01*
X1046158Y739033D01*
X1046748Y737912D01*
X1047279Y736791D01*
X1047751Y735847D01*
X1047869Y735434D01*
X1048046Y735080D01*
X1048164Y734785D01*
X1048223Y734549D01*
X1048282Y734431D01*
Y734372D01*
X1057073Y708705D01*
X1057486Y707230D01*
X1057781Y705873D01*
X1057958Y704693D01*
X1058017Y703690D01*
Y702863D01*
Y702273D01*
Y702037D01*
X1057958Y701860D01*
Y701801D01*
Y701742D01*
X1057722Y700739D01*
X1057368Y699854D01*
X1056896Y699146D01*
X1056424Y698556D01*
X1056011Y698025D01*
X1055657Y697730D01*
X1055421Y697494D01*
X1055303Y697435D01*
X1054418Y696963D01*
X1053474Y696609D01*
X1052471Y696314D01*
X1051527Y696137D01*
X1050642Y696019D01*
X1049993Y695960D01*
X1049344D01*
X1047928Y696019D01*
X1046629Y696196D01*
X1045449Y696432D01*
X1044387Y696727D01*
X1043502Y696963D01*
X1043148Y697081D01*
X1042853Y697199D01*
X1042617Y697317D01*
X1042440Y697376D01*
X1042381Y697435D01*
X1042322D01*
X1041142Y698025D01*
X1040080Y698733D01*
X1039136Y699441D01*
X1038310Y700149D01*
X1037661Y700798D01*
X1037130Y701270D01*
X1036835Y701624D01*
X1036717Y701683D01*
Y701742D01*
X1035832Y702863D01*
X1035124Y704044D01*
X1034416Y705224D01*
X1033885Y706286D01*
X1033472Y707289D01*
X1033295Y707702D01*
X1033118Y707997D01*
X1033000Y708292D01*
X1032941Y708528D01*
X1032882Y708646D01*
Y708705D01*
X1031525Y712776D01*
X1040198D01*
X1041614Y708705D01*
X1041909Y707997D01*
X1042204Y707407D01*
X1042499Y706876D01*
X1042794Y706463D01*
X1043089Y706109D01*
X1043325Y705873D01*
X1043443Y705696D01*
X1043502Y705637D01*
X1043974Y705283D01*
X1044446Y705047D01*
X1044977Y704811D01*
X1045390Y704693D01*
X1045804Y704634D01*
X1046098Y704575D01*
X1046394D01*
X1046925Y704634D01*
X1047338Y704752D01*
X1047692Y704929D01*
X1047987Y705106D01*
X1048223Y705283D01*
X1048341Y705460D01*
X1048459Y705578D01*
Y705637D01*
X1048577Y706109D01*
X1048636Y706581D01*
Y707112D01*
X1048577Y707584D01*
X1048518Y708056D01*
X1048459Y708410D01*
X1048341Y708646D01*
Y708705D01*
X1039608Y734372D01*
X1039313Y735080D01*
X1039018Y735670D01*
X1038723Y736201D01*
X1038428Y736614D01*
X1038133Y736968D01*
X1037897Y737204D01*
X1037779Y737322D01*
X1037720Y737381D01*
X1037248Y737735D01*
X1036717Y738030D01*
X1036245Y738207D01*
X1035773Y738384D01*
X1035419Y738443D01*
X1035124Y738502D01*
X1034829D01*
X1034121Y738443D01*
X1033590Y738266D01*
X1033295Y738030D01*
X1033177Y737971D01*
X1032822Y737558D01*
X1032645Y737086D01*
X1032527Y736732D01*
Y736614D01*
Y736555D01*
Y735847D01*
X1032645Y735139D01*
X1032764Y734844D01*
X1032822Y734608D01*
X1032882Y734431D01*
Y734372D01*
X1034239Y730300D01*
X1025565D01*
X1024208Y734372D01*
X1023736Y735847D01*
X1023441Y737145D01*
X1023264Y738325D01*
X1023205Y739328D01*
Y740154D01*
Y740744D01*
Y740980D01*
X1023264Y741157D01*
Y741216D01*
Y741275D01*
X1023500Y742278D01*
X1023854Y743163D01*
X1024267Y743930D01*
X1024739Y744520D01*
X1025152Y745051D01*
X1025506Y745347D01*
X1025742Y745583D01*
X1025860Y745641D01*
X1026745Y746173D01*
X1027748Y746527D01*
X1028751Y746822D01*
X1029695Y746999D01*
X1030521Y747117D01*
X1031229Y747176D01*
X1031879D01*
X1033295Y747117D01*
D02*
G37*
G36*
X1176852Y696432D02*
X1168473D01*
X1161243Y717673D01*
X1165818D01*
X1162986Y725875D01*
X1158452D01*
X1154154Y738502D01*
X1158737D01*
X1155964Y746704D01*
X1159800D01*
X1176852Y696432D01*
D02*
G37*
G36*
X1087933D02*
X1084156D01*
X1081324Y704752D01*
X1076542D01*
X1072299Y717202D01*
X1077076D01*
X1074243Y725521D01*
X1069464D01*
X1065101Y738325D01*
X1069936D01*
X1067045Y746645D01*
X1070880D01*
X1087933Y696432D01*
D02*
G37*
G36*
X1079377D02*
X1065629D01*
X1062797Y704752D01*
X1076542D01*
X1079377Y696432D01*
D02*
G37*
G36*
X970986D02*
X962489D01*
X958302Y704221D01*
X960188D01*
X957474Y712245D01*
X953988D01*
X944788Y729356D01*
X947242Y712245D01*
X953988D01*
X958302Y704221D01*
X948392D01*
X949509Y696432D01*
X941012D01*
X935938Y746645D01*
X941956D01*
X970986Y696432D01*
D02*
G37*
G36*
X937236D02*
X928857D01*
X921627Y717673D01*
X926202D01*
X923370Y725875D01*
X918835D01*
X914538Y738502D01*
X919121D01*
X916348Y746704D01*
X920183D01*
X937236Y696432D01*
D02*
G37*
G36*
X890858Y738443D02*
X878940D01*
X903190Y703985D01*
X905787Y696432D01*
X884132D01*
X881359Y704634D01*
X894163D01*
X869971Y739092D01*
X867434Y746645D01*
X888085D01*
X890858Y738443D01*
D02*
G37*
G36*
X881949Y696432D02*
X873452D01*
X869265Y704221D01*
X871151D01*
X868437Y712245D01*
X864950D01*
X855751Y729356D01*
X858204Y712245D01*
X864950D01*
X869265Y704221D01*
X859355D01*
X860471Y696432D01*
X851975D01*
X846900Y746645D01*
X852919D01*
X881949Y696432D01*
D02*
G37*
G36*
X1116255Y747117D02*
X1117612Y746940D01*
X1118851Y746704D01*
X1119972Y746468D01*
X1120857Y746232D01*
X1121270Y746114D01*
X1121565Y745996D01*
X1121801Y745878D01*
X1121978Y745818D01*
X1122096Y745760D01*
X1122155D01*
X1123394Y745229D01*
X1124456Y744579D01*
X1125459Y743871D01*
X1126285Y743222D01*
X1126993Y742632D01*
X1127524Y742160D01*
X1127819Y741865D01*
X1127878Y741806D01*
X1127937Y741747D01*
X1128763Y740744D01*
X1129530Y739682D01*
X1130180Y738620D01*
X1130711Y737617D01*
X1131124Y736732D01*
X1131301Y736319D01*
X1131419Y736024D01*
X1131537Y735729D01*
X1131596Y735552D01*
X1131655Y735434D01*
Y735375D01*
X1141036Y707702D01*
X1141449Y706345D01*
X1141685Y705165D01*
X1141803Y704044D01*
X1141862Y703100D01*
Y702392D01*
X1141803Y701801D01*
X1141744Y701447D01*
Y701388D01*
Y701329D01*
X1141449Y700385D01*
X1140977Y699559D01*
X1140505Y698910D01*
X1139974Y698320D01*
X1139502Y697907D01*
X1139089Y697553D01*
X1138794Y697376D01*
X1138676Y697317D01*
X1137673Y696845D01*
X1136611Y696550D01*
X1135549Y696314D01*
X1134546Y696137D01*
X1133602Y696019D01*
X1133189D01*
X1132835Y695960D01*
X1132186D01*
X1130711Y696019D01*
X1129353Y696196D01*
X1128114Y696373D01*
X1126993Y696668D01*
X1126108Y696904D01*
X1125695Y697022D01*
X1125400Y697081D01*
X1125164Y697199D01*
X1124987Y697258D01*
X1124869Y697317D01*
X1124810D01*
X1123571Y697907D01*
X1122509Y698497D01*
X1121506Y699205D01*
X1120680Y699854D01*
X1119972Y700444D01*
X1119441Y700916D01*
X1119146Y701211D01*
X1119028Y701329D01*
X1118143Y702392D01*
X1117435Y703454D01*
X1116786Y704516D01*
X1116255Y705519D01*
X1115842Y706404D01*
X1115664Y706758D01*
X1115546Y707053D01*
X1115428Y707348D01*
X1115369Y707525D01*
X1115310Y707643D01*
Y707702D01*
X1105929Y735375D01*
X1105516Y736732D01*
X1105280Y737971D01*
X1105162Y739033D01*
X1105103Y739977D01*
X1105162Y740744D01*
X1105221Y741275D01*
X1105280Y741629D01*
Y741747D01*
X1105575Y742691D01*
X1105988Y743517D01*
X1106460Y744166D01*
X1106991Y744756D01*
X1107463Y745170D01*
X1107876Y745524D01*
X1108171Y745701D01*
X1108289Y745760D01*
X1109233Y746232D01*
X1110295Y746586D01*
X1111416Y746822D01*
X1112419Y746999D01*
X1113363Y747117D01*
X1113776D01*
X1114130Y747176D01*
X1114779D01*
X1116255Y747117D01*
D02*
G37*
G36*
X1098671Y708174D02*
X1098966Y707525D01*
X1099261Y706994D01*
X1099556Y706522D01*
X1099851Y706168D01*
X1100146Y705873D01*
X1100382Y705637D01*
X1100500Y705519D01*
X1100559Y705460D01*
X1101031Y705165D01*
X1101503Y704929D01*
X1102035Y704811D01*
X1102448Y704693D01*
X1102860Y704634D01*
X1103215Y704575D01*
X1103510D01*
X1104336Y704693D01*
X1104926Y704870D01*
X1105162Y704988D01*
X1105339Y705047D01*
X1105457Y705165D01*
X1105516D01*
X1106047Y705755D01*
X1106460Y706345D01*
X1106637Y706581D01*
X1106696Y706817D01*
X1106814Y706935D01*
Y706994D01*
X1114543Y701034D01*
X1114130Y700208D01*
X1113658Y699441D01*
X1113186Y698792D01*
X1112655Y698261D01*
X1112183Y697789D01*
X1111770Y697494D01*
X1111534Y697317D01*
X1111416Y697258D01*
X1110531Y696845D01*
X1109587Y696491D01*
X1108643Y696255D01*
X1107758Y696137D01*
X1106991Y696019D01*
X1106401Y695960D01*
X1105870D01*
X1104867Y696019D01*
X1103864Y696078D01*
X1102094Y696432D01*
X1100441Y696904D01*
X1099733Y697140D01*
X1099084Y697435D01*
X1098435Y697730D01*
X1097904Y697966D01*
X1097491Y698202D01*
X1097078Y698438D01*
X1096783Y698615D01*
X1096547Y698792D01*
X1096429Y698851D01*
X1096370Y698910D01*
X1094954Y700090D01*
X1093715Y701447D01*
X1092712Y702804D01*
X1091886Y704162D01*
X1091237Y705342D01*
X1091001Y705873D01*
X1090824Y706286D01*
X1090647Y706640D01*
X1090529Y706935D01*
X1090470Y707112D01*
Y707171D01*
X1077017Y746645D01*
X1085631D01*
X1098671Y708174D01*
D02*
G37*
%LPC*%
G36*
X1162856Y678411D02*
X1158586D01*
X1157996Y678352D01*
X1157583Y678234D01*
X1157170Y678057D01*
X1156875Y677880D01*
X1156698Y677644D01*
X1156580Y677467D01*
X1156462Y677349D01*
Y677290D01*
X1156344Y676818D01*
X1156285Y676346D01*
Y675815D01*
X1156344Y675284D01*
X1156462Y674812D01*
X1156521Y674458D01*
X1156580Y674222D01*
X1156639Y674104D01*
X1158645Y668203D01*
X1158940Y667495D01*
X1159235Y666905D01*
X1159530Y666374D01*
X1159884Y665961D01*
X1160120Y665607D01*
X1160356Y665371D01*
X1160533Y665194D01*
X1160592Y665135D01*
X1161064Y664781D01*
X1161536Y664545D01*
X1162008Y664309D01*
X1162480Y664191D01*
X1162834Y664132D01*
X1163130Y664073D01*
X1167742D01*
X1162856Y678411D01*
D02*
G37*
G36*
X1172334Y664073D02*
X1167742D01*
X1170537Y655871D01*
X1175107D01*
X1172334Y664073D01*
D02*
G37*
G36*
X1062325Y652213D02*
X1058869D01*
X1061583Y644188D01*
X1063476D01*
X1062325Y652213D01*
D02*
G37*
G36*
X871177Y678647D02*
X870823D01*
X870115Y678588D01*
X869525Y678470D01*
X869053Y678293D01*
X868699Y678057D01*
X868403Y677821D01*
X868226Y677644D01*
X868167Y677526D01*
X868109Y677467D01*
X867932Y676995D01*
X867813Y676523D01*
Y675992D01*
Y675461D01*
X867932Y674989D01*
X867990Y674635D01*
X868049Y674399D01*
X868109Y674281D01*
X876782Y648791D01*
X877077Y648024D01*
X877431Y647375D01*
X877785Y646844D01*
X878139Y646372D01*
X878434Y646018D01*
X878729Y645781D01*
X878906Y645604D01*
X878965Y645546D01*
X879555Y645191D01*
X880145Y644896D01*
X880735Y644719D01*
X881266Y644542D01*
X881739Y644483D01*
X882093Y644424D01*
X882447D01*
X883096Y644483D01*
X883686Y644602D01*
X884158Y644779D01*
X884512Y645014D01*
X884748Y645191D01*
X884984Y645368D01*
X885043Y645487D01*
X885102Y645546D01*
X885279Y646018D01*
X885397Y646549D01*
Y647080D01*
X885338Y647611D01*
X885279Y648083D01*
X885220Y648437D01*
X885102Y648673D01*
Y648791D01*
X876428Y674281D01*
X876133Y674989D01*
X875779Y675638D01*
X875425Y676169D01*
X875071Y676641D01*
X874776Y676995D01*
X874481Y677290D01*
X874304Y677408D01*
X874245Y677467D01*
X873655Y677880D01*
X873065Y678175D01*
X872534Y678352D01*
X872003Y678529D01*
X871531Y678588D01*
X871177Y678647D01*
D02*
G37*
G36*
X1184898Y738443D02*
X1180628D01*
X1180038Y738384D01*
X1179625Y738266D01*
X1179212Y738089D01*
X1178917Y737912D01*
X1178740Y737676D01*
X1178622Y737499D01*
X1178504Y737381D01*
Y737322D01*
X1178386Y736850D01*
X1178327Y736378D01*
Y735847D01*
X1178386Y735316D01*
X1178504Y734844D01*
X1178563Y734490D01*
X1178622Y734254D01*
X1178681Y734136D01*
X1180687Y728235D01*
X1180982Y727527D01*
X1181277Y726937D01*
X1181572Y726406D01*
X1181926Y725993D01*
X1182162Y725639D01*
X1182398Y725403D01*
X1182575Y725226D01*
X1182634Y725167D01*
X1183106Y724813D01*
X1183578Y724577D01*
X1184050Y724341D01*
X1184522Y724223D01*
X1184876Y724164D01*
X1185171Y724105D01*
X1189784D01*
X1184898Y738443D01*
D02*
G37*
G36*
X1194376Y724105D02*
X1189784D01*
X1192579Y715903D01*
X1197149D01*
X1194376Y724105D01*
D02*
G37*
G36*
X947242Y712245D02*
X943785D01*
X946499Y704221D01*
X948392D01*
X947242Y712245D01*
D02*
G37*
G36*
X858204D02*
X854748D01*
X857462Y704221D01*
X859355D01*
X858204Y712245D01*
D02*
G37*
G36*
X1118025Y738679D02*
X1117671D01*
X1116963Y738620D01*
X1116373Y738502D01*
X1115900Y738325D01*
X1115546Y738089D01*
X1115251Y737853D01*
X1115074Y737676D01*
X1115015Y737558D01*
X1114956Y737499D01*
X1114779Y737027D01*
X1114661Y736555D01*
Y736024D01*
Y735493D01*
X1114779Y735021D01*
X1114838Y734667D01*
X1114897Y734431D01*
X1114956Y734313D01*
X1123630Y708823D01*
X1123925Y708056D01*
X1124279Y707407D01*
X1124633Y706876D01*
X1124987Y706404D01*
X1125282Y706050D01*
X1125577Y705814D01*
X1125754Y705637D01*
X1125813Y705578D01*
X1126403Y705224D01*
X1126993Y704929D01*
X1127583Y704752D01*
X1128114Y704575D01*
X1128586Y704516D01*
X1128940Y704457D01*
X1129294D01*
X1129943Y704516D01*
X1130534Y704634D01*
X1131005Y704811D01*
X1131360Y705047D01*
X1131596Y705224D01*
X1131832Y705401D01*
X1131891Y705519D01*
X1131950Y705578D01*
X1132127Y706050D01*
X1132245Y706581D01*
Y707112D01*
X1132186Y707643D01*
X1132127Y708115D01*
X1132068Y708469D01*
X1131950Y708705D01*
Y708823D01*
X1123276Y734313D01*
X1122981Y735021D01*
X1122627Y735670D01*
X1122273Y736201D01*
X1121919Y736673D01*
X1121624Y737027D01*
X1121329Y737322D01*
X1121152Y737440D01*
X1121093Y737499D01*
X1120503Y737912D01*
X1119913Y738207D01*
X1119382Y738384D01*
X1118851Y738561D01*
X1118379Y738620D01*
X1118025Y738679D01*
D02*
G37*
%LPD*%
M02*
