G04*
G04 #@! TF.GenerationSoftware,Altium Limited,Altium Designer,24.3.1 (35)*
G04*
G04 Layer_Color=65535*
%FSLAX44Y44*%
%MOMM*%
G71*
G04*
G04 #@! TF.SameCoordinates,415FF187-5A5C-4AE5-99A9-351CB55277AC*
G04*
G04*
G04 #@! TF.FilePolarity,Positive*
G04*
G01*
G75*
%ADD10C,0.2500*%
%ADD11C,0.2540*%
%ADD12C,0.1500*%
%ADD13C,0.2000*%
%ADD14C,0.1270*%
%ADD15C,0.1000*%
G36*
X275570Y327631D02*
X276114D01*
Y327086D01*
X276658D01*
Y326542D01*
X277202D01*
Y325998D01*
X277746D01*
Y325454D01*
X277202D01*
Y324910D01*
X277746D01*
Y324366D01*
X277202D01*
Y324910D01*
X276658D01*
Y324366D01*
X277202D01*
Y323822D01*
X277746D01*
Y323278D01*
X277202D01*
Y322734D01*
X277746D01*
Y322190D01*
X277202D01*
Y322734D01*
X276658D01*
Y322190D01*
X277202D01*
Y321646D01*
X277746D01*
Y321102D01*
X277202D01*
Y320558D01*
X277746D01*
Y320014D01*
X277202D01*
Y320558D01*
X276658D01*
Y320014D01*
X277202D01*
Y319470D01*
X277746D01*
Y318925D01*
X277202D01*
Y318381D01*
X277746D01*
Y317837D01*
X277202D01*
Y318381D01*
X276658D01*
Y317837D01*
X277202D01*
Y317293D01*
X277746D01*
Y316749D01*
X277202D01*
Y316205D01*
X277746D01*
Y315661D01*
X277202D01*
Y316205D01*
X276658D01*
Y315661D01*
X277202D01*
Y315117D01*
X277746D01*
Y314573D01*
X277202D01*
Y314029D01*
X277746D01*
Y313485D01*
X277202D01*
Y314029D01*
X276658D01*
Y313485D01*
X277202D01*
Y312941D01*
X277746D01*
Y312397D01*
X277202D01*
Y311853D01*
X277746D01*
Y311309D01*
X277202D01*
Y311853D01*
X276658D01*
Y311309D01*
X277202D01*
Y310765D01*
X277746D01*
Y310220D01*
X277202D01*
Y309676D01*
X277746D01*
Y309132D01*
X277202D01*
Y309676D01*
X276658D01*
Y309132D01*
X277202D01*
Y308588D01*
X277746D01*
Y308044D01*
X277202D01*
Y307500D01*
X277746D01*
Y306956D01*
X277202D01*
Y307500D01*
X276658D01*
Y306956D01*
X277202D01*
Y306412D01*
X277746D01*
Y305868D01*
X277202D01*
Y305324D01*
X277746D01*
Y304780D01*
X277202D01*
Y305324D01*
X276658D01*
Y304780D01*
X277202D01*
Y304236D01*
X277746D01*
Y303692D01*
X277202D01*
Y303148D01*
X277746D01*
Y302603D01*
X277202D01*
Y303148D01*
X276658D01*
Y302603D01*
X277202D01*
Y302059D01*
X277746D01*
Y301515D01*
X277202D01*
Y300971D01*
X277746D01*
Y300427D01*
X277202D01*
Y300971D01*
X276658D01*
Y300427D01*
X277202D01*
Y299883D01*
Y299339D01*
Y298795D01*
X277746D01*
Y298251D01*
X277202D01*
Y298795D01*
X276658D01*
Y298251D01*
X277202D01*
Y297707D01*
X277746D01*
Y297163D01*
X277202D01*
Y296619D01*
X277746D01*
Y296075D01*
X277202D01*
Y296619D01*
X276658D01*
Y296075D01*
X277202D01*
Y295531D01*
X277746D01*
Y294987D01*
X277202D01*
Y294443D01*
X277746D01*
Y293899D01*
X277202D01*
Y294443D01*
X276658D01*
Y293899D01*
X277202D01*
Y293354D01*
X277746D01*
Y292810D01*
X277202D01*
Y292266D01*
X277746D01*
Y291722D01*
X277202D01*
Y292266D01*
X276658D01*
Y291722D01*
X277202D01*
Y291178D01*
X277746D01*
Y290634D01*
X277202D01*
Y290090D01*
X277746D01*
Y289546D01*
X277202D01*
Y290090D01*
X276658D01*
Y289546D01*
X277202D01*
Y289002D01*
X277746D01*
Y288458D01*
X277202D01*
Y287914D01*
X277746D01*
Y287370D01*
X277202D01*
Y287914D01*
X276658D01*
Y287370D01*
X277202D01*
Y286826D01*
X277746D01*
Y286282D01*
X277202D01*
Y285737D01*
X277746D01*
Y285194D01*
X277202D01*
Y285737D01*
X276658D01*
Y285194D01*
X277202D01*
Y284649D01*
X277746D01*
Y284105D01*
X277202D01*
Y283561D01*
X277746D01*
Y283017D01*
X277202D01*
Y283561D01*
X276658D01*
Y283017D01*
X277202D01*
Y282473D01*
X277746D01*
Y281929D01*
X277202D01*
Y281385D01*
X277746D01*
Y280841D01*
X277202D01*
Y281385D01*
X276658D01*
Y280841D01*
X277202D01*
Y280297D01*
X277746D01*
Y279753D01*
X277202D01*
Y279209D01*
X277746D01*
Y278665D01*
X277202D01*
Y279209D01*
X276658D01*
Y278665D01*
X277202D01*
Y278121D01*
X277746D01*
Y277577D01*
X277202D01*
Y277033D01*
X277746D01*
Y276488D01*
X277202D01*
Y277033D01*
X276658D01*
Y276488D01*
X277202D01*
Y275944D01*
X277746D01*
Y275400D01*
X277202D01*
Y274856D01*
X277746D01*
Y274312D01*
X277202D01*
Y274856D01*
X276658D01*
Y274312D01*
X277202D01*
Y273768D01*
X277746D01*
Y273224D01*
X277202D01*
Y272680D01*
X277746D01*
Y272136D01*
X277202D01*
Y272680D01*
X276658D01*
Y272136D01*
X277202D01*
Y271592D01*
X277746D01*
Y271048D01*
X277202D01*
Y270504D01*
X277746D01*
Y269960D01*
X277202D01*
Y270504D01*
X276658D01*
Y269960D01*
X276114D01*
Y269416D01*
X276658D01*
Y268871D01*
X276114D01*
Y268328D01*
X276658D01*
Y267783D01*
X276114D01*
Y267239D01*
X276658D01*
Y266695D01*
X276114D01*
Y266151D01*
X275570D01*
Y265607D01*
X276114D01*
Y265063D01*
X276658D01*
Y264519D01*
X276114D01*
Y265063D01*
X275570D01*
Y265607D01*
X275026D01*
Y265063D01*
X275570D01*
Y264519D01*
X275026D01*
Y263975D01*
X275570D01*
Y263431D01*
X275026D01*
Y262887D01*
X275570D01*
Y262343D01*
X275026D01*
Y261799D01*
X274482D01*
Y262343D01*
X273938D01*
Y261799D01*
X274482D01*
Y261255D01*
X273938D01*
Y260711D01*
X274482D01*
Y260166D01*
X273938D01*
Y260711D01*
X273393D01*
Y260166D01*
X272849D01*
Y259622D01*
X273393D01*
Y259078D01*
X272849D01*
Y258534D01*
X273393D01*
Y257990D01*
X272849D01*
Y257446D01*
X272305D01*
Y257990D01*
X271761D01*
Y257446D01*
X272305D01*
Y256902D01*
X271761D01*
Y256358D01*
X271217D01*
Y256902D01*
X270673D01*
Y256358D01*
X271217D01*
Y255814D01*
X270673D01*
Y255270D01*
X271217D01*
Y254726D01*
X270673D01*
Y255270D01*
X270129D01*
Y254726D01*
X269585D01*
Y254182D01*
X270129D01*
Y253638D01*
X269585D01*
Y254182D01*
X269041D01*
Y253638D01*
X268497D01*
Y253094D01*
X269041D01*
Y252550D01*
X268497D01*
Y253094D01*
X267953D01*
Y252550D01*
X267409D01*
Y252006D01*
X267953D01*
Y251462D01*
X267409D01*
Y252006D01*
X266865D01*
Y251462D01*
X266321D01*
Y250917D01*
X266865D01*
Y250373D01*
X266321D01*
Y250917D01*
X265777D01*
Y250373D01*
X265233D01*
Y249829D01*
X265777D01*
Y249285D01*
X265233D01*
Y249829D01*
X264688D01*
Y250373D01*
X264144D01*
Y249829D01*
X264688D01*
Y249285D01*
X264144D01*
Y248741D01*
X263600D01*
Y249285D01*
X263056D01*
Y248741D01*
X263600D01*
Y248197D01*
X263056D01*
Y248741D01*
X262512D01*
Y248197D01*
X261968D01*
Y247653D01*
X261424D01*
Y248197D01*
X260880D01*
Y247653D01*
X261424D01*
Y247109D01*
X260880D01*
Y247653D01*
X260336D01*
Y247109D01*
X259792D01*
Y246565D01*
X260336D01*
Y246021D01*
X259792D01*
Y246565D01*
X259248D01*
Y246021D01*
X257616D01*
Y245477D01*
X257072D01*
Y246021D01*
X256528D01*
Y245477D01*
X257072D01*
Y244933D01*
X256528D01*
Y245477D01*
X255984D01*
Y246021D01*
X255439D01*
Y245477D01*
X255984D01*
Y244933D01*
X255439D01*
Y244389D01*
X255984D01*
Y243845D01*
X255439D01*
Y244389D01*
X254895D01*
Y244933D01*
X254351D01*
Y244389D01*
X254895D01*
Y243845D01*
X254351D01*
Y244389D01*
X253807D01*
Y244933D01*
X253263D01*
Y244389D01*
X253807D01*
Y243845D01*
X253263D01*
Y244389D01*
X252719D01*
Y243845D01*
X252175D01*
Y244389D01*
X251631D01*
Y244933D01*
X251087D01*
Y244389D01*
X251631D01*
Y243845D01*
X251087D01*
Y244389D01*
X250543D01*
Y243845D01*
X249999D01*
Y243301D01*
X250543D01*
Y242757D01*
X249999D01*
Y243301D01*
X249455D01*
Y243845D01*
X248911D01*
Y243301D01*
X249455D01*
Y242757D01*
X248911D01*
Y243301D01*
X248367D01*
Y243845D01*
X247823D01*
Y243301D01*
X248367D01*
Y242757D01*
X247823D01*
Y243301D01*
X247278D01*
Y243845D01*
X246734D01*
Y243301D01*
X247278D01*
Y242757D01*
X246734D01*
Y243301D01*
X246190D01*
Y243845D01*
X245646D01*
Y243301D01*
X246190D01*
Y242757D01*
X245646D01*
Y243301D01*
X245102D01*
Y243845D01*
X244558D01*
Y243301D01*
X245102D01*
Y242757D01*
X244558D01*
Y243301D01*
X244014D01*
Y243845D01*
X243470D01*
Y243301D01*
X244014D01*
Y242757D01*
X243470D01*
Y243301D01*
X242926D01*
Y243845D01*
X242382D01*
Y244389D01*
X241838D01*
Y243845D01*
X241294D01*
Y244389D01*
X240750D01*
Y244933D01*
X240206D01*
Y244389D01*
X240750D01*
Y243845D01*
X240206D01*
Y244389D01*
X239662D01*
Y244933D01*
X239118D01*
Y244389D01*
X239662D01*
Y243845D01*
X239118D01*
Y244389D01*
X238573D01*
Y244933D01*
X238029D01*
Y244389D01*
X238573D01*
Y243845D01*
X238029D01*
Y244389D01*
X237485D01*
Y244933D01*
X236941D01*
Y245477D01*
X236397D01*
Y246021D01*
X235853D01*
Y245477D01*
X236397D01*
Y244933D01*
X235853D01*
Y245477D01*
X235309D01*
Y246021D01*
X234765D01*
Y245477D01*
X235309D01*
Y244933D01*
X234765D01*
Y245477D01*
X234221D01*
Y246021D01*
X233677D01*
Y246565D01*
X233133D01*
Y247109D01*
X232589D01*
Y246565D01*
X233133D01*
Y246021D01*
X232589D01*
Y246565D01*
X232045D01*
Y247109D01*
X231501D01*
Y247653D01*
X230956D01*
Y248197D01*
X230413D01*
Y247653D01*
X230956D01*
Y247109D01*
X230413D01*
Y247653D01*
X229869D01*
Y248197D01*
X229324D01*
Y248741D01*
X228780D01*
Y249285D01*
X228236D01*
Y249829D01*
X227692D01*
Y250373D01*
X226060D01*
Y250917D01*
X225516D01*
Y251462D01*
X224972D01*
Y252006D01*
X224428D01*
Y252550D01*
X223884D01*
Y253094D01*
X223340D01*
Y253638D01*
X222796D01*
Y254182D01*
X222251D01*
Y254726D01*
X221707D01*
Y255270D01*
X222251D01*
Y255814D01*
X221707D01*
Y256358D01*
X221163D01*
Y256902D01*
X220619D01*
Y257446D01*
X220075D01*
Y257990D01*
X219531D01*
Y258534D01*
X218987D01*
Y259078D01*
X218443D01*
Y259622D01*
X218987D01*
Y260166D01*
X218443D01*
Y260711D01*
X218987D01*
Y261255D01*
X218443D01*
Y261799D01*
X217899D01*
Y262343D01*
X217355D01*
Y262887D01*
X216811D01*
Y263431D01*
X216267D01*
Y263975D01*
X216811D01*
Y263431D01*
X217355D01*
Y262887D01*
X217899D01*
Y263431D01*
X217355D01*
Y263975D01*
X216811D01*
Y264519D01*
X216267D01*
Y265063D01*
X216811D01*
Y265607D01*
X216267D01*
Y266151D01*
X215723D01*
Y266695D01*
X215179D01*
Y267239D01*
X215723D01*
Y267783D01*
X215179D01*
Y268328D01*
X215723D01*
Y267783D01*
X216267D01*
Y268328D01*
X215723D01*
Y268871D01*
X215179D01*
Y269416D01*
X215723D01*
Y269960D01*
X215179D01*
Y270504D01*
X215723D01*
Y271048D01*
X215179D01*
Y271592D01*
X214635D01*
Y272136D01*
X214091D01*
Y272680D01*
X214635D01*
Y272136D01*
X215179D01*
Y271592D01*
X215723D01*
Y272136D01*
X215179D01*
Y272680D01*
X215723D01*
Y273224D01*
X215179D01*
Y273768D01*
X214635D01*
Y274312D01*
X214091D01*
Y274856D01*
X214635D01*
Y274312D01*
X215179D01*
Y273768D01*
X215723D01*
Y274312D01*
X215179D01*
Y274856D01*
Y275400D01*
Y275944D01*
X214635D01*
Y276488D01*
X214091D01*
Y277033D01*
X214635D01*
Y276488D01*
X215179D01*
Y275944D01*
X215723D01*
Y276488D01*
X215179D01*
Y277033D01*
X215723D01*
Y277577D01*
X215179D01*
Y278121D01*
X215723D01*
Y278665D01*
X215179D01*
Y279209D01*
X215723D01*
Y279753D01*
X215179D01*
Y280297D01*
X215723D01*
Y280841D01*
X215179D01*
Y281385D01*
X215723D01*
Y280841D01*
X216267D01*
Y281385D01*
X215723D01*
Y281929D01*
X215179D01*
Y282473D01*
X215723D01*
Y281929D01*
X216267D01*
Y281385D01*
X216811D01*
Y281929D01*
X216267D01*
Y282473D01*
X216811D01*
Y283017D01*
X216267D01*
Y283561D01*
X216811D01*
Y284105D01*
X216267D01*
Y284649D01*
X216811D01*
Y285194D01*
X217355D01*
Y284649D01*
X217899D01*
Y285194D01*
X217355D01*
Y285737D01*
X217899D01*
Y286282D01*
X217355D01*
Y286826D01*
X217899D01*
Y287370D01*
X218443D01*
Y287914D01*
X218987D01*
Y288458D01*
X218443D01*
Y289002D01*
X218987D01*
Y289546D01*
X218443D01*
Y290090D01*
X218987D01*
Y289546D01*
X219531D01*
Y289002D01*
X220075D01*
Y289546D01*
X219531D01*
Y290090D01*
X220075D01*
Y290634D01*
X219531D01*
Y291178D01*
X221163D01*
Y291722D01*
X220619D01*
Y292266D01*
X221163D01*
Y292810D01*
X221707D01*
Y293354D01*
X222251D01*
Y293899D01*
X221707D01*
Y294443D01*
X222251D01*
Y293899D01*
X222796D01*
Y294443D01*
X223340D01*
Y294987D01*
X222796D01*
Y295531D01*
X223340D01*
Y294987D01*
X223884D01*
Y295531D01*
X224428D01*
Y296075D01*
X223884D01*
Y296619D01*
X224428D01*
Y296075D01*
X224972D01*
Y296619D01*
X225516D01*
Y297163D01*
X224972D01*
Y297707D01*
X225516D01*
Y297163D01*
X226060D01*
Y297707D01*
X226604D01*
Y298251D01*
X227148D01*
Y298795D01*
X227692D01*
Y299339D01*
X228236D01*
Y298795D01*
X228780D01*
Y299339D01*
X228236D01*
Y299883D01*
X229869D01*
Y300427D01*
X229324D01*
Y300971D01*
X229869D01*
Y300427D01*
X230413D01*
Y299883D01*
X230956D01*
Y300427D01*
X230413D01*
Y300971D01*
X230956D01*
Y301515D01*
X231501D01*
Y300971D01*
X232045D01*
Y301515D01*
X231501D01*
Y302059D01*
X232045D01*
Y301515D01*
X232589D01*
Y302059D01*
X234221D01*
Y302603D01*
X233677D01*
Y303148D01*
X234221D01*
Y302603D01*
X234765D01*
Y302059D01*
X235309D01*
Y302603D01*
X234765D01*
Y303148D01*
X235309D01*
Y302603D01*
X235853D01*
Y303148D01*
X236397D01*
Y303692D01*
X236941D01*
Y303148D01*
X237485D01*
Y303692D01*
X236941D01*
Y304236D01*
X237485D01*
Y303692D01*
X238029D01*
Y303148D01*
X238573D01*
Y303692D01*
X238029D01*
Y304236D01*
X238573D01*
Y303692D01*
X239118D01*
Y304236D01*
X240750D01*
Y304780D01*
X241294D01*
Y304236D01*
X241838D01*
Y304780D01*
X241294D01*
Y305324D01*
X241838D01*
Y304780D01*
X242382D01*
Y304236D01*
X242926D01*
Y304780D01*
X242382D01*
Y305324D01*
X242926D01*
Y304780D01*
X243470D01*
Y304236D01*
X244014D01*
Y304780D01*
X243470D01*
Y305324D01*
X244014D01*
Y304780D01*
X244558D01*
Y304236D01*
X245102D01*
Y304780D01*
X244558D01*
Y305324D01*
X245102D01*
Y304780D01*
X245646D01*
Y304236D01*
X246190D01*
Y304780D01*
X245646D01*
Y305324D01*
X246190D01*
Y304780D01*
X246734D01*
Y304236D01*
X247278D01*
Y304780D01*
X246734D01*
Y305324D01*
X247278D01*
Y304780D01*
X247823D01*
Y304236D01*
X248367D01*
Y304780D01*
X247823D01*
Y305324D01*
X248367D01*
Y304780D01*
X248911D01*
Y304236D01*
X249455D01*
Y304780D01*
X248911D01*
Y305324D01*
X249455D01*
Y304780D01*
X249999D01*
Y304236D01*
X250543D01*
Y304780D01*
X249999D01*
Y305324D01*
X250543D01*
Y304780D01*
X251087D01*
Y304236D01*
X251631D01*
Y304780D01*
X251087D01*
Y305324D01*
X251631D01*
Y304780D01*
X252175D01*
Y304236D01*
X253807D01*
Y303692D01*
X254351D01*
Y303148D01*
X254895D01*
Y303692D01*
X254351D01*
Y304236D01*
X254895D01*
Y303692D01*
X255439D01*
Y303148D01*
X257072D01*
Y302603D01*
X257616D01*
Y302059D01*
X258160D01*
Y302603D01*
X257616D01*
Y303148D01*
X258160D01*
Y302603D01*
X258704D01*
Y302059D01*
X260336D01*
Y301515D01*
X260880D01*
Y300971D01*
X261424D01*
Y300427D01*
X261968D01*
Y299883D01*
X262512D01*
Y300427D01*
X261968D01*
Y300971D01*
X262512D01*
Y300427D01*
X263056D01*
Y299883D01*
X263600D01*
Y299339D01*
X264144D01*
Y298795D01*
X264688D01*
Y298251D01*
X265233D01*
Y297707D01*
X266865D01*
Y297163D01*
X266321D01*
Y296619D01*
X266865D01*
Y296075D01*
X267409D01*
Y295531D01*
X267953D01*
Y294987D01*
X268497D01*
Y294443D01*
X269041D01*
Y293899D01*
X269585D01*
Y293354D01*
X270129D01*
Y292810D01*
X270673D01*
Y292266D01*
X271217D01*
Y291722D01*
X271761D01*
Y291178D01*
X272305D01*
Y290634D01*
X271761D01*
Y291178D01*
X271217D01*
Y291722D01*
X270673D01*
Y291178D01*
X271217D01*
Y290634D01*
X271761D01*
Y290090D01*
X272305D01*
Y289546D01*
X272849D01*
Y289002D01*
X273393D01*
Y289546D01*
X272849D01*
Y290090D01*
X273393D01*
Y289546D01*
X273938D01*
Y289002D01*
X274482D01*
Y289546D01*
X273938D01*
Y290090D01*
X273393D01*
Y290634D01*
X272849D01*
Y291178D01*
X273393D01*
Y290634D01*
X273938D01*
Y291178D01*
X273393D01*
Y291722D01*
X272849D01*
Y292266D01*
X273393D01*
Y292810D01*
X272849D01*
Y293354D01*
X273393D01*
Y293899D01*
X272849D01*
Y294443D01*
X273393D01*
Y294987D01*
X272849D01*
Y295531D01*
X273393D01*
Y294987D01*
X273938D01*
Y295531D01*
X273393D01*
Y296075D01*
X272849D01*
Y296619D01*
X273393D01*
Y297163D01*
X272849D01*
Y297707D01*
X273393D01*
Y298251D01*
X272849D01*
Y298795D01*
X273393D01*
Y299339D01*
X272849D01*
Y299883D01*
X273393D01*
Y299339D01*
X273938D01*
Y299883D01*
X273393D01*
Y300427D01*
X272849D01*
Y300971D01*
X273393D01*
Y301515D01*
X272849D01*
Y302059D01*
X273393D01*
Y301515D01*
X273938D01*
Y302059D01*
X273393D01*
Y302603D01*
X272849D01*
Y303148D01*
X273393D01*
Y302603D01*
X273938D01*
Y302059D01*
X274482D01*
Y302603D01*
X273938D01*
Y303148D01*
X273393D01*
Y303692D01*
X272849D01*
Y304236D01*
X273393D01*
Y303692D01*
X273938D01*
Y304236D01*
X273393D01*
Y304780D01*
X272849D01*
Y305324D01*
X273393D01*
Y305868D01*
X272849D01*
Y306412D01*
X273393D01*
Y305868D01*
X273938D01*
Y306412D01*
X273393D01*
Y306956D01*
X272849D01*
Y307500D01*
X273393D01*
Y306956D01*
X273938D01*
Y306412D01*
X274482D01*
Y306956D01*
X273938D01*
Y307500D01*
X273393D01*
Y308044D01*
X272849D01*
Y308588D01*
X273393D01*
Y308044D01*
X273938D01*
Y308588D01*
X273393D01*
Y309132D01*
X272849D01*
Y309676D01*
X273393D01*
Y310220D01*
X272849D01*
Y310765D01*
X273393D01*
Y310220D01*
X273938D01*
Y310765D01*
X273393D01*
Y311309D01*
X272849D01*
Y311853D01*
X273393D01*
Y311309D01*
X273938D01*
Y310765D01*
X274482D01*
Y311309D01*
X273938D01*
Y311853D01*
X273393D01*
Y312397D01*
X272849D01*
Y312941D01*
X273393D01*
Y312397D01*
X273938D01*
Y312941D01*
X273393D01*
Y313485D01*
X272849D01*
Y314029D01*
X273393D01*
Y314573D01*
X272849D01*
Y315117D01*
X273393D01*
Y314573D01*
X273938D01*
Y315117D01*
X273393D01*
Y315661D01*
X272849D01*
Y316205D01*
X273393D01*
Y315661D01*
X273938D01*
Y315117D01*
X274482D01*
Y315661D01*
X273938D01*
Y316205D01*
X273393D01*
Y316749D01*
X272849D01*
Y317293D01*
X273393D01*
Y316749D01*
X273938D01*
Y317293D01*
X273393D01*
Y317837D01*
X272849D01*
Y318381D01*
X273393D01*
Y318925D01*
X272849D01*
Y319470D01*
X273393D01*
Y318925D01*
X273938D01*
Y319470D01*
X273393D01*
Y320014D01*
X272849D01*
Y320558D01*
X273393D01*
Y320014D01*
X273938D01*
Y319470D01*
X274482D01*
Y320014D01*
X273938D01*
Y320558D01*
X273393D01*
Y321102D01*
X272849D01*
Y321646D01*
X273393D01*
Y321102D01*
X273938D01*
Y321646D01*
X273393D01*
Y322190D01*
X272849D01*
Y322734D01*
X273393D01*
Y323278D01*
X272849D01*
Y323822D01*
X273393D01*
Y323278D01*
X273938D01*
Y323822D01*
X273393D01*
Y324366D01*
X272849D01*
Y324910D01*
X273393D01*
Y324366D01*
X273938D01*
Y323822D01*
X274482D01*
Y324366D01*
X273938D01*
Y324910D01*
X273393D01*
Y325454D01*
X272849D01*
Y325998D01*
X273393D01*
Y325454D01*
X273938D01*
Y325998D01*
X273393D01*
Y326542D01*
X272849D01*
Y327086D01*
X273393D01*
Y326542D01*
X273938D01*
Y325998D01*
X274482D01*
Y326542D01*
X273938D01*
Y327086D01*
X273393D01*
Y327631D01*
X272849D01*
Y328175D01*
X273393D01*
Y327631D01*
X273938D01*
Y327086D01*
X274482D01*
Y327631D01*
X273938D01*
Y328175D01*
X274482D01*
Y327631D01*
X275026D01*
Y327086D01*
X275570D01*
Y327631D01*
X275026D01*
Y328175D01*
X275570D01*
Y327631D01*
D02*
G37*
G36*
X276658D02*
X277202D01*
Y327086D01*
X277746D01*
Y326542D01*
X277202D01*
Y327086D01*
X276658D01*
Y327631D01*
X276114D01*
Y328175D01*
X276658D01*
Y327631D01*
D02*
G37*
G36*
X360444Y304780D02*
X360988D01*
Y304236D01*
X363708D01*
Y303692D01*
X364252D01*
Y303148D01*
X364796D01*
Y303692D01*
X364252D01*
Y304236D01*
X364796D01*
Y303692D01*
X365340D01*
Y303148D01*
X365884D01*
Y303692D01*
X365340D01*
Y304236D01*
X365884D01*
Y303692D01*
X366428D01*
Y303148D01*
X366973D01*
Y302603D01*
X367517D01*
Y302059D01*
X369149D01*
Y301515D01*
X369693D01*
Y300971D01*
X370237D01*
Y301515D01*
X369693D01*
Y302059D01*
X370237D01*
Y301515D01*
X370781D01*
Y300971D01*
X371325D01*
Y300427D01*
X371869D01*
Y299883D01*
X372413D01*
Y300427D01*
X371869D01*
Y300971D01*
X372413D01*
Y300427D01*
X372957D01*
Y299883D01*
X373501D01*
Y299339D01*
X374045D01*
Y298795D01*
X374589D01*
Y298251D01*
X375133D01*
Y297707D01*
X375677D01*
Y297163D01*
X376222D01*
Y296619D01*
X376766D01*
Y297163D01*
X376222D01*
Y297707D01*
X375677D01*
Y298251D01*
X375133D01*
Y298795D01*
X374589D01*
Y299339D01*
X374045D01*
Y299883D01*
X374589D01*
Y299339D01*
X375133D01*
Y298795D01*
X375677D01*
Y298251D01*
X376222D01*
Y297707D01*
X376766D01*
Y297163D01*
X377310D01*
Y296619D01*
X377854D01*
Y296075D01*
X378398D01*
Y295531D01*
X378942D01*
Y294987D01*
X379486D01*
Y294443D01*
X380030D01*
Y293899D01*
X379486D01*
Y294443D01*
X378942D01*
Y294987D01*
X378398D01*
Y294443D01*
X378942D01*
Y293899D01*
X379486D01*
Y293354D01*
X380030D01*
Y292810D01*
X380574D01*
Y292266D01*
X381118D01*
Y291722D01*
X381662D01*
Y291178D01*
X382206D01*
Y290634D01*
X381662D01*
Y290090D01*
X382206D01*
Y289546D01*
X382750D01*
Y289002D01*
X383294D01*
Y288458D01*
X383839D01*
Y287914D01*
X384383D01*
Y287370D01*
X383839D01*
Y287914D01*
X383294D01*
Y288458D01*
X382750D01*
Y287914D01*
X383294D01*
Y287370D01*
X383839D01*
Y286826D01*
X384383D01*
Y286282D01*
X384927D01*
Y285737D01*
X384383D01*
Y286282D01*
X383839D01*
Y285737D01*
X384383D01*
Y285194D01*
X384927D01*
Y284649D01*
X385471D01*
Y284105D01*
X384927D01*
Y283561D01*
X385471D01*
Y283017D01*
X384927D01*
Y282473D01*
X385471D01*
Y281929D01*
X386015D01*
Y281385D01*
X386559D01*
Y280841D01*
X386015D01*
Y281385D01*
X385471D01*
Y280841D01*
X386015D01*
Y280297D01*
X386559D01*
Y279753D01*
X386015D01*
Y279209D01*
X386559D01*
Y278665D01*
X386015D01*
Y278121D01*
X386559D01*
Y277577D01*
X386015D01*
Y277033D01*
X386559D01*
Y276488D01*
X387103D01*
Y275944D01*
X387647D01*
Y275400D01*
X387103D01*
Y275944D01*
X386559D01*
Y276488D01*
X386015D01*
Y275944D01*
X386559D01*
Y275400D01*
X387103D01*
Y274856D01*
X386559D01*
Y275400D01*
X386015D01*
Y274856D01*
X386559D01*
Y274312D01*
X387103D01*
Y273768D01*
X387647D01*
Y273224D01*
X387103D01*
Y273768D01*
X386559D01*
Y274312D01*
X386015D01*
Y273768D01*
X386559D01*
Y273224D01*
X387103D01*
Y272680D01*
X386559D01*
Y273224D01*
X386015D01*
Y272680D01*
X386559D01*
Y272136D01*
X387103D01*
Y271592D01*
X387647D01*
Y271048D01*
X387103D01*
Y271592D01*
X386559D01*
Y272136D01*
X386015D01*
Y271592D01*
X386559D01*
Y271048D01*
X387103D01*
Y270504D01*
X386559D01*
Y271048D01*
X386015D01*
Y270504D01*
X386559D01*
Y269960D01*
X387103D01*
Y269416D01*
X387647D01*
Y268871D01*
X387103D01*
Y269416D01*
X386559D01*
Y269960D01*
X386015D01*
Y269416D01*
X386559D01*
Y268871D01*
X387103D01*
Y268328D01*
X386559D01*
Y268871D01*
X386015D01*
Y268328D01*
X386559D01*
Y267783D01*
X387103D01*
Y267239D01*
X387647D01*
Y266695D01*
X387103D01*
Y267239D01*
X386559D01*
Y267783D01*
X386015D01*
Y267239D01*
X386559D01*
Y266695D01*
X387103D01*
Y266151D01*
X386559D01*
Y266695D01*
X386015D01*
Y266151D01*
X386559D01*
Y265607D01*
X387103D01*
Y265063D01*
X387647D01*
Y264519D01*
X387103D01*
Y265063D01*
X386559D01*
Y265607D01*
X386015D01*
Y265063D01*
X386559D01*
Y264519D01*
X387103D01*
Y263975D01*
X386559D01*
Y264519D01*
X386015D01*
Y263975D01*
X386559D01*
Y263431D01*
X387103D01*
Y262887D01*
X387647D01*
Y262343D01*
X387103D01*
Y262887D01*
X386559D01*
Y263431D01*
X386015D01*
Y262887D01*
X386559D01*
Y262343D01*
X387103D01*
Y261799D01*
X386559D01*
Y262343D01*
X386015D01*
Y261799D01*
X386559D01*
Y261255D01*
X387103D01*
Y260711D01*
X387647D01*
Y260166D01*
X387103D01*
Y260711D01*
X386559D01*
Y261255D01*
X386015D01*
Y260711D01*
X386559D01*
Y260166D01*
X387103D01*
Y259622D01*
X386559D01*
Y260166D01*
X386015D01*
Y259622D01*
X386559D01*
Y259078D01*
X387103D01*
Y258534D01*
X387647D01*
Y257990D01*
X387103D01*
Y258534D01*
X386559D01*
Y259078D01*
X386015D01*
Y258534D01*
X386559D01*
Y257990D01*
X387103D01*
Y257446D01*
X386559D01*
Y257990D01*
X386015D01*
Y257446D01*
X386559D01*
Y256902D01*
X387103D01*
Y256358D01*
X387647D01*
Y255814D01*
X387103D01*
Y256358D01*
X386559D01*
Y256902D01*
X386015D01*
Y256358D01*
X386559D01*
Y255814D01*
X387103D01*
Y255270D01*
X386559D01*
Y255814D01*
X386015D01*
Y255270D01*
X386559D01*
Y254726D01*
X387103D01*
Y254182D01*
X387647D01*
Y253638D01*
X387103D01*
Y254182D01*
X386559D01*
Y254726D01*
X386015D01*
Y254182D01*
X386559D01*
Y253638D01*
X387103D01*
Y253094D01*
X386559D01*
Y253638D01*
X386015D01*
Y253094D01*
X386559D01*
Y252550D01*
X387103D01*
Y252006D01*
X387647D01*
Y251462D01*
X387103D01*
Y252006D01*
X386559D01*
Y252550D01*
X386015D01*
Y252006D01*
X386559D01*
Y251462D01*
X387103D01*
Y250917D01*
X387647D01*
Y250373D01*
X387103D01*
Y250917D01*
X386559D01*
Y251462D01*
X386015D01*
Y250917D01*
X386559D01*
Y250373D01*
X387103D01*
Y249829D01*
X387647D01*
Y249285D01*
X387103D01*
Y249829D01*
X386559D01*
Y250373D01*
X386015D01*
Y249829D01*
X386559D01*
Y249285D01*
X387103D01*
Y248741D01*
X387647D01*
Y248197D01*
X387103D01*
Y248741D01*
X386559D01*
Y249285D01*
X386015D01*
Y248741D01*
X386559D01*
Y248197D01*
X387103D01*
Y247653D01*
X387647D01*
Y247109D01*
X387103D01*
Y247653D01*
X386559D01*
Y247109D01*
X387103D01*
Y246565D01*
X387647D01*
Y246021D01*
X387103D01*
Y246565D01*
X386559D01*
Y247109D01*
X386015D01*
Y246565D01*
X386559D01*
Y246021D01*
X387103D01*
Y245477D01*
X387647D01*
Y244933D01*
X387103D01*
Y245477D01*
X386559D01*
Y246021D01*
X386015D01*
Y245477D01*
X386559D01*
Y244933D01*
X387103D01*
Y244389D01*
X386559D01*
Y244933D01*
X386015D01*
Y244389D01*
X386559D01*
Y243845D01*
X386015D01*
Y244389D01*
X385471D01*
Y244933D01*
X384927D01*
Y244389D01*
X385471D01*
Y243845D01*
X384927D01*
Y244389D01*
X384383D01*
Y244933D01*
X383839D01*
Y244389D01*
X384383D01*
Y243845D01*
X383839D01*
Y244389D01*
X383294D01*
Y244933D01*
X382750D01*
Y245477D01*
X383294D01*
Y246021D01*
X382750D01*
Y246565D01*
X383294D01*
Y247109D01*
X382750D01*
Y247653D01*
X383294D01*
Y248197D01*
X382750D01*
Y248741D01*
X383294D01*
Y249285D01*
X382750D01*
Y249829D01*
X383294D01*
Y250373D01*
X382750D01*
Y250917D01*
X383294D01*
Y251462D01*
X382750D01*
Y252006D01*
X383294D01*
Y252550D01*
X382750D01*
Y253094D01*
X383294D01*
Y253638D01*
X382750D01*
Y254182D01*
X383294D01*
Y254726D01*
X382750D01*
Y255270D01*
X383294D01*
Y255814D01*
X382750D01*
Y256358D01*
X383294D01*
Y256902D01*
X382750D01*
Y257446D01*
X383294D01*
Y257990D01*
X382750D01*
Y258534D01*
X382206D01*
Y259078D01*
X381662D01*
Y258534D01*
X382206D01*
Y257990D01*
X381662D01*
Y257446D01*
X382206D01*
Y256902D01*
X381662D01*
Y257446D01*
X381118D01*
Y256902D01*
X380574D01*
Y256358D01*
X381118D01*
Y255814D01*
X380574D01*
Y256358D01*
X380030D01*
Y255814D01*
X379486D01*
Y255270D01*
X380030D01*
Y254726D01*
X379486D01*
Y254182D01*
X378942D01*
Y254726D01*
X378398D01*
Y254182D01*
X378942D01*
Y253638D01*
X378398D01*
Y253094D01*
X377854D01*
Y253638D01*
X377310D01*
Y253094D01*
X377854D01*
Y252550D01*
X377310D01*
Y252006D01*
X376766D01*
Y252550D01*
X376222D01*
Y252006D01*
X376766D01*
Y251462D01*
X376222D01*
Y250917D01*
X375677D01*
Y251462D01*
X375133D01*
Y250917D01*
X375677D01*
Y250373D01*
X375133D01*
Y250917D01*
X374589D01*
Y250373D01*
X374045D01*
Y249829D01*
X374589D01*
Y249285D01*
X374045D01*
Y249829D01*
X373501D01*
Y249285D01*
X372957D01*
Y248741D01*
X373501D01*
Y248197D01*
X372957D01*
Y248741D01*
X372413D01*
Y248197D01*
X371869D01*
Y247653D01*
X372413D01*
Y247109D01*
X371869D01*
Y247653D01*
X371325D01*
Y248197D01*
X370781D01*
Y247653D01*
X371325D01*
Y247109D01*
X370781D01*
Y247653D01*
X370237D01*
Y248197D01*
X369693D01*
Y247653D01*
X370237D01*
Y247109D01*
X369693D01*
Y246565D01*
X369149D01*
Y247109D01*
X368605D01*
Y246565D01*
X369149D01*
Y246021D01*
X368605D01*
Y246565D01*
X368061D01*
Y246021D01*
X367517D01*
Y245477D01*
X368061D01*
Y244933D01*
X367517D01*
Y245477D01*
X366973D01*
Y246021D01*
X366428D01*
Y245477D01*
X366973D01*
Y244933D01*
X366428D01*
Y245477D01*
X365884D01*
Y246021D01*
X365340D01*
Y245477D01*
X365884D01*
Y244933D01*
X365340D01*
Y245477D01*
X364796D01*
Y244933D01*
X364252D01*
Y244389D01*
X364796D01*
Y243845D01*
X364252D01*
Y244389D01*
X363708D01*
Y244933D01*
X363164D01*
Y244389D01*
X363708D01*
Y243845D01*
X363164D01*
Y244389D01*
X362620D01*
Y244933D01*
X362076D01*
Y244389D01*
X362620D01*
Y243845D01*
X362076D01*
Y244389D01*
X361532D01*
Y243845D01*
X360988D01*
Y243301D01*
X361532D01*
Y242757D01*
X360988D01*
Y243301D01*
X360444D01*
Y243845D01*
X359900D01*
Y243301D01*
X360444D01*
Y242757D01*
X359900D01*
Y243301D01*
X359356D01*
Y243845D01*
X358811D01*
Y243301D01*
X359356D01*
Y242757D01*
X358811D01*
Y243301D01*
X358268D01*
Y243845D01*
X357723D01*
Y243301D01*
X358268D01*
Y242757D01*
X357723D01*
Y243301D01*
X357179D01*
Y243845D01*
X356635D01*
Y243301D01*
X357179D01*
Y242757D01*
X356635D01*
Y243301D01*
X356091D01*
Y243845D01*
X355547D01*
Y243301D01*
X356091D01*
Y242757D01*
X355547D01*
Y243301D01*
X355003D01*
Y243845D01*
X354459D01*
Y243301D01*
X355003D01*
Y242757D01*
X354459D01*
Y243301D01*
X353915D01*
Y243845D01*
X353371D01*
Y243301D01*
X353915D01*
Y242757D01*
X353371D01*
Y243301D01*
X352827D01*
Y243845D01*
X352283D01*
Y243301D01*
X352827D01*
Y242757D01*
X352283D01*
Y243301D01*
X351739D01*
Y243845D01*
X351195D01*
Y244389D01*
X350651D01*
Y243845D01*
X350107D01*
Y244389D01*
X349562D01*
Y244933D01*
X349018D01*
Y244389D01*
X349562D01*
Y243845D01*
X349018D01*
Y244389D01*
X348474D01*
Y244933D01*
X347930D01*
Y244389D01*
X348474D01*
Y243845D01*
X347930D01*
Y244389D01*
X347386D01*
Y244933D01*
X346842D01*
Y244389D01*
X347386D01*
Y243845D01*
X346842D01*
Y244389D01*
X346298D01*
Y244933D01*
X345754D01*
Y245477D01*
X345210D01*
Y246021D01*
X344666D01*
Y245477D01*
X345210D01*
Y244933D01*
X344666D01*
Y245477D01*
X344122D01*
Y246021D01*
X343578D01*
Y246565D01*
X343034D01*
Y247109D01*
X342490D01*
Y246565D01*
X343034D01*
Y246021D01*
X342490D01*
Y246565D01*
X341946D01*
Y247109D01*
X341401D01*
Y247653D01*
X340858D01*
Y248197D01*
X340313D01*
Y247653D01*
X340858D01*
Y247109D01*
X340313D01*
Y247653D01*
X339769D01*
Y248197D01*
X339225D01*
Y248741D01*
X338681D01*
Y249285D01*
X338137D01*
Y248741D01*
X338681D01*
Y248197D01*
X338137D01*
Y248741D01*
X337593D01*
Y249285D01*
X337049D01*
Y249829D01*
X336505D01*
Y250373D01*
X335961D01*
Y250917D01*
X335417D01*
Y251462D01*
X334873D01*
Y252006D01*
X334329D01*
Y252550D01*
X333785D01*
Y253094D01*
X333241D01*
Y253638D01*
X332696D01*
Y254182D01*
X332152D01*
Y254726D01*
X331608D01*
Y255270D01*
X331064D01*
Y255814D01*
X330520D01*
Y256358D01*
X331064D01*
Y256902D01*
X330520D01*
Y257446D01*
X329976D01*
Y257990D01*
X329432D01*
Y258534D01*
X328888D01*
Y259078D01*
X328344D01*
Y259622D01*
X328888D01*
Y260166D01*
X328344D01*
Y260711D01*
X327800D01*
Y261255D01*
X327256D01*
Y261799D01*
X327800D01*
Y262343D01*
X327256D01*
Y262887D01*
X326712D01*
Y263431D01*
X326168D01*
Y263975D01*
X326712D01*
Y263431D01*
X327256D01*
Y263975D01*
X326712D01*
Y264519D01*
X326168D01*
Y265063D01*
X326712D01*
Y265607D01*
X326168D01*
Y266151D01*
X325624D01*
Y266695D01*
X325080D01*
Y267239D01*
X325624D01*
Y266695D01*
X326168D01*
Y267239D01*
X325624D01*
Y267783D01*
X325080D01*
Y268328D01*
X325624D01*
Y268871D01*
X325080D01*
Y269416D01*
X325624D01*
Y269960D01*
X325080D01*
Y270504D01*
X324535D01*
Y271048D01*
X323991D01*
Y271592D01*
X324535D01*
Y271048D01*
X325080D01*
Y270504D01*
X325624D01*
Y271048D01*
X325080D01*
Y271592D01*
X325624D01*
Y272136D01*
X325080D01*
Y272680D01*
X324535D01*
Y273224D01*
X323991D01*
Y273768D01*
X324535D01*
Y273224D01*
X325080D01*
Y272680D01*
X325624D01*
Y273224D01*
X325080D01*
Y273768D01*
X325624D01*
Y274312D01*
X325080D01*
Y274856D01*
X324535D01*
Y275400D01*
X323991D01*
Y275944D01*
X324535D01*
Y275400D01*
X325080D01*
Y274856D01*
X325624D01*
Y275400D01*
X325080D01*
Y275944D01*
X325624D01*
Y276488D01*
X325080D01*
Y277033D01*
X325624D01*
Y277577D01*
X325080D01*
Y278121D01*
X325624D01*
Y278665D01*
X325080D01*
Y279209D01*
X325624D01*
Y279753D01*
X325080D01*
Y280297D01*
X325624D01*
Y280841D01*
X325080D01*
Y281385D01*
X325624D01*
Y281929D01*
X326168D01*
Y282473D01*
X326712D01*
Y283017D01*
X326168D01*
Y283561D01*
X326712D01*
Y284105D01*
X326168D01*
Y284649D01*
X326712D01*
Y285194D01*
X327256D01*
Y285737D01*
X326712D01*
Y286282D01*
X327256D01*
Y285737D01*
X327800D01*
Y286282D01*
X327256D01*
Y286826D01*
X327800D01*
Y287370D01*
X327256D01*
Y287914D01*
X327800D01*
Y287370D01*
X328344D01*
Y286826D01*
X328888D01*
Y287370D01*
X328344D01*
Y287914D01*
X328888D01*
Y288458D01*
X328344D01*
Y289002D01*
X328888D01*
Y289546D01*
X329432D01*
Y290090D01*
X329976D01*
Y290634D01*
X329432D01*
Y291178D01*
X329976D01*
Y291722D01*
X330520D01*
Y291178D01*
X331064D01*
Y291722D01*
X330520D01*
Y292266D01*
X331064D01*
Y292810D01*
X330520D01*
Y293354D01*
X331064D01*
Y292810D01*
X331608D01*
Y293354D01*
X332152D01*
Y293899D01*
X331608D01*
Y294443D01*
X332152D01*
Y293899D01*
X332696D01*
Y293354D01*
X333241D01*
Y293899D01*
X332696D01*
Y294443D01*
X333241D01*
Y294987D01*
X332696D01*
Y295531D01*
X334329D01*
Y296075D01*
X333785D01*
Y296619D01*
X335417D01*
Y297163D01*
X334873D01*
Y297707D01*
X335417D01*
Y297163D01*
X335961D01*
Y297707D01*
X336505D01*
Y298251D01*
X335961D01*
Y298795D01*
X336505D01*
Y298251D01*
X337049D01*
Y297707D01*
X337593D01*
Y298251D01*
X337049D01*
Y298795D01*
X337593D01*
Y299339D01*
X337049D01*
Y299883D01*
X337593D01*
Y299339D01*
X338137D01*
Y298795D01*
X338681D01*
Y299339D01*
X338137D01*
Y299883D01*
X338681D01*
Y300427D01*
X339225D01*
Y299883D01*
X339769D01*
Y300427D01*
X339225D01*
Y300971D01*
X339769D01*
Y300427D01*
X340313D01*
Y300971D01*
X340858D01*
Y301515D01*
X341401D01*
Y300971D01*
X341946D01*
Y301515D01*
X341401D01*
Y302059D01*
X343034D01*
Y302603D01*
X343578D01*
Y302059D01*
X344122D01*
Y302603D01*
X343578D01*
Y303148D01*
X344122D01*
Y302603D01*
X344666D01*
Y303148D01*
X346298D01*
Y303692D01*
X345754D01*
Y304236D01*
X346298D01*
Y303692D01*
X346842D01*
Y303148D01*
X347386D01*
Y303692D01*
X346842D01*
Y304236D01*
X347386D01*
Y303692D01*
X347930D01*
Y304236D01*
X350651D01*
Y304780D01*
X351195D01*
Y304236D01*
X351739D01*
Y304780D01*
X351195D01*
Y305324D01*
X351739D01*
Y304780D01*
X352283D01*
Y304236D01*
X352827D01*
Y304780D01*
X352283D01*
Y305324D01*
X352827D01*
Y304780D01*
X353371D01*
Y304236D01*
X353915D01*
Y304780D01*
X353371D01*
Y305324D01*
X353915D01*
Y304780D01*
X354459D01*
Y304236D01*
X355003D01*
Y304780D01*
X354459D01*
Y305324D01*
X355003D01*
Y304780D01*
X355547D01*
Y304236D01*
X356091D01*
Y304780D01*
X355547D01*
Y305324D01*
X356091D01*
Y304780D01*
X356635D01*
Y304236D01*
X357179D01*
Y304780D01*
X356635D01*
Y305324D01*
X357179D01*
Y304780D01*
X357723D01*
Y304236D01*
X358268D01*
Y304780D01*
X357723D01*
Y305324D01*
X358268D01*
Y304780D01*
X358811D01*
Y304236D01*
X359356D01*
Y304780D01*
X358811D01*
Y305324D01*
X359356D01*
Y304780D01*
X359900D01*
Y304236D01*
X360444D01*
Y304780D01*
X359900D01*
Y305324D01*
X360444D01*
Y304780D01*
D02*
G37*
G36*
X313110Y304236D02*
X316919D01*
Y303692D01*
X316375D01*
Y303148D01*
X316919D01*
Y302603D01*
X316375D01*
Y302059D01*
X316919D01*
Y301515D01*
X316375D01*
Y300971D01*
X316919D01*
Y300427D01*
X316375D01*
Y300971D01*
X315830D01*
Y301515D01*
X315286D01*
Y300971D01*
X315830D01*
Y300427D01*
X315286D01*
Y300971D01*
X314742D01*
Y301515D01*
X314198D01*
Y300971D01*
X314742D01*
Y300427D01*
X314198D01*
Y300971D01*
X313654D01*
Y301515D01*
X313110D01*
Y300971D01*
X313654D01*
Y300427D01*
X313110D01*
Y300971D01*
X312566D01*
Y301515D01*
X312022D01*
Y300971D01*
X312566D01*
Y300427D01*
X312022D01*
Y300971D01*
X311478D01*
Y301515D01*
X310934D01*
Y300971D01*
X311478D01*
Y300427D01*
X310934D01*
Y300971D01*
X310390D01*
Y301515D01*
X309846D01*
Y300971D01*
X310390D01*
Y300427D01*
X309846D01*
Y300971D01*
X309302D01*
Y300427D01*
X308758D01*
Y299883D01*
X309302D01*
Y299339D01*
X308758D01*
Y299883D01*
X308214D01*
Y300427D01*
X307670D01*
Y299883D01*
X307125D01*
Y300427D01*
X306581D01*
Y299883D01*
X307125D01*
Y299339D01*
X306581D01*
Y299883D01*
X306037D01*
Y299339D01*
X305493D01*
Y298795D01*
X304949D01*
Y299339D01*
X304405D01*
Y298795D01*
X304949D01*
Y298251D01*
X304405D01*
Y298795D01*
X303861D01*
Y299339D01*
X303317D01*
Y298795D01*
X303861D01*
Y298251D01*
X303317D01*
Y297707D01*
X302773D01*
Y298251D01*
X302229D01*
Y297707D01*
X302773D01*
Y297163D01*
X302229D01*
Y297707D01*
X301685D01*
Y297163D01*
X301141D01*
Y296619D01*
X301685D01*
Y296075D01*
X301141D01*
Y296619D01*
X300597D01*
Y296075D01*
X300053D01*
Y295531D01*
X300597D01*
Y294987D01*
X300053D01*
Y295531D01*
X299509D01*
Y294987D01*
X298965D01*
Y294443D01*
X299509D01*
Y293899D01*
X298965D01*
Y294443D01*
X298421D01*
Y293899D01*
X297876D01*
Y293354D01*
X298421D01*
Y292810D01*
X297876D01*
Y292266D01*
X297332D01*
Y292810D01*
X296788D01*
Y292266D01*
X297332D01*
Y291722D01*
X296788D01*
Y291178D01*
X297332D01*
Y290634D01*
X296788D01*
Y290090D01*
X297332D01*
Y289546D01*
X296788D01*
Y290090D01*
X296244D01*
Y289546D01*
X295700D01*
Y289002D01*
X296244D01*
Y288458D01*
X295700D01*
Y287914D01*
X295156D01*
Y287370D01*
X295700D01*
Y286826D01*
X296244D01*
Y286282D01*
X295700D01*
Y286826D01*
X295156D01*
Y287370D01*
X294612D01*
Y286826D01*
X295156D01*
Y286282D01*
X294612D01*
Y285737D01*
X295156D01*
Y285194D01*
X294612D01*
Y284649D01*
X295156D01*
Y284105D01*
X294612D01*
Y283561D01*
X295156D01*
Y283017D01*
X294612D01*
Y283561D01*
X294068D01*
Y283017D01*
X294612D01*
Y282473D01*
X294068D01*
Y283017D01*
X293524D01*
Y282473D01*
X294068D01*
Y281929D01*
X294612D01*
Y281385D01*
X294068D01*
Y281929D01*
X293524D01*
Y281385D01*
X294068D01*
Y280841D01*
X293524D01*
Y280297D01*
X294068D01*
Y279753D01*
X293524D01*
Y279209D01*
X294068D01*
Y278665D01*
X293524D01*
Y278121D01*
X294068D01*
Y277577D01*
X293524D01*
Y277033D01*
X294068D01*
Y276488D01*
X293524D01*
Y275944D01*
X294068D01*
Y275400D01*
X293524D01*
Y274856D01*
X294068D01*
Y274312D01*
X293524D01*
Y273768D01*
X294068D01*
Y273224D01*
X293524D01*
Y272680D01*
X294068D01*
Y272136D01*
X293524D01*
Y271592D01*
X294068D01*
Y271048D01*
X293524D01*
Y270504D01*
X294068D01*
Y269960D01*
X293524D01*
Y269416D01*
X294068D01*
Y268871D01*
X293524D01*
Y268328D01*
X294068D01*
Y267783D01*
X293524D01*
Y267239D01*
X294068D01*
Y266695D01*
X293524D01*
Y266151D01*
X294068D01*
Y265607D01*
X293524D01*
Y265063D01*
X294068D01*
Y264519D01*
X293524D01*
Y263975D01*
X294068D01*
Y263431D01*
X293524D01*
Y262887D01*
X294068D01*
Y262343D01*
X293524D01*
Y261799D01*
X294068D01*
Y261255D01*
X293524D01*
Y260711D01*
X294068D01*
Y260166D01*
X293524D01*
Y259622D01*
X294068D01*
Y259078D01*
X293524D01*
Y258534D01*
X294068D01*
Y257990D01*
X293524D01*
Y257446D01*
X294068D01*
Y256902D01*
X293524D01*
Y256358D01*
X294068D01*
Y255814D01*
X293524D01*
Y255270D01*
X294068D01*
Y254726D01*
X293524D01*
Y254182D01*
X294068D01*
Y253638D01*
X293524D01*
Y253094D01*
X294068D01*
Y252550D01*
X293524D01*
Y252006D01*
X294068D01*
Y251462D01*
X293524D01*
Y250917D01*
X294068D01*
Y250373D01*
X293524D01*
Y249829D01*
X294068D01*
Y249285D01*
X293524D01*
Y248741D01*
X294068D01*
Y248197D01*
X293524D01*
Y247653D01*
X294068D01*
Y247109D01*
X293524D01*
Y246565D01*
X294068D01*
Y246021D01*
X293524D01*
Y245477D01*
X294068D01*
Y244933D01*
X293524D01*
Y244389D01*
X292980D01*
Y244933D01*
X292436D01*
Y244389D01*
X292980D01*
Y243845D01*
X292436D01*
Y244389D01*
X291892D01*
Y244933D01*
X291348D01*
Y244389D01*
X291892D01*
Y243845D01*
X291348D01*
Y244389D01*
X290804D01*
Y244933D01*
X290259D01*
Y245477D01*
X290804D01*
Y246021D01*
X290259D01*
Y246565D01*
X289715D01*
Y247109D01*
X289171D01*
Y247653D01*
X289715D01*
Y247109D01*
X290259D01*
Y246565D01*
X290804D01*
Y247109D01*
X290259D01*
Y247653D01*
X289715D01*
Y248197D01*
X290259D01*
Y247653D01*
X290804D01*
Y248197D01*
X290259D01*
Y248741D01*
X289715D01*
Y249285D01*
X289171D01*
Y249829D01*
X289715D01*
Y249285D01*
X290259D01*
Y248741D01*
X290804D01*
Y249285D01*
X290259D01*
Y249829D01*
X290804D01*
Y250373D01*
X290259D01*
Y250917D01*
X289715D01*
Y251462D01*
X289171D01*
Y252006D01*
X289715D01*
Y251462D01*
X290259D01*
Y250917D01*
X290804D01*
Y251462D01*
X290259D01*
Y252006D01*
X289715D01*
Y252550D01*
X290259D01*
Y252006D01*
X290804D01*
Y252550D01*
X290259D01*
Y253094D01*
X289715D01*
Y253638D01*
X289171D01*
Y254182D01*
X289715D01*
Y253638D01*
X290259D01*
Y253094D01*
X290804D01*
Y253638D01*
X290259D01*
Y254182D01*
X290804D01*
Y254726D01*
X290259D01*
Y255270D01*
X289715D01*
Y255814D01*
X289171D01*
Y256358D01*
X289715D01*
Y255814D01*
X290259D01*
Y255270D01*
X290804D01*
Y255814D01*
X290259D01*
Y256358D01*
X289715D01*
Y256902D01*
X290259D01*
Y256358D01*
X290804D01*
Y256902D01*
X290259D01*
Y257446D01*
X289715D01*
Y257990D01*
X289171D01*
Y258534D01*
X289715D01*
Y257990D01*
X290259D01*
Y257446D01*
X290804D01*
Y257990D01*
X290259D01*
Y258534D01*
X290804D01*
Y259078D01*
X290259D01*
Y259622D01*
X289715D01*
Y260166D01*
X289171D01*
Y260711D01*
X289715D01*
Y260166D01*
X290259D01*
Y259622D01*
X290804D01*
Y260166D01*
X290259D01*
Y260711D01*
X289715D01*
Y261255D01*
X289171D01*
Y261799D01*
X289715D01*
Y261255D01*
X290259D01*
Y261799D01*
X289715D01*
Y262343D01*
X289171D01*
Y262887D01*
X289715D01*
Y263431D01*
X289171D01*
Y263975D01*
X289715D01*
Y263431D01*
X290259D01*
Y262887D01*
X290804D01*
Y263431D01*
X290259D01*
Y263975D01*
X289715D01*
Y264519D01*
X289171D01*
Y265063D01*
X289715D01*
Y264519D01*
X290259D01*
Y263975D01*
X290804D01*
Y264519D01*
X290259D01*
Y265063D01*
X289715D01*
Y265607D01*
X289171D01*
Y266151D01*
X289715D01*
Y265607D01*
X290259D01*
Y266151D01*
X289715D01*
Y266695D01*
X289171D01*
Y267239D01*
X289715D01*
Y267783D01*
X289171D01*
Y268328D01*
X289715D01*
Y267783D01*
X290259D01*
Y267239D01*
X290804D01*
Y267783D01*
X290259D01*
Y268328D01*
X289715D01*
Y268871D01*
X289171D01*
Y269416D01*
X289715D01*
Y268871D01*
X290259D01*
Y268328D01*
X290804D01*
Y268871D01*
X290259D01*
Y269416D01*
X289715D01*
Y269960D01*
X289171D01*
Y270504D01*
X289715D01*
Y269960D01*
X290259D01*
Y270504D01*
X289715D01*
Y271048D01*
X289171D01*
Y271592D01*
X289715D01*
Y272136D01*
X289171D01*
Y272680D01*
X289715D01*
Y272136D01*
X290259D01*
Y271592D01*
X290804D01*
Y272136D01*
X290259D01*
Y272680D01*
X289715D01*
Y273224D01*
X289171D01*
Y273768D01*
X289715D01*
Y273224D01*
X290259D01*
Y272680D01*
X290804D01*
Y273224D01*
X290259D01*
Y273768D01*
X289715D01*
Y274312D01*
X289171D01*
Y274856D01*
X289715D01*
Y274312D01*
X290259D01*
Y274856D01*
X289715D01*
Y275400D01*
X289171D01*
Y275944D01*
X289715D01*
Y276488D01*
X289171D01*
Y277033D01*
X289715D01*
Y276488D01*
X290259D01*
Y275944D01*
X290804D01*
Y276488D01*
X290259D01*
Y277033D01*
X289715D01*
Y277577D01*
X289171D01*
Y278121D01*
X289715D01*
Y277577D01*
X290259D01*
Y277033D01*
X290804D01*
Y277577D01*
X290259D01*
Y278121D01*
X289715D01*
Y278665D01*
X289171D01*
Y279209D01*
X289715D01*
Y278665D01*
X290259D01*
Y279209D01*
X289715D01*
Y279753D01*
X289171D01*
Y280297D01*
X289715D01*
Y279753D01*
X290259D01*
Y279209D01*
X290804D01*
Y279753D01*
X290259D01*
Y280297D01*
X290804D01*
Y280841D01*
X290259D01*
Y281385D01*
X289715D01*
Y281929D01*
X289171D01*
Y282473D01*
X289715D01*
Y281929D01*
X290259D01*
Y281385D01*
X290804D01*
Y281929D01*
X290259D01*
Y282473D01*
X290804D01*
Y283017D01*
X290259D01*
Y283561D01*
X290804D01*
Y284105D01*
X290259D01*
Y284649D01*
X290804D01*
Y285194D01*
X290259D01*
Y285737D01*
X290804D01*
Y285194D01*
X291348D01*
Y284649D01*
X291892D01*
Y285194D01*
X291348D01*
Y285737D01*
X290804D01*
Y286282D01*
X291348D01*
Y286826D01*
X291892D01*
Y287370D01*
X291348D01*
Y287914D01*
X291892D01*
Y288458D01*
X291348D01*
Y289002D01*
X291892D01*
Y289546D01*
X292436D01*
Y290090D01*
X291892D01*
Y290634D01*
X292436D01*
Y290090D01*
X292980D01*
Y290634D01*
X292436D01*
Y291178D01*
X292980D01*
Y291722D01*
X292436D01*
Y292266D01*
X292980D01*
Y291722D01*
X293524D01*
Y291178D01*
X294068D01*
Y291722D01*
X293524D01*
Y292266D01*
X294068D01*
Y292810D01*
X293524D01*
Y293354D01*
X294068D01*
Y293899D01*
X294612D01*
Y294443D01*
X295156D01*
Y294987D01*
X294612D01*
Y295531D01*
X295156D01*
Y294987D01*
X295700D01*
Y295531D01*
X295156D01*
Y296075D01*
X295700D01*
Y295531D01*
X296244D01*
Y296075D01*
X295700D01*
Y296619D01*
X296244D01*
Y297163D01*
X296788D01*
Y296619D01*
X297332D01*
Y297163D01*
X296788D01*
Y297707D01*
X297332D01*
Y298251D01*
X296788D01*
Y298795D01*
X297332D01*
Y298251D01*
X297876D01*
Y297707D01*
X298421D01*
Y298251D01*
X297876D01*
Y298795D01*
X298421D01*
Y299339D01*
X298965D01*
Y298795D01*
X299509D01*
Y299339D01*
X298965D01*
Y299883D01*
X299509D01*
Y300427D01*
X300053D01*
Y299883D01*
X300597D01*
Y300427D01*
X300053D01*
Y300971D01*
X300597D01*
Y300427D01*
X301141D01*
Y300971D01*
X301685D01*
Y301515D01*
X302229D01*
Y302059D01*
X303861D01*
Y302603D01*
X304405D01*
Y302059D01*
X304949D01*
Y302603D01*
X304405D01*
Y303148D01*
X304949D01*
Y302603D01*
X305493D01*
Y303148D01*
X307125D01*
Y303692D01*
X306581D01*
Y304236D01*
X307125D01*
Y303692D01*
X307670D01*
Y303148D01*
X308214D01*
Y303692D01*
X307670D01*
Y304236D01*
X308214D01*
Y303692D01*
X308758D01*
Y304236D01*
X312566D01*
Y304780D01*
X313110D01*
Y304236D01*
D02*
G37*
G36*
X201577Y303692D02*
X202121D01*
Y303148D01*
X202665D01*
Y302603D01*
X202121D01*
Y302059D01*
X202665D01*
Y301515D01*
X202121D01*
Y300971D01*
X202665D01*
Y300427D01*
X202121D01*
Y299883D01*
X202665D01*
Y299339D01*
X202121D01*
Y298795D01*
X202665D01*
Y298251D01*
X202121D01*
Y297707D01*
X202665D01*
Y297163D01*
X202121D01*
Y296619D01*
X202665D01*
Y296075D01*
X202121D01*
Y295531D01*
X202665D01*
Y294987D01*
X202121D01*
Y294443D01*
X202665D01*
Y293899D01*
X202121D01*
Y293354D01*
X202665D01*
Y292810D01*
X202121D01*
Y292266D01*
X202665D01*
Y291722D01*
X202121D01*
Y291178D01*
X202665D01*
Y290634D01*
X202121D01*
Y290090D01*
X202665D01*
Y289546D01*
X202121D01*
Y289002D01*
X202665D01*
Y288458D01*
X202121D01*
Y287914D01*
X202665D01*
Y287370D01*
X202121D01*
Y286826D01*
X202665D01*
Y286282D01*
X202121D01*
Y285737D01*
X202665D01*
Y285194D01*
X202121D01*
Y284649D01*
X202665D01*
Y284105D01*
X202121D01*
Y283561D01*
X202665D01*
Y283017D01*
X202121D01*
Y282473D01*
X202665D01*
Y281929D01*
X202121D01*
Y281385D01*
X202665D01*
Y280841D01*
X202121D01*
Y280297D01*
X202665D01*
Y279753D01*
X202121D01*
Y279209D01*
X202665D01*
Y278665D01*
X202121D01*
Y278121D01*
X202665D01*
Y277577D01*
X202121D01*
Y277033D01*
X202665D01*
Y276488D01*
X202121D01*
Y275944D01*
X202665D01*
Y275400D01*
X202121D01*
Y274856D01*
X202665D01*
Y274312D01*
X202121D01*
Y273768D01*
X202665D01*
Y273224D01*
X202121D01*
Y272680D01*
X202665D01*
Y272136D01*
X202121D01*
Y271592D01*
X202665D01*
Y271048D01*
X202121D01*
Y270504D01*
X202665D01*
Y269960D01*
X202121D01*
Y269416D01*
X202665D01*
Y268871D01*
X202121D01*
Y268328D01*
Y267783D01*
Y267239D01*
X202665D01*
Y266695D01*
X202121D01*
Y267239D01*
X201577D01*
Y266695D01*
X202121D01*
Y266151D01*
X201577D01*
Y266695D01*
X201033D01*
Y266151D01*
X201577D01*
Y265607D01*
X202121D01*
Y265063D01*
X202665D01*
Y264519D01*
X202121D01*
Y265063D01*
X201577D01*
Y265607D01*
X201033D01*
Y265063D01*
X201577D01*
Y264519D01*
X201033D01*
Y263975D01*
X201577D01*
Y263431D01*
X201033D01*
Y262887D01*
X201577D01*
Y262343D01*
X201033D01*
Y261799D01*
X201577D01*
Y261255D01*
X201033D01*
Y261799D01*
X200489D01*
Y261255D01*
X199945D01*
Y260711D01*
X200489D01*
Y260166D01*
X199945D01*
Y259622D01*
X200489D01*
Y259078D01*
X199945D01*
Y258534D01*
X200489D01*
Y257990D01*
X199945D01*
Y258534D01*
X199401D01*
Y257990D01*
X199945D01*
Y257446D01*
X199401D01*
Y257990D01*
X198857D01*
Y257446D01*
X199401D01*
Y256902D01*
X198857D01*
Y256358D01*
X199401D01*
Y255814D01*
X198857D01*
Y255270D01*
X198313D01*
Y255814D01*
X197769D01*
Y255270D01*
X198313D01*
Y254726D01*
X197769D01*
Y254182D01*
X198313D01*
Y253638D01*
X197769D01*
Y254182D01*
X197225D01*
Y253638D01*
X196681D01*
Y253094D01*
X197225D01*
Y252550D01*
X196681D01*
Y253094D01*
X196136D01*
Y252550D01*
X195592D01*
Y252006D01*
X196136D01*
Y251462D01*
X195592D01*
Y250917D01*
X195048D01*
Y251462D01*
X194504D01*
Y250917D01*
X195048D01*
Y250373D01*
X194504D01*
Y249829D01*
X193960D01*
Y250373D01*
X193416D01*
Y249829D01*
X193960D01*
Y249285D01*
X193416D01*
Y248741D01*
X192872D01*
Y249285D01*
X192328D01*
Y248741D01*
X192872D01*
Y248197D01*
X192328D01*
Y248741D01*
X191784D01*
Y248197D01*
X191240D01*
Y247653D01*
X191784D01*
Y247109D01*
X191240D01*
Y247653D01*
X190696D01*
Y247109D01*
X190152D01*
Y246565D01*
X189608D01*
Y247109D01*
X189064D01*
Y246565D01*
X189608D01*
Y246021D01*
X189064D01*
Y246565D01*
X188520D01*
Y247109D01*
X187976D01*
Y246565D01*
X188520D01*
Y246021D01*
X187976D01*
Y245477D01*
X187432D01*
Y246021D01*
X186887D01*
Y245477D01*
X187432D01*
Y244933D01*
X186887D01*
Y245477D01*
X186343D01*
Y246021D01*
X185799D01*
Y245477D01*
X186343D01*
Y244933D01*
X185799D01*
Y244389D01*
X186343D01*
Y243845D01*
X185799D01*
Y244389D01*
X185255D01*
Y244933D01*
X184711D01*
Y244389D01*
X184167D01*
Y244933D01*
X183623D01*
Y244389D01*
X184167D01*
Y243845D01*
X183623D01*
Y244389D01*
X183079D01*
Y244933D01*
X182535D01*
Y244389D01*
X183079D01*
Y243845D01*
X182535D01*
Y244389D01*
X181991D01*
Y244933D01*
X181447D01*
Y244389D01*
X181991D01*
Y243845D01*
X181447D01*
Y244389D01*
X180903D01*
Y243845D01*
X180359D01*
Y243301D01*
X180903D01*
Y242757D01*
X180359D01*
Y243301D01*
X179815D01*
Y243845D01*
X179270D01*
Y243301D01*
X179815D01*
Y242757D01*
X179270D01*
Y243301D01*
X178727D01*
Y243845D01*
X178182D01*
Y243301D01*
X178727D01*
Y242757D01*
X178182D01*
Y243301D01*
X177638D01*
Y243845D01*
X177094D01*
Y243301D01*
X177638D01*
Y242757D01*
X177094D01*
Y243301D01*
X176550D01*
Y243845D01*
X176006D01*
Y243301D01*
X176550D01*
Y242757D01*
X176006D01*
Y243301D01*
X175462D01*
Y243845D01*
X174918D01*
Y243301D01*
X175462D01*
Y242757D01*
X174918D01*
Y243301D01*
X174374D01*
Y243845D01*
X173830D01*
Y243301D01*
X174374D01*
Y242757D01*
X173830D01*
Y243301D01*
X173286D01*
Y243845D01*
X172742D01*
Y243301D01*
X173286D01*
Y242757D01*
X172742D01*
Y243301D01*
X172198D01*
Y243845D01*
X171654D01*
Y243301D01*
X172198D01*
Y242757D01*
X171654D01*
Y243301D01*
X171110D01*
Y243845D01*
X170565D01*
Y244389D01*
X170021D01*
Y243845D01*
X169477D01*
Y244389D01*
X168933D01*
Y244933D01*
X168389D01*
Y244389D01*
X168933D01*
Y243845D01*
X168389D01*
Y244389D01*
X167845D01*
Y244933D01*
X167301D01*
Y244389D01*
X167845D01*
Y243845D01*
X167301D01*
Y244389D01*
X166757D01*
Y244933D01*
X166213D01*
Y244389D01*
X166757D01*
Y243845D01*
X166213D01*
Y244389D01*
X165669D01*
Y244933D01*
X165125D01*
Y245477D01*
X164581D01*
Y246021D01*
X162949D01*
Y246565D01*
X162405D01*
Y247109D01*
X161860D01*
Y246565D01*
X162405D01*
Y246021D01*
X161860D01*
Y246565D01*
X161316D01*
Y247109D01*
X160772D01*
Y247653D01*
X160228D01*
Y248197D01*
X159684D01*
Y248741D01*
X159140D01*
Y249285D01*
X157508D01*
Y249829D01*
X156964D01*
Y250373D01*
X156420D01*
Y250917D01*
X155876D01*
Y251462D01*
X155332D01*
Y252006D01*
X155876D01*
Y252550D01*
X155332D01*
Y253094D01*
X154788D01*
Y253638D01*
X154244D01*
Y254182D01*
X153700D01*
Y254726D01*
X153155D01*
Y255270D01*
X152611D01*
Y255814D01*
X152067D01*
Y256358D01*
X152611D01*
Y255814D01*
X153155D01*
Y255270D01*
X153700D01*
Y255814D01*
X153155D01*
Y256358D01*
X152611D01*
Y256902D01*
X152067D01*
Y257446D01*
X152611D01*
Y257990D01*
X152067D01*
Y258534D01*
X151523D01*
Y259078D01*
X150979D01*
Y259622D01*
X151523D01*
Y260166D01*
X150979D01*
Y260711D01*
X151523D01*
Y261255D01*
X150979D01*
Y261799D01*
X150435D01*
Y262343D01*
X149891D01*
Y262887D01*
X150435D01*
Y263431D01*
X149891D01*
Y263975D01*
X150435D01*
Y264519D01*
X149891D01*
Y265063D01*
X150435D01*
Y265607D01*
X149891D01*
Y266151D01*
Y266695D01*
Y267239D01*
X149347D01*
Y267783D01*
X148803D01*
Y268328D01*
X149347D01*
Y267783D01*
X149891D01*
Y267239D01*
X150435D01*
Y267783D01*
X149891D01*
Y268328D01*
X149347D01*
Y268871D01*
X148803D01*
Y269416D01*
X149347D01*
Y268871D01*
X149891D01*
Y269416D01*
X149347D01*
Y269960D01*
X148803D01*
Y270504D01*
X149347D01*
Y271048D01*
X148803D01*
Y271592D01*
X149347D01*
Y271048D01*
X149891D01*
Y271592D01*
X149347D01*
Y272136D01*
X148803D01*
Y272680D01*
X149347D01*
Y273224D01*
X148803D01*
Y273768D01*
X149347D01*
Y274312D01*
X148803D01*
Y274856D01*
X149347D01*
Y275400D01*
X148803D01*
Y275944D01*
X149347D01*
Y275400D01*
X149891D01*
Y275944D01*
X149347D01*
Y276488D01*
X148803D01*
Y277033D01*
X149347D01*
Y277577D01*
X148803D01*
Y278121D01*
X149347D01*
Y277577D01*
X149891D01*
Y278121D01*
X149347D01*
Y278665D01*
X148803D01*
Y279209D01*
X149347D01*
Y279753D01*
X148803D01*
Y280297D01*
X149347D01*
Y279753D01*
X149891D01*
Y280297D01*
X149347D01*
Y280841D01*
X148803D01*
Y281385D01*
X149347D01*
Y281929D01*
X148803D01*
Y282473D01*
X149347D01*
Y283017D01*
X148803D01*
Y283561D01*
X149347D01*
Y284105D01*
X148803D01*
Y284649D01*
X149347D01*
Y284105D01*
X149891D01*
Y284649D01*
X149347D01*
Y285194D01*
X148803D01*
Y285737D01*
X149347D01*
Y286282D01*
X148803D01*
Y286826D01*
X149347D01*
Y286282D01*
X149891D01*
Y286826D01*
X149347D01*
Y287370D01*
X148803D01*
Y287914D01*
X149347D01*
Y288458D01*
X148803D01*
Y289002D01*
X149347D01*
Y288458D01*
X149891D01*
Y289002D01*
X149347D01*
Y289546D01*
X148803D01*
Y290090D01*
X149347D01*
Y290634D01*
X148803D01*
Y291178D01*
X149347D01*
Y291722D01*
X148803D01*
Y292266D01*
X149347D01*
Y292810D01*
X148803D01*
Y293354D01*
X149347D01*
Y292810D01*
X149891D01*
Y293354D01*
X149347D01*
Y293899D01*
X148803D01*
Y294443D01*
X149347D01*
Y294987D01*
X148803D01*
Y295531D01*
X149347D01*
Y294987D01*
X149891D01*
Y295531D01*
X149347D01*
Y296075D01*
X148803D01*
Y296619D01*
X149347D01*
Y297163D01*
X148803D01*
Y297707D01*
X149347D01*
Y297163D01*
X149891D01*
Y297707D01*
X149347D01*
Y298251D01*
X148803D01*
Y298795D01*
X149347D01*
Y299339D01*
X148803D01*
Y299883D01*
X149347D01*
Y300427D01*
X148803D01*
Y300971D01*
X149347D01*
Y301515D01*
X148803D01*
Y302059D01*
X149347D01*
Y302603D01*
X148803D01*
Y303148D01*
X149347D01*
Y303692D01*
X148803D01*
Y304236D01*
X149347D01*
Y303692D01*
X149891D01*
Y303148D01*
X150435D01*
Y303692D01*
X149891D01*
Y304236D01*
X150435D01*
Y303692D01*
X150979D01*
Y303148D01*
X151523D01*
Y303692D01*
X150979D01*
Y304236D01*
X151523D01*
Y303692D01*
X152067D01*
Y303148D01*
X152611D01*
Y302603D01*
X153155D01*
Y302059D01*
X153700D01*
Y301515D01*
X153155D01*
Y300971D01*
X153700D01*
Y300427D01*
X153155D01*
Y300971D01*
X152611D01*
Y300427D01*
X153155D01*
Y299883D01*
X153700D01*
Y299339D01*
X153155D01*
Y298795D01*
X153700D01*
Y298251D01*
X153155D01*
Y298795D01*
X152611D01*
Y298251D01*
X153155D01*
Y297707D01*
X153700D01*
Y297163D01*
X153155D01*
Y296619D01*
X153700D01*
Y296075D01*
X153155D01*
Y296619D01*
X152611D01*
Y296075D01*
X153155D01*
Y295531D01*
X153700D01*
Y294987D01*
X153155D01*
Y294443D01*
X153700D01*
Y293899D01*
X153155D01*
Y294443D01*
X152611D01*
Y293899D01*
X153155D01*
Y293354D01*
X153700D01*
Y292810D01*
X153155D01*
Y292266D01*
X153700D01*
Y291722D01*
X153155D01*
Y292266D01*
X152611D01*
Y291722D01*
X153155D01*
Y291178D01*
X153700D01*
Y290634D01*
X153155D01*
Y290090D01*
X153700D01*
Y289546D01*
X153155D01*
Y290090D01*
X152611D01*
Y289546D01*
X153155D01*
Y289002D01*
X153700D01*
Y288458D01*
X153155D01*
Y287914D01*
X153700D01*
Y287370D01*
X153155D01*
Y287914D01*
X152611D01*
Y287370D01*
X153155D01*
Y286826D01*
X153700D01*
Y286282D01*
X153155D01*
Y285737D01*
X153700D01*
Y285194D01*
X153155D01*
Y285737D01*
X152611D01*
Y285194D01*
X153155D01*
Y284649D01*
X153700D01*
Y284105D01*
X153155D01*
Y283561D01*
X153700D01*
Y283017D01*
X153155D01*
Y283561D01*
X152611D01*
Y283017D01*
X153155D01*
Y282473D01*
X153700D01*
Y281929D01*
X153155D01*
Y281385D01*
X153700D01*
Y280841D01*
X153155D01*
Y281385D01*
X152611D01*
Y280841D01*
X153155D01*
Y280297D01*
X153700D01*
Y279753D01*
X153155D01*
Y279209D01*
X153700D01*
Y278665D01*
X153155D01*
Y279209D01*
X152611D01*
Y278665D01*
X153155D01*
Y278121D01*
X153700D01*
Y277577D01*
X153155D01*
Y277033D01*
X153700D01*
Y276488D01*
X153155D01*
Y277033D01*
X152611D01*
Y276488D01*
X153155D01*
Y275944D01*
X153700D01*
Y275400D01*
X153155D01*
Y274856D01*
X153700D01*
Y274312D01*
X153155D01*
Y274856D01*
X152611D01*
Y274312D01*
X153155D01*
Y273768D01*
X153700D01*
Y273224D01*
X153155D01*
Y272680D01*
X153700D01*
Y272136D01*
X153155D01*
Y272680D01*
X152611D01*
Y272136D01*
X153155D01*
Y271592D01*
X153700D01*
Y271048D01*
X153155D01*
Y270504D01*
X153700D01*
Y269960D01*
X153155D01*
Y270504D01*
X152611D01*
Y269960D01*
X153155D01*
Y269416D01*
X153700D01*
Y268871D01*
X153155D01*
Y268328D01*
X153700D01*
Y267783D01*
X153155D01*
Y267239D01*
X153700D01*
Y266695D01*
X153155D01*
Y266151D01*
X153700D01*
Y265607D01*
X153155D01*
Y265063D01*
X153700D01*
Y264519D01*
X154244D01*
Y263975D01*
X153700D01*
Y264519D01*
X153155D01*
Y263975D01*
X153700D01*
Y263431D01*
X154244D01*
Y262887D01*
X154788D01*
Y262343D01*
X154244D01*
Y261799D01*
X154788D01*
Y261255D01*
X154244D01*
Y260711D01*
X154788D01*
Y260166D01*
X155332D01*
Y259622D01*
X155876D01*
Y259078D01*
X155332D01*
Y258534D01*
X155876D01*
Y257990D01*
X156420D01*
Y257446D01*
X156964D01*
Y256902D01*
X156420D01*
Y256358D01*
X156964D01*
Y255814D01*
X157508D01*
Y255270D01*
X158052D01*
Y254726D01*
X158596D01*
Y254182D01*
X159140D01*
Y253638D01*
X159684D01*
Y253094D01*
X160228D01*
Y252550D01*
X160772D01*
Y252006D01*
X161316D01*
Y251462D01*
X161860D01*
Y250917D01*
X162405D01*
Y250373D01*
X162949D01*
Y249829D01*
X164581D01*
Y249285D01*
X165125D01*
Y248741D01*
X165669D01*
Y248197D01*
X166213D01*
Y248741D01*
X165669D01*
Y249285D01*
X165125D01*
Y249829D01*
X165669D01*
Y249285D01*
X166213D01*
Y248741D01*
X166757D01*
Y248197D01*
X167301D01*
Y247653D01*
X167845D01*
Y248197D01*
X167301D01*
Y248741D01*
X167845D01*
Y248197D01*
X168389D01*
Y247653D01*
X168933D01*
Y248197D01*
X168389D01*
Y248741D01*
X168933D01*
Y248197D01*
X169477D01*
Y247653D01*
X171110D01*
Y247109D01*
X171654D01*
Y246565D01*
X172198D01*
Y247109D01*
X171654D01*
Y247653D01*
X172198D01*
Y247109D01*
X172742D01*
Y246565D01*
X173286D01*
Y247109D01*
X172742D01*
Y247653D01*
X173286D01*
Y247109D01*
X173830D01*
Y246565D01*
X174374D01*
Y247109D01*
X173830D01*
Y247653D01*
X174374D01*
Y247109D01*
X174918D01*
Y246565D01*
X175462D01*
Y247109D01*
X174918D01*
Y247653D01*
X175462D01*
Y247109D01*
X176006D01*
Y246565D01*
X176550D01*
Y247109D01*
X176006D01*
Y247653D01*
X176550D01*
Y247109D01*
X177094D01*
Y246565D01*
X177638D01*
Y247109D01*
X178182D01*
Y246565D01*
X178727D01*
Y247109D01*
X178182D01*
Y247653D01*
X178727D01*
Y247109D01*
X179270D01*
Y246565D01*
X179815D01*
Y247109D01*
X179270D01*
Y247653D01*
X179815D01*
Y247109D01*
X180359D01*
Y246565D01*
X180903D01*
Y247109D01*
X180359D01*
Y247653D01*
X180903D01*
Y247109D01*
X181447D01*
Y246565D01*
X181991D01*
Y247109D01*
X181447D01*
Y247653D01*
X181991D01*
Y247109D01*
X182535D01*
Y247653D01*
X184167D01*
Y248197D01*
X183623D01*
Y248741D01*
X184167D01*
Y248197D01*
X184711D01*
Y247653D01*
X185255D01*
Y248197D01*
X184711D01*
Y248741D01*
X185255D01*
Y248197D01*
X185799D01*
Y248741D01*
X186343D01*
Y249285D01*
X186887D01*
Y248741D01*
X187432D01*
Y249285D01*
X186887D01*
Y249829D01*
X188520D01*
Y250373D01*
X187976D01*
Y250917D01*
X188520D01*
Y250373D01*
X189064D01*
Y249829D01*
X189608D01*
Y250373D01*
X189064D01*
Y250917D01*
X189608D01*
Y251462D01*
X190152D01*
Y250917D01*
X190696D01*
Y251462D01*
X190152D01*
Y252006D01*
X190696D01*
Y252550D01*
X191240D01*
Y252006D01*
X191784D01*
Y252550D01*
X191240D01*
Y253094D01*
X191784D01*
Y252550D01*
X192328D01*
Y253094D01*
X191784D01*
Y253638D01*
X192328D01*
Y253094D01*
X192872D01*
Y253638D01*
X192328D01*
Y254182D01*
X192872D01*
Y254726D01*
X193416D01*
Y254182D01*
X193960D01*
Y254726D01*
X193416D01*
Y255270D01*
X193960D01*
Y255814D01*
X193416D01*
Y256358D01*
X193960D01*
Y255814D01*
X194504D01*
Y255270D01*
X195048D01*
Y255814D01*
X194504D01*
Y256358D01*
X195048D01*
Y256902D01*
X194504D01*
Y257446D01*
X195048D01*
Y257990D01*
X195592D01*
Y258534D01*
X196136D01*
Y259078D01*
X195592D01*
Y259622D01*
X196136D01*
Y259078D01*
X196681D01*
Y259622D01*
X196136D01*
Y260166D01*
X195592D01*
Y260711D01*
X196136D01*
Y260166D01*
X196681D01*
Y259622D01*
X197225D01*
Y260166D01*
X196681D01*
Y260711D01*
X197225D01*
Y261255D01*
X196681D01*
Y261799D01*
X197225D01*
Y262343D01*
X196681D01*
Y262887D01*
X197225D01*
Y262343D01*
X197769D01*
Y262887D01*
X197225D01*
Y263431D01*
X196681D01*
Y263975D01*
X197225D01*
Y263431D01*
X197769D01*
Y262887D01*
X198313D01*
Y263431D01*
X197769D01*
Y263975D01*
X198313D01*
Y264519D01*
X197769D01*
Y265063D01*
X198313D01*
Y265607D01*
X197769D01*
Y266151D01*
X198313D01*
Y266695D01*
X197769D01*
Y267239D01*
X198313D01*
Y267783D01*
X197769D01*
Y268328D01*
X198313D01*
Y267783D01*
X198857D01*
Y268328D01*
X198313D01*
Y268871D01*
X197769D01*
Y269416D01*
X198313D01*
Y268871D01*
X198857D01*
Y268328D01*
X199401D01*
Y268871D01*
X198857D01*
Y269416D01*
X198313D01*
Y269960D01*
X198857D01*
Y270504D01*
X198313D01*
Y271048D01*
X197769D01*
Y271592D01*
X198313D01*
Y271048D01*
X198857D01*
Y270504D01*
X199401D01*
Y271048D01*
X198857D01*
Y271592D01*
X199401D01*
Y272136D01*
X198857D01*
Y272680D01*
X198313D01*
Y273224D01*
X197769D01*
Y273768D01*
X198313D01*
Y273224D01*
X198857D01*
Y272680D01*
X199401D01*
Y273224D01*
X198857D01*
Y273768D01*
X198313D01*
Y274312D01*
X198857D01*
Y274856D01*
X198313D01*
Y275400D01*
X197769D01*
Y275944D01*
X198313D01*
Y275400D01*
X198857D01*
Y274856D01*
X199401D01*
Y275400D01*
X198857D01*
Y275944D01*
X199401D01*
Y276488D01*
X198857D01*
Y277033D01*
X198313D01*
Y277577D01*
X197769D01*
Y278121D01*
X198313D01*
Y277577D01*
X198857D01*
Y277033D01*
X199401D01*
Y277577D01*
X198857D01*
Y278121D01*
X198313D01*
Y278665D01*
X198857D01*
Y278121D01*
X199401D01*
Y278665D01*
X198857D01*
Y279209D01*
X198313D01*
Y279753D01*
X197769D01*
Y280297D01*
X198313D01*
Y279753D01*
X198857D01*
Y279209D01*
X199401D01*
Y279753D01*
X198857D01*
Y280297D01*
X199401D01*
Y280841D01*
X198857D01*
Y281385D01*
X198313D01*
Y281929D01*
X197769D01*
Y282473D01*
X198313D01*
Y281929D01*
X198857D01*
Y281385D01*
X199401D01*
Y281929D01*
X198857D01*
Y282473D01*
X198313D01*
Y283017D01*
X198857D01*
Y283561D01*
X198313D01*
Y284105D01*
X197769D01*
Y284649D01*
X198313D01*
Y284105D01*
X198857D01*
Y283561D01*
X199401D01*
Y284105D01*
X198857D01*
Y284649D01*
X199401D01*
Y285194D01*
X198857D01*
Y285737D01*
X198313D01*
Y286282D01*
X197769D01*
Y286826D01*
X198313D01*
Y286282D01*
X198857D01*
Y285737D01*
X199401D01*
Y286282D01*
X198857D01*
Y286826D01*
X198313D01*
Y287370D01*
X198857D01*
Y286826D01*
X199401D01*
Y287370D01*
X198857D01*
Y287914D01*
X198313D01*
Y288458D01*
X197769D01*
Y289002D01*
X198313D01*
Y288458D01*
X198857D01*
Y287914D01*
X199401D01*
Y288458D01*
X198857D01*
Y289002D01*
X199401D01*
Y289546D01*
X198857D01*
Y290090D01*
X198313D01*
Y290634D01*
X197769D01*
Y291178D01*
X198313D01*
Y290634D01*
X198857D01*
Y290090D01*
X199401D01*
Y290634D01*
X198857D01*
Y291178D01*
X198313D01*
Y291722D01*
X198857D01*
Y292266D01*
X198313D01*
Y292810D01*
X197769D01*
Y293354D01*
X198313D01*
Y292810D01*
X198857D01*
Y292266D01*
X199401D01*
Y292810D01*
X198857D01*
Y293354D01*
X199401D01*
Y293899D01*
X198857D01*
Y294443D01*
X198313D01*
Y294987D01*
X197769D01*
Y295531D01*
X198313D01*
Y294987D01*
X198857D01*
Y294443D01*
X199401D01*
Y294987D01*
X198857D01*
Y295531D01*
X198313D01*
Y296075D01*
X198857D01*
Y295531D01*
X199401D01*
Y296075D01*
X198857D01*
Y296619D01*
X198313D01*
Y297163D01*
X197769D01*
Y297707D01*
X198313D01*
Y297163D01*
X198857D01*
Y296619D01*
X199401D01*
Y297163D01*
X198857D01*
Y297707D01*
X199401D01*
Y298251D01*
X198857D01*
Y298795D01*
X198313D01*
Y299339D01*
X197769D01*
Y299883D01*
X198313D01*
Y299339D01*
X198857D01*
Y298795D01*
X199401D01*
Y299339D01*
X198857D01*
Y299883D01*
X198313D01*
Y300427D01*
X198857D01*
Y300971D01*
X198313D01*
Y301515D01*
X197769D01*
Y302059D01*
X198313D01*
Y301515D01*
X198857D01*
Y300971D01*
X199401D01*
Y301515D01*
X198857D01*
Y302059D01*
X199401D01*
Y302603D01*
X198857D01*
Y303148D01*
X198313D01*
Y303692D01*
X197769D01*
Y304236D01*
X198313D01*
Y303692D01*
X198857D01*
Y303148D01*
X199401D01*
Y303692D01*
X198857D01*
Y304236D01*
X199401D01*
Y303692D01*
X199945D01*
Y304236D01*
X201577D01*
Y303692D01*
D02*
G37*
G36*
X134113D02*
X134657D01*
Y303148D01*
X135201D01*
Y302603D01*
X134657D01*
Y302059D01*
X135201D01*
Y301515D01*
X134657D01*
Y302059D01*
X134113D01*
Y301515D01*
X134657D01*
Y300971D01*
X134113D01*
Y301515D01*
X133569D01*
Y300971D01*
X134113D01*
Y300427D01*
X133569D01*
Y300971D01*
X133025D01*
Y301515D01*
X132481D01*
Y300971D01*
X133025D01*
Y300427D01*
X132481D01*
Y300971D01*
X131937D01*
Y301515D01*
X131393D01*
Y300971D01*
X131937D01*
Y300427D01*
X131393D01*
Y300971D01*
X130849D01*
Y301515D01*
X130305D01*
Y300971D01*
X130849D01*
Y300427D01*
X130305D01*
Y300971D01*
X129761D01*
Y301515D01*
X129217D01*
Y300971D01*
X129761D01*
Y300427D01*
X129217D01*
Y300971D01*
X128673D01*
Y300427D01*
X128128D01*
Y300971D01*
X127584D01*
Y301515D01*
X127040D01*
Y300971D01*
X127584D01*
Y300427D01*
X127040D01*
Y300971D01*
X126496D01*
Y300427D01*
X125952D01*
Y299883D01*
X126496D01*
Y299339D01*
X125952D01*
Y299883D01*
X125408D01*
Y300427D01*
X124864D01*
Y299883D01*
X125408D01*
Y299339D01*
X124864D01*
Y299883D01*
X124320D01*
Y300427D01*
X123776D01*
Y299883D01*
X124320D01*
Y299339D01*
X123776D01*
Y299883D01*
X123232D01*
Y299339D01*
X122688D01*
Y298795D01*
X123232D01*
Y298251D01*
X122688D01*
Y298795D01*
X122144D01*
Y298251D01*
X121600D01*
Y297707D01*
X121056D01*
Y298251D01*
X120512D01*
Y297707D01*
X121056D01*
Y297163D01*
X119424D01*
Y296619D01*
X118879D01*
Y296075D01*
X118335D01*
Y295531D01*
X118879D01*
Y294987D01*
X118335D01*
Y295531D01*
X117791D01*
Y296075D01*
X117247D01*
Y295531D01*
X117791D01*
Y294987D01*
X117247D01*
Y294443D01*
X117791D01*
Y293899D01*
X117247D01*
Y294443D01*
X116703D01*
Y293899D01*
X116159D01*
Y293354D01*
X116703D01*
Y292810D01*
X116159D01*
Y292266D01*
X115615D01*
Y291722D01*
X115071D01*
Y291178D01*
X115615D01*
Y290634D01*
X115071D01*
Y291178D01*
X114527D01*
Y290634D01*
X115071D01*
Y290090D01*
X114527D01*
Y290634D01*
X113983D01*
Y290090D01*
X114527D01*
Y289546D01*
X113983D01*
Y289002D01*
X114527D01*
Y288458D01*
X113983D01*
Y287914D01*
X113439D01*
Y287370D01*
X112895D01*
Y286826D01*
X113439D01*
Y286282D01*
X112895D01*
Y285737D01*
X113439D01*
Y285194D01*
X112895D01*
Y284649D01*
X113439D01*
Y284105D01*
X112895D01*
Y284649D01*
X112351D01*
Y284105D01*
X112895D01*
Y283561D01*
X112351D01*
Y284105D01*
X111807D01*
Y283561D01*
X112351D01*
Y283017D01*
X111807D01*
Y282473D01*
X112351D01*
Y281929D01*
X111807D01*
Y281385D01*
X112351D01*
Y280841D01*
X111807D01*
Y280297D01*
X112351D01*
Y279753D01*
X111807D01*
Y279209D01*
X112351D01*
Y278665D01*
X111807D01*
Y278121D01*
X112351D01*
Y277577D01*
X111807D01*
Y277033D01*
X112351D01*
Y276488D01*
X111807D01*
Y277033D01*
X111263D01*
Y276488D01*
X111807D01*
Y275944D01*
X112351D01*
Y275400D01*
X111807D01*
Y274856D01*
X112351D01*
Y274312D01*
X111807D01*
Y274856D01*
X111263D01*
Y274312D01*
X111807D01*
Y273768D01*
X112351D01*
Y273224D01*
X111807D01*
Y272680D01*
X112351D01*
Y272136D01*
X111807D01*
Y272680D01*
X111263D01*
Y272136D01*
X111807D01*
Y271592D01*
X112351D01*
Y271048D01*
X111807D01*
Y270504D01*
X112351D01*
Y269960D01*
X111807D01*
Y270504D01*
X111263D01*
Y269960D01*
X111807D01*
Y269416D01*
X112351D01*
Y268871D01*
X111807D01*
Y268328D01*
X112351D01*
Y267783D01*
X111807D01*
Y268328D01*
X111263D01*
Y267783D01*
X111807D01*
Y267239D01*
X112351D01*
Y266695D01*
X111807D01*
Y266151D01*
X112351D01*
Y265607D01*
X111807D01*
Y266151D01*
X111263D01*
Y265607D01*
X111807D01*
Y265063D01*
X112351D01*
Y264519D01*
X111807D01*
Y263975D01*
X112351D01*
Y263431D01*
X111807D01*
Y263975D01*
X111263D01*
Y263431D01*
X111807D01*
Y262887D01*
X112351D01*
Y262343D01*
X111807D01*
Y261799D01*
X112351D01*
Y261255D01*
X111807D01*
Y261799D01*
X111263D01*
Y261255D01*
X111807D01*
Y260711D01*
X112351D01*
Y260166D01*
X111807D01*
Y259622D01*
X112351D01*
Y259078D01*
X111807D01*
Y259622D01*
X111263D01*
Y259078D01*
X111807D01*
Y258534D01*
X112351D01*
Y257990D01*
X111807D01*
Y257446D01*
X112351D01*
Y256902D01*
X111807D01*
Y257446D01*
X111263D01*
Y256902D01*
X111807D01*
Y256358D01*
X112351D01*
Y255814D01*
X111807D01*
Y255270D01*
X112351D01*
Y254726D01*
X111807D01*
Y255270D01*
X111263D01*
Y254726D01*
X111807D01*
Y254182D01*
X112351D01*
Y253638D01*
X111807D01*
Y253094D01*
X112351D01*
Y252550D01*
X111807D01*
Y253094D01*
X111263D01*
Y252550D01*
X111807D01*
Y252006D01*
X112351D01*
Y251462D01*
X111807D01*
Y250917D01*
X112351D01*
Y250373D01*
X111807D01*
Y250917D01*
X111263D01*
Y250373D01*
X111807D01*
Y249829D01*
X112351D01*
Y249285D01*
X111807D01*
Y248741D01*
X112351D01*
Y248197D01*
X111807D01*
Y248741D01*
X111263D01*
Y248197D01*
X111807D01*
Y247653D01*
X112351D01*
Y247109D01*
X111807D01*
Y246565D01*
X112351D01*
Y246021D01*
X111807D01*
Y246565D01*
X111263D01*
Y246021D01*
X111807D01*
Y245477D01*
X112351D01*
Y244933D01*
X111807D01*
Y244389D01*
X111263D01*
Y244933D01*
X110718D01*
Y244389D01*
X111263D01*
Y243845D01*
X110718D01*
Y244389D01*
X110174D01*
Y244933D01*
X109630D01*
Y244389D01*
X110174D01*
Y243845D01*
X109630D01*
Y244389D01*
X109086D01*
Y244933D01*
X108542D01*
Y245477D01*
X107998D01*
Y246021D01*
X107454D01*
Y246565D01*
X107998D01*
Y247109D01*
X107454D01*
Y247653D01*
X107998D01*
Y247109D01*
X108542D01*
Y247653D01*
X107998D01*
Y248197D01*
X107454D01*
Y248741D01*
X107998D01*
Y249285D01*
X107454D01*
Y249829D01*
X107998D01*
Y250373D01*
X107454D01*
Y250917D01*
X107998D01*
Y251462D01*
X107454D01*
Y252006D01*
X107998D01*
Y251462D01*
X108542D01*
Y252006D01*
X107998D01*
Y252550D01*
X107454D01*
Y253094D01*
X107998D01*
Y253638D01*
X107454D01*
Y254182D01*
X107998D01*
Y254726D01*
X107454D01*
Y255270D01*
X107998D01*
Y255814D01*
X107454D01*
Y256358D01*
X107998D01*
Y255814D01*
X108542D01*
Y256358D01*
X107998D01*
Y256902D01*
X107454D01*
Y257446D01*
X107998D01*
Y257990D01*
X107454D01*
Y258534D01*
X107998D01*
Y259078D01*
X107454D01*
Y259622D01*
X107998D01*
Y260166D01*
X107454D01*
Y260711D01*
X107998D01*
Y260166D01*
X108542D01*
Y260711D01*
X107998D01*
Y261255D01*
X107454D01*
Y261799D01*
X107998D01*
Y262343D01*
X107454D01*
Y262887D01*
X107998D01*
Y263431D01*
X107454D01*
Y263975D01*
X107998D01*
Y264519D01*
X107454D01*
Y265063D01*
X107998D01*
Y264519D01*
X108542D01*
Y265063D01*
X107998D01*
Y265607D01*
X107454D01*
Y266151D01*
X107998D01*
Y266695D01*
X107454D01*
Y267239D01*
X107998D01*
Y267783D01*
X107454D01*
Y268328D01*
X107998D01*
Y268871D01*
X107454D01*
Y269416D01*
X107998D01*
Y268871D01*
X108542D01*
Y269416D01*
X107998D01*
Y269960D01*
X107454D01*
Y270504D01*
X107998D01*
Y271048D01*
X107454D01*
Y271592D01*
X107998D01*
Y272136D01*
X107454D01*
Y272680D01*
X107998D01*
Y273224D01*
X107454D01*
Y273768D01*
X107998D01*
Y273224D01*
X108542D01*
Y273768D01*
X107998D01*
Y274312D01*
X107454D01*
Y274856D01*
X107998D01*
Y275400D01*
X107454D01*
Y275944D01*
X107998D01*
Y276488D01*
X107454D01*
Y277033D01*
X107998D01*
Y277577D01*
X107454D01*
Y278121D01*
X107998D01*
Y277577D01*
X108542D01*
Y278121D01*
X107998D01*
Y278665D01*
X107454D01*
Y279209D01*
X107998D01*
Y278665D01*
X108542D01*
Y278121D01*
X109086D01*
Y278665D01*
X108542D01*
Y279209D01*
X107998D01*
Y279753D01*
X107454D01*
Y280297D01*
X107998D01*
Y279753D01*
X108542D01*
Y280297D01*
X107998D01*
Y280841D01*
X108542D01*
Y280297D01*
X109086D01*
Y280841D01*
X108542D01*
Y281385D01*
X109086D01*
Y281929D01*
X108542D01*
Y282473D01*
X109086D01*
Y283017D01*
X108542D01*
Y283561D01*
X109086D01*
Y284105D01*
X108542D01*
Y284649D01*
X109086D01*
Y285194D01*
X108542D01*
Y285737D01*
X109086D01*
Y285194D01*
X109630D01*
Y285737D01*
X109086D01*
Y286282D01*
X108542D01*
Y286826D01*
X109086D01*
Y286282D01*
X109630D01*
Y285737D01*
X110174D01*
Y286282D01*
X109630D01*
Y286826D01*
X110174D01*
Y287370D01*
X109630D01*
Y287914D01*
X110174D01*
Y288458D01*
X109630D01*
Y289002D01*
X110174D01*
Y289546D01*
X109630D01*
Y290090D01*
X110174D01*
Y289546D01*
X110718D01*
Y289002D01*
X111263D01*
Y289546D01*
X110718D01*
Y290090D01*
X111263D01*
Y290634D01*
X110718D01*
Y291178D01*
X111263D01*
Y291722D01*
X110718D01*
Y292266D01*
X111263D01*
Y291722D01*
X111807D01*
Y292266D01*
X111263D01*
Y292810D01*
X110718D01*
Y293354D01*
X111263D01*
Y292810D01*
X111807D01*
Y292266D01*
X112351D01*
Y292810D01*
X111807D01*
Y293354D01*
X112351D01*
Y293899D01*
X111807D01*
Y294443D01*
X112351D01*
Y293899D01*
X112895D01*
Y293354D01*
X113439D01*
Y293899D01*
X112895D01*
Y294443D01*
X113439D01*
Y294987D01*
X112895D01*
Y295531D01*
X113439D01*
Y296075D01*
X113983D01*
Y296619D01*
X114527D01*
Y297163D01*
X113983D01*
Y297707D01*
X114527D01*
Y297163D01*
X115071D01*
Y297707D01*
X115615D01*
Y298251D01*
X116159D01*
Y298795D01*
X116703D01*
Y299339D01*
X117247D01*
Y299883D01*
X117791D01*
Y300427D01*
X118335D01*
Y299883D01*
X118879D01*
Y300427D01*
X118335D01*
Y300971D01*
X119967D01*
Y301515D01*
X119424D01*
Y302059D01*
X119967D01*
Y301515D01*
X120512D01*
Y302059D01*
X122144D01*
Y302603D01*
X122688D01*
Y302059D01*
X123232D01*
Y302603D01*
X122688D01*
Y303148D01*
X124320D01*
Y303692D01*
X124864D01*
Y303148D01*
X125408D01*
Y303692D01*
X124864D01*
Y304236D01*
X125408D01*
Y303692D01*
X125952D01*
Y303148D01*
X126496D01*
Y303692D01*
X125952D01*
Y304236D01*
X126496D01*
Y303692D01*
X127040D01*
Y303148D01*
X127584D01*
Y303692D01*
X127040D01*
Y304236D01*
X127584D01*
Y303692D01*
X128128D01*
Y304236D01*
X134113D01*
Y303692D01*
D02*
G37*
G36*
X152611D02*
X153155D01*
Y303148D01*
X153700D01*
Y302603D01*
X153155D01*
Y303148D01*
X152611D01*
Y303692D01*
X152067D01*
Y304236D01*
X152611D01*
Y303692D01*
D02*
G37*
G36*
X107998Y244933D02*
X108542D01*
Y244389D01*
X107998D01*
Y244933D01*
X107454D01*
Y245477D01*
X107998D01*
Y244933D01*
D02*
G37*
G36*
X289715D02*
X290259D01*
Y244389D01*
X290804D01*
Y243845D01*
X290259D01*
Y244389D01*
X289715D01*
Y244933D01*
X289171D01*
Y245477D01*
X289715D01*
Y244933D01*
D02*
G37*
G36*
X374589Y214465D02*
X375133D01*
Y213921D01*
X376766D01*
Y213377D01*
X376222D01*
Y212833D01*
X377854D01*
Y212289D01*
X377310D01*
Y211745D01*
X377854D01*
Y211201D01*
X377310D01*
Y210657D01*
X377854D01*
Y210113D01*
X377310D01*
Y209569D01*
X377854D01*
Y209025D01*
X377310D01*
Y209569D01*
X376766D01*
Y209025D01*
X376222D01*
Y208480D01*
X375677D01*
Y209025D01*
X375133D01*
Y208480D01*
X375677D01*
Y207936D01*
X375133D01*
Y208480D01*
X374589D01*
Y209025D01*
X374045D01*
Y208480D01*
X374589D01*
Y207936D01*
X374045D01*
Y208480D01*
X373501D01*
Y209025D01*
X372957D01*
Y209569D01*
X373501D01*
Y210113D01*
X374045D01*
Y209569D01*
X374589D01*
Y210113D01*
X374045D01*
Y210657D01*
X374589D01*
Y211201D01*
X374045D01*
Y211745D01*
X374589D01*
Y212289D01*
X374045D01*
Y212833D01*
X373501D01*
Y213377D01*
X372957D01*
Y213921D01*
X372413D01*
Y214465D01*
X371869D01*
Y215009D01*
X373501D01*
Y214465D01*
X374045D01*
Y215009D01*
X374589D01*
Y214465D01*
D02*
G37*
G36*
X260336D02*
X260880D01*
Y213921D01*
X260336D01*
Y214465D01*
X259792D01*
Y213921D01*
X260336D01*
Y213377D01*
X259792D01*
Y213921D01*
X259248D01*
Y213377D01*
X258704D01*
Y212833D01*
X259248D01*
Y212289D01*
X258704D01*
Y212833D01*
X258160D01*
Y212289D01*
X258704D01*
Y211745D01*
X259248D01*
Y211201D01*
X258704D01*
Y210657D01*
X260336D01*
Y210113D01*
X260880D01*
Y209569D01*
X261424D01*
Y209025D01*
X261968D01*
Y209569D01*
X261424D01*
Y210113D01*
X260880D01*
Y210657D01*
X261424D01*
Y210113D01*
X261968D01*
Y209569D01*
X262512D01*
Y209025D01*
X263056D01*
Y208480D01*
X264688D01*
Y207936D01*
X265233D01*
Y207392D01*
X265777D01*
Y206848D01*
X266321D01*
Y206304D01*
X266865D01*
Y206848D01*
X266321D01*
Y207392D01*
X265777D01*
Y207936D01*
X265233D01*
Y208480D01*
X265777D01*
Y207936D01*
X266321D01*
Y207392D01*
X266865D01*
Y206848D01*
X267409D01*
Y206304D01*
X267953D01*
Y205760D01*
X267409D01*
Y205216D01*
X267953D01*
Y204672D01*
X267409D01*
Y204128D01*
X267953D01*
Y203584D01*
X267409D01*
Y203040D01*
X266865D01*
Y202496D01*
X266321D01*
Y201952D01*
X266865D01*
Y201408D01*
X266321D01*
Y201952D01*
X265777D01*
Y202496D01*
X265233D01*
Y203040D01*
X265777D01*
Y203584D01*
X265233D01*
Y204128D01*
X265777D01*
Y204672D01*
X265233D01*
Y205216D01*
X264688D01*
Y205760D01*
X264144D01*
Y205216D01*
X264688D01*
Y204672D01*
X264144D01*
Y205216D01*
X263600D01*
Y205760D01*
X263056D01*
Y206304D01*
X262512D01*
Y206848D01*
X261968D01*
Y207392D01*
X261424D01*
Y206848D01*
X260880D01*
Y207392D01*
X260336D01*
Y207936D01*
X259792D01*
Y207392D01*
X260336D01*
Y206848D01*
X259792D01*
Y207392D01*
X259248D01*
Y207936D01*
X258704D01*
Y208480D01*
X258160D01*
Y209025D01*
X257616D01*
Y209569D01*
X257072D01*
Y210113D01*
X256528D01*
Y210657D01*
X255984D01*
Y211201D01*
X255439D01*
Y211745D01*
X255984D01*
Y212289D01*
X256528D01*
Y212833D01*
X255984D01*
Y213377D01*
X256528D01*
Y212833D01*
X257072D01*
Y213377D01*
X256528D01*
Y213921D01*
X257072D01*
Y214465D01*
X257616D01*
Y213921D01*
X258160D01*
Y214465D01*
X257616D01*
Y215009D01*
X258160D01*
Y214465D01*
X258704D01*
Y215009D01*
X260336D01*
Y214465D01*
D02*
G37*
G36*
X240750D02*
X241294D01*
Y213921D01*
X241838D01*
Y213377D01*
X241294D01*
Y213921D01*
X240750D01*
Y214465D01*
X240206D01*
Y213921D01*
X240750D01*
Y213377D01*
X240206D01*
Y213921D01*
X239662D01*
Y213377D01*
X239118D01*
Y212833D01*
X239662D01*
Y212289D01*
X240206D01*
Y211745D01*
X240750D01*
Y211201D01*
X240206D01*
Y211745D01*
X239662D01*
Y212289D01*
X239118D01*
Y211745D01*
X239662D01*
Y211201D01*
X239118D01*
Y210657D01*
X239662D01*
Y210113D01*
X240206D01*
Y209569D01*
X239662D01*
Y210113D01*
X239118D01*
Y209569D01*
X239662D01*
Y209025D01*
X240206D01*
Y208480D01*
X240750D01*
Y207936D01*
X241294D01*
Y207392D01*
X241838D01*
Y206848D01*
X241294D01*
Y207392D01*
X240750D01*
Y207936D01*
X240206D01*
Y207392D01*
X240750D01*
Y206848D01*
X240206D01*
Y207392D01*
X239662D01*
Y206848D01*
X239118D01*
Y206304D01*
X239662D01*
Y205760D01*
X240206D01*
Y205216D01*
X240750D01*
Y204672D01*
X240206D01*
Y205216D01*
X239662D01*
Y205760D01*
X239118D01*
Y205216D01*
X239662D01*
Y204672D01*
X240206D01*
Y204128D01*
X240750D01*
Y203584D01*
X240206D01*
Y204128D01*
X239662D01*
Y204672D01*
X239118D01*
Y204128D01*
X239662D01*
Y203584D01*
X240206D01*
Y203040D01*
X240750D01*
Y202496D01*
X240206D01*
Y203040D01*
X239662D01*
Y202496D01*
X240206D01*
Y201952D01*
X240750D01*
Y201408D01*
X240206D01*
Y200864D01*
X240750D01*
Y200319D01*
X240206D01*
Y200864D01*
X239662D01*
Y201408D01*
X239118D01*
Y200864D01*
X239662D01*
Y200319D01*
X239118D01*
Y200864D01*
X238573D01*
Y201408D01*
X238029D01*
Y200864D01*
X238573D01*
Y200319D01*
X238029D01*
Y200864D01*
X237485D01*
Y201408D01*
X236941D01*
Y201952D01*
X236397D01*
Y202496D01*
X236941D01*
Y201952D01*
X237485D01*
Y202496D01*
X236941D01*
Y203040D01*
X237485D01*
Y203584D01*
X236941D01*
Y204128D01*
X237485D01*
Y204672D01*
X236941D01*
Y205216D01*
X237485D01*
Y205760D01*
X236941D01*
Y206304D01*
X237485D01*
Y206848D01*
X236941D01*
Y207392D01*
X237485D01*
Y207936D01*
X236941D01*
Y208480D01*
X237485D01*
Y209025D01*
X236941D01*
Y209569D01*
X237485D01*
Y210113D01*
X236941D01*
Y210657D01*
X237485D01*
Y211201D01*
X236941D01*
Y211745D01*
X237485D01*
Y212289D01*
X236941D01*
Y212833D01*
X237485D01*
Y213377D01*
X236941D01*
Y213921D01*
X236397D01*
Y214465D01*
X235853D01*
Y215009D01*
X236397D01*
Y214465D01*
X236941D01*
Y215009D01*
X240750D01*
Y214465D01*
D02*
G37*
G36*
X191784D02*
X192328D01*
Y213921D01*
X192872D01*
Y213377D01*
X193416D01*
Y212833D01*
X193960D01*
Y212289D01*
X193416D01*
Y211745D01*
X193960D01*
Y211201D01*
X194504D01*
Y210657D01*
X195048D01*
Y210113D01*
X195592D01*
Y209569D01*
Y209025D01*
Y208480D01*
X196136D01*
Y207936D01*
X196681D01*
Y207392D01*
X197225D01*
Y206848D01*
X196681D01*
Y206304D01*
X197225D01*
Y205760D01*
X197769D01*
Y205216D01*
X198313D01*
Y204672D01*
X198857D01*
Y205216D01*
X199401D01*
Y205760D01*
X198857D01*
Y206304D01*
X199401D01*
Y205760D01*
X199945D01*
Y205216D01*
X200489D01*
Y204672D01*
X199945D01*
Y204128D01*
X200489D01*
Y203584D01*
X199945D01*
Y204128D01*
X199401D01*
Y203584D01*
X198857D01*
Y203040D01*
X199401D01*
Y202496D01*
X198857D01*
Y201952D01*
X198313D01*
Y202496D01*
X197769D01*
Y201952D01*
X198313D01*
Y201408D01*
X197769D01*
Y201952D01*
X197225D01*
Y202496D01*
X196681D01*
Y203040D01*
X196136D01*
Y203584D01*
X195592D01*
Y204128D01*
X195048D01*
Y204672D01*
X194504D01*
Y205216D01*
X195048D01*
Y204672D01*
X195592D01*
Y204128D01*
X196136D01*
Y204672D01*
X195592D01*
Y205216D01*
X195048D01*
Y205760D01*
X194504D01*
Y206304D01*
X195048D01*
Y206848D01*
X194504D01*
Y207392D01*
X193960D01*
Y207936D01*
X193416D01*
Y208480D01*
X192872D01*
Y209025D01*
X192328D01*
Y209569D01*
X192872D01*
Y210113D01*
X192328D01*
Y210657D01*
X191784D01*
Y211201D01*
X191240D01*
Y211745D01*
X190696D01*
Y212289D01*
X190152D01*
Y211745D01*
X190696D01*
Y211201D01*
X191240D01*
Y210657D01*
X191784D01*
Y210113D01*
X191240D01*
Y210657D01*
X190696D01*
Y211201D01*
X190152D01*
Y211745D01*
X189608D01*
Y212289D01*
X189064D01*
Y212833D01*
X189608D01*
Y213377D01*
X189064D01*
Y213921D01*
X188520D01*
Y214465D01*
X187976D01*
Y215009D01*
X188520D01*
Y214465D01*
X189064D01*
Y215009D01*
X191784D01*
Y214465D01*
D02*
G37*
G36*
X172198D02*
X172742D01*
Y213921D01*
X173286D01*
Y213377D01*
X172742D01*
Y213921D01*
X172198D01*
Y214465D01*
X171654D01*
Y213921D01*
X172198D01*
Y213377D01*
X171654D01*
Y212833D01*
X172198D01*
Y212289D01*
X171654D01*
Y211745D01*
X172198D01*
Y211201D01*
X171654D01*
Y210657D01*
X172198D01*
Y210113D01*
X171654D01*
Y209569D01*
X172198D01*
Y209025D01*
X171654D01*
Y208480D01*
X172198D01*
Y207936D01*
X171654D01*
Y207392D01*
X172198D01*
Y206848D01*
X171654D01*
Y206304D01*
X172198D01*
Y205760D01*
X171654D01*
Y205216D01*
X172198D01*
Y204672D01*
X171654D01*
Y204128D01*
X172198D01*
Y203584D01*
X171654D01*
Y203040D01*
X172198D01*
Y202496D01*
X171654D01*
Y201952D01*
X173286D01*
Y201408D01*
X172742D01*
Y200864D01*
X173286D01*
Y200319D01*
X172742D01*
Y200864D01*
X172198D01*
Y201408D01*
X171654D01*
Y200864D01*
X172198D01*
Y200319D01*
X171654D01*
Y200864D01*
X171110D01*
Y201408D01*
X170565D01*
Y200864D01*
X171110D01*
Y200319D01*
X170565D01*
Y200864D01*
X170021D01*
Y201408D01*
X169477D01*
Y200864D01*
X170021D01*
Y200319D01*
X169477D01*
Y200864D01*
X168933D01*
Y201408D01*
X168389D01*
Y201952D01*
X168933D01*
Y202496D01*
X168389D01*
Y203040D01*
X168933D01*
Y202496D01*
X169477D01*
Y201952D01*
X170021D01*
Y202496D01*
X169477D01*
Y203040D01*
X168933D01*
Y203584D01*
X168389D01*
Y204128D01*
X168933D01*
Y203584D01*
X169477D01*
Y204128D01*
X168933D01*
Y204672D01*
X168389D01*
Y205216D01*
X168933D01*
Y205760D01*
X168389D01*
Y206304D01*
X168933D01*
Y205760D01*
X169477D01*
Y206304D01*
X168933D01*
Y206848D01*
X168389D01*
Y207392D01*
X168933D01*
Y206848D01*
X169477D01*
Y206304D01*
X170021D01*
Y206848D01*
X169477D01*
Y207392D01*
X168933D01*
Y207936D01*
X168389D01*
Y208480D01*
X168933D01*
Y207936D01*
X169477D01*
Y208480D01*
X168933D01*
Y209025D01*
X168389D01*
Y209569D01*
X168933D01*
Y210113D01*
X168389D01*
Y210657D01*
X167845D01*
Y211201D01*
X167301D01*
Y211745D01*
X167845D01*
Y212289D01*
X167301D01*
Y212833D01*
X167845D01*
Y213377D01*
X168389D01*
Y213921D01*
X168933D01*
Y214465D01*
X168389D01*
Y215009D01*
X168933D01*
Y214465D01*
X169477D01*
Y215009D01*
X172198D01*
Y214465D01*
D02*
G37*
G36*
X353915D02*
X354459D01*
Y213921D01*
X353915D01*
Y214465D01*
X353371D01*
Y213921D01*
X353915D01*
Y213377D01*
X353371D01*
Y213921D01*
X352827D01*
Y214465D01*
X352283D01*
Y215009D01*
X353915D01*
Y214465D01*
D02*
G37*
G36*
X351739D02*
X352283D01*
Y213921D01*
X352827D01*
Y213377D01*
X352283D01*
Y213921D01*
X351739D01*
Y214465D01*
X351195D01*
Y213921D01*
X351739D01*
Y213377D01*
X351195D01*
Y213921D01*
X350651D01*
Y214465D01*
X350107D01*
Y213921D01*
X350651D01*
Y213377D01*
X350107D01*
Y212833D01*
X350651D01*
Y212289D01*
X350107D01*
Y211745D01*
X350651D01*
Y211201D01*
X350107D01*
Y210657D01*
X350651D01*
Y210113D01*
X350107D01*
Y209569D01*
X350651D01*
Y209025D01*
X350107D01*
Y208480D01*
X350651D01*
Y207936D01*
X351195D01*
Y207392D01*
X351739D01*
Y206848D01*
X351195D01*
Y207392D01*
X350651D01*
Y207936D01*
X350107D01*
Y207392D01*
X350651D01*
Y206848D01*
X350107D01*
Y206304D01*
X350651D01*
Y205760D01*
X350107D01*
Y205216D01*
X350651D01*
Y204672D01*
X350107D01*
Y204128D01*
X350651D01*
Y203584D01*
X350107D01*
Y203040D01*
X350651D01*
Y202496D01*
X350107D01*
Y201952D01*
X351739D01*
Y201408D01*
X352283D01*
Y200864D01*
X351739D01*
Y201408D01*
X351195D01*
Y200864D01*
X351739D01*
Y200319D01*
X351195D01*
Y200864D01*
X350651D01*
Y201408D01*
X350107D01*
Y200864D01*
X350651D01*
Y200319D01*
X350107D01*
Y200864D01*
X349562D01*
Y201408D01*
X349018D01*
Y200864D01*
X349562D01*
Y200319D01*
X349018D01*
Y200864D01*
X348474D01*
Y201408D01*
X347930D01*
Y200864D01*
X348474D01*
Y200319D01*
X347930D01*
Y200864D01*
X347386D01*
Y201408D01*
X346842D01*
Y201952D01*
X347386D01*
Y202496D01*
X346842D01*
Y203040D01*
X347386D01*
Y202496D01*
X347930D01*
Y201952D01*
X348474D01*
Y202496D01*
X347930D01*
Y203040D01*
X347386D01*
Y203584D01*
X346842D01*
Y204128D01*
X347386D01*
Y203584D01*
X347930D01*
Y204128D01*
X347386D01*
Y204672D01*
X346842D01*
Y205216D01*
X347386D01*
Y204672D01*
X347930D01*
Y204128D01*
X348474D01*
Y204672D01*
X347930D01*
Y205216D01*
X347386D01*
Y205760D01*
X346842D01*
Y206304D01*
X347386D01*
Y205760D01*
X347930D01*
Y206304D01*
X347386D01*
Y206848D01*
X346842D01*
Y207392D01*
X347386D01*
Y206848D01*
X347930D01*
Y206304D01*
X348474D01*
Y206848D01*
X347930D01*
Y207392D01*
X347386D01*
Y207936D01*
X346842D01*
Y208480D01*
X347386D01*
Y207936D01*
X347930D01*
Y208480D01*
X347386D01*
Y209025D01*
X346842D01*
Y209569D01*
X347386D01*
Y209025D01*
X347930D01*
Y208480D01*
X348474D01*
Y209025D01*
X347930D01*
Y209569D01*
X347386D01*
Y210113D01*
X346842D01*
Y210657D01*
X347386D01*
Y210113D01*
X347930D01*
Y210657D01*
X347386D01*
Y211201D01*
X346842D01*
Y211745D01*
X347386D01*
Y211201D01*
X347930D01*
Y210657D01*
X348474D01*
Y211201D01*
X347930D01*
Y211745D01*
X347386D01*
Y212289D01*
X346842D01*
Y212833D01*
X347386D01*
Y212289D01*
X347930D01*
Y212833D01*
X347386D01*
Y213377D01*
X346842D01*
Y213921D01*
X346298D01*
Y214465D01*
X345754D01*
Y215009D01*
X346298D01*
Y214465D01*
X346842D01*
Y213921D01*
X347386D01*
Y214465D01*
X346842D01*
Y215009D01*
X351739D01*
Y214465D01*
D02*
G37*
G36*
X292980D02*
X293524D01*
Y213921D01*
X294068D01*
Y213377D01*
X294612D01*
Y212833D01*
X295156D01*
Y212289D01*
X295700D01*
Y211745D01*
X295156D01*
Y212289D01*
X294612D01*
Y211745D01*
X295156D01*
Y211201D01*
X295700D01*
Y210657D01*
X296244D01*
Y210113D01*
X295700D01*
Y210657D01*
X295156D01*
Y211201D01*
X294612D01*
Y210657D01*
X295156D01*
Y210113D01*
X294612D01*
Y209569D01*
X295156D01*
Y209025D01*
X294612D01*
Y209569D01*
X294068D01*
Y209025D01*
X293524D01*
Y208480D01*
X294068D01*
Y207936D01*
X293524D01*
Y208480D01*
X292980D01*
Y209025D01*
X292436D01*
Y208480D01*
X292980D01*
Y207936D01*
X292436D01*
Y207392D01*
X291892D01*
Y207936D01*
X291348D01*
Y207392D01*
X291892D01*
Y206848D01*
X292436D01*
Y206304D01*
X292980D01*
Y205760D01*
X293524D01*
Y205216D01*
X294068D01*
Y204672D01*
X294612D01*
Y204128D01*
X295156D01*
Y203584D01*
X295700D01*
Y203040D01*
X296244D01*
Y202496D01*
X296788D01*
Y201952D01*
X297332D01*
Y201408D01*
X297876D01*
Y200864D01*
X298421D01*
Y200319D01*
X297876D01*
Y200864D01*
X297332D01*
Y201408D01*
X296788D01*
Y200864D01*
X297332D01*
Y200319D01*
X296788D01*
Y200864D01*
X296244D01*
Y201408D01*
X295700D01*
Y200864D01*
X296244D01*
Y200319D01*
X295700D01*
Y200864D01*
X295156D01*
Y201408D01*
X294612D01*
Y200864D01*
X295156D01*
Y200319D01*
X294612D01*
Y200864D01*
X294068D01*
Y201408D01*
X293524D01*
Y201952D01*
X292980D01*
Y202496D01*
X292436D01*
Y203040D01*
X291892D01*
Y203584D01*
X291348D01*
Y204128D01*
X291892D01*
Y204672D01*
X291348D01*
Y205216D01*
X290804D01*
Y205760D01*
X289171D01*
Y206304D01*
X289715D01*
Y206848D01*
X289171D01*
Y207392D01*
X288627D01*
Y207936D01*
X288083D01*
Y208480D01*
X288627D01*
Y207936D01*
X289171D01*
Y208480D01*
X290804D01*
Y209025D01*
X290259D01*
Y209569D01*
X290804D01*
Y209025D01*
X291348D01*
Y208480D01*
X291892D01*
Y209025D01*
X291348D01*
Y209569D01*
X291892D01*
Y210113D01*
X291348D01*
Y210657D01*
X291892D01*
Y210113D01*
X292436D01*
Y210657D01*
X292980D01*
Y211201D01*
X292436D01*
Y211745D01*
X291892D01*
Y212289D01*
X291348D01*
Y212833D01*
X291892D01*
Y213377D01*
X291348D01*
Y213921D01*
X290804D01*
Y214465D01*
X290259D01*
Y213921D01*
X290804D01*
Y213377D01*
X290259D01*
Y213921D01*
X289715D01*
Y214465D01*
X289171D01*
Y215009D01*
X291892D01*
Y214465D01*
X292436D01*
Y213921D01*
X292980D01*
Y214465D01*
X292436D01*
Y215009D01*
X292980D01*
Y214465D01*
D02*
G37*
G36*
X288627D02*
X289171D01*
Y213921D01*
X289715D01*
Y213377D01*
X289171D01*
Y213921D01*
X288627D01*
Y214465D01*
X288083D01*
Y213921D01*
X288627D01*
Y213377D01*
X288083D01*
Y213921D01*
X287539D01*
Y214465D01*
X286995D01*
Y213921D01*
X287539D01*
Y213377D01*
X286995D01*
Y212833D01*
X287539D01*
Y212289D01*
X286995D01*
Y212833D01*
X286451D01*
Y212289D01*
X286995D01*
Y211745D01*
X286451D01*
Y212289D01*
X285907D01*
Y211745D01*
X286451D01*
Y211201D01*
X286995D01*
Y210657D01*
X287539D01*
Y210113D01*
X286995D01*
Y210657D01*
X286451D01*
Y211201D01*
X285907D01*
Y210657D01*
X286451D01*
Y210113D01*
X286995D01*
Y209569D01*
X286451D01*
Y210113D01*
X285907D01*
Y209569D01*
X286451D01*
Y209025D01*
X286995D01*
Y208480D01*
X287539D01*
Y207936D01*
X288083D01*
Y207392D01*
X288627D01*
Y206848D01*
X288083D01*
Y207392D01*
X287539D01*
Y207936D01*
X286995D01*
Y207392D01*
X287539D01*
Y206848D01*
X286995D01*
Y207392D01*
X286451D01*
Y207936D01*
X285907D01*
Y207392D01*
X286451D01*
Y206848D01*
X286995D01*
Y206304D01*
X287539D01*
Y205760D01*
X286995D01*
Y206304D01*
X286451D01*
Y206848D01*
X285907D01*
Y206304D01*
X286451D01*
Y205760D01*
X286995D01*
Y205216D01*
X286451D01*
Y205760D01*
X285907D01*
Y205216D01*
X286451D01*
Y204672D01*
X286995D01*
Y204128D01*
X287539D01*
Y203584D01*
X286995D01*
Y204128D01*
X286451D01*
Y203584D01*
X286995D01*
Y203040D01*
X286451D01*
Y203584D01*
X285907D01*
Y203040D01*
X286451D01*
Y202496D01*
X286995D01*
Y201952D01*
X287539D01*
Y201408D01*
X288083D01*
Y200864D01*
X288627D01*
Y200319D01*
X288083D01*
Y200864D01*
X287539D01*
Y201408D01*
X286995D01*
Y200864D01*
X286451D01*
Y201408D01*
X285907D01*
Y200864D01*
X286451D01*
Y200319D01*
X285907D01*
Y200864D01*
X285363D01*
Y201408D01*
X284819D01*
Y200864D01*
X285363D01*
Y200319D01*
X284819D01*
Y200864D01*
X284275D01*
Y201408D01*
X283731D01*
Y201952D01*
X284275D01*
Y202496D01*
X283731D01*
Y203040D01*
X284275D01*
Y203584D01*
X283731D01*
Y204128D01*
X284275D01*
Y204672D01*
X283731D01*
Y205216D01*
X284275D01*
Y205760D01*
X283731D01*
Y206304D01*
X284275D01*
Y206848D01*
X283731D01*
Y207392D01*
X284275D01*
Y207936D01*
X283731D01*
Y208480D01*
X284275D01*
Y209025D01*
X283731D01*
Y209569D01*
X284275D01*
Y210113D01*
X283731D01*
Y210657D01*
X284275D01*
Y211201D01*
X283731D01*
Y211745D01*
X284275D01*
Y212289D01*
X283731D01*
Y212833D01*
X284275D01*
Y213377D01*
X283731D01*
Y213921D01*
X283187D01*
Y214465D01*
X282643D01*
Y215009D01*
X283187D01*
Y214465D01*
X283731D01*
Y213921D01*
X284275D01*
Y214465D01*
X283731D01*
Y215009D01*
X288627D01*
Y214465D01*
D02*
G37*
G36*
X246190D02*
X246734D01*
Y213921D01*
X247278D01*
Y213377D01*
X247823D01*
Y212833D01*
X248367D01*
Y212289D01*
X248911D01*
Y211745D01*
X249455D01*
Y211201D01*
X248911D01*
Y211745D01*
X248367D01*
Y212289D01*
X247823D01*
Y211745D01*
X248367D01*
Y211201D01*
X247823D01*
Y210657D01*
X248367D01*
Y210113D01*
X247823D01*
Y209569D01*
X247278D01*
Y209025D01*
X246734D01*
Y208480D01*
X246190D01*
Y209025D01*
X245646D01*
Y208480D01*
X246190D01*
Y207936D01*
X245646D01*
Y208480D01*
X245102D01*
Y209025D01*
X244558D01*
Y209569D01*
X245102D01*
Y210113D01*
X245646D01*
Y210657D01*
X245102D01*
Y211201D01*
X245646D01*
Y210657D01*
X246190D01*
Y211201D01*
X245646D01*
Y211745D01*
X246190D01*
Y212289D01*
X245646D01*
Y212833D01*
X245102D01*
Y213377D01*
X244558D01*
Y213921D01*
X244014D01*
Y214465D01*
X243470D01*
Y215009D01*
X245102D01*
Y214465D01*
X245646D01*
Y213921D01*
X246190D01*
Y214465D01*
X245646D01*
Y215009D01*
X246190D01*
Y214465D01*
D02*
G37*
G36*
X208106D02*
X208650D01*
Y213921D01*
X208106D01*
Y214465D01*
X207562D01*
Y213921D01*
X208106D01*
Y213377D01*
X207562D01*
Y212833D01*
X207018D01*
Y213377D01*
X206474D01*
Y212833D01*
X207018D01*
Y212289D01*
X207562D01*
Y211745D01*
X208106D01*
Y211201D01*
X207562D01*
Y211745D01*
X207018D01*
Y211201D01*
X207562D01*
Y210657D01*
X208106D01*
Y210113D01*
X207562D01*
Y209569D01*
X208106D01*
Y209025D01*
X207562D01*
Y209569D01*
X207018D01*
Y209025D01*
X207562D01*
Y208480D01*
X208106D01*
Y207936D01*
X207562D01*
Y207392D01*
X208106D01*
Y206848D01*
X207562D01*
Y207392D01*
X207018D01*
Y206848D01*
X207562D01*
Y206304D01*
X208106D01*
Y205760D01*
X207562D01*
Y205216D01*
X208106D01*
Y204672D01*
X207562D01*
Y205216D01*
X207018D01*
Y204672D01*
X207562D01*
Y204128D01*
X208106D01*
Y203584D01*
X207562D01*
Y203040D01*
X208106D01*
Y202496D01*
X207562D01*
Y203040D01*
X207018D01*
Y202496D01*
X207562D01*
Y201952D01*
X208106D01*
Y201408D01*
X208650D01*
Y200864D01*
X208106D01*
Y201408D01*
X207562D01*
Y200864D01*
X208106D01*
Y200319D01*
X207562D01*
Y200864D01*
X207018D01*
Y201408D01*
X206474D01*
Y200864D01*
X207018D01*
Y200319D01*
X206474D01*
Y200864D01*
X205930D01*
Y201408D01*
X205385D01*
Y200864D01*
X205930D01*
Y200319D01*
X205385D01*
Y200864D01*
X204841D01*
Y201408D01*
X204297D01*
Y201952D01*
X204841D01*
Y202496D01*
X204297D01*
Y203040D01*
X204841D01*
Y203584D01*
X204297D01*
Y204128D01*
X204841D01*
Y204672D01*
X204297D01*
Y205216D01*
X204841D01*
Y205760D01*
X204297D01*
Y206304D01*
X204841D01*
Y206848D01*
X204297D01*
Y207392D01*
X204841D01*
Y207936D01*
X204297D01*
Y208480D01*
X204841D01*
Y209025D01*
X204297D01*
Y209569D01*
X204841D01*
Y210113D01*
X204297D01*
Y210657D01*
X203753D01*
Y211201D01*
X203209D01*
Y211745D01*
X202665D01*
Y212289D01*
X203209D01*
Y211745D01*
X203753D01*
Y212289D01*
X203209D01*
Y212833D01*
X203753D01*
Y213377D01*
X203209D01*
Y213921D01*
X203753D01*
Y213377D01*
X204297D01*
Y212833D01*
X204841D01*
Y213377D01*
X204297D01*
Y213921D01*
X204841D01*
Y214465D01*
X204297D01*
Y215009D01*
X208106D01*
Y214465D01*
D02*
G37*
G36*
X155876D02*
X156420D01*
Y213921D01*
X156964D01*
Y213377D01*
X157508D01*
Y212833D01*
X158052D01*
Y212289D01*
X158596D01*
Y211745D01*
X159140D01*
Y211201D01*
X158596D01*
Y210657D01*
X159140D01*
Y210113D01*
X159684D01*
Y209569D01*
X160228D01*
Y209025D01*
X159684D01*
Y208480D01*
X160228D01*
Y207936D01*
X160772D01*
Y207392D01*
X161316D01*
Y206848D01*
X160772D01*
Y206304D01*
X162405D01*
Y205760D01*
X161860D01*
Y205216D01*
X162405D01*
Y204672D01*
X162949D01*
Y204128D01*
X163493D01*
Y204672D01*
X162949D01*
Y205216D01*
X163493D01*
Y205760D01*
X162949D01*
Y206304D01*
X163493D01*
Y205760D01*
X164037D01*
Y205216D01*
X164581D01*
Y204672D01*
X164037D01*
Y204128D01*
X164581D01*
Y203584D01*
X164037D01*
Y203040D01*
X163493D01*
Y202496D01*
X162949D01*
Y201952D01*
X163493D01*
Y201408D01*
X162949D01*
Y201952D01*
X162405D01*
Y201408D01*
X161860D01*
Y201952D01*
X161316D01*
Y202496D01*
X160772D01*
Y203040D01*
Y203584D01*
Y204128D01*
X160228D01*
Y204672D01*
X159684D01*
Y205216D01*
X159140D01*
Y205760D01*
X158596D01*
Y206304D01*
X159140D01*
Y206848D01*
X158596D01*
Y207392D01*
X158052D01*
Y207936D01*
X157508D01*
Y208480D01*
X158052D01*
Y209025D01*
X157508D01*
Y209569D01*
X156964D01*
Y210113D01*
X156420D01*
Y210657D01*
X155876D01*
Y211201D01*
X155332D01*
Y210657D01*
X155876D01*
Y210113D01*
X155332D01*
Y209569D01*
X155876D01*
Y209025D01*
X155332D01*
Y209569D01*
X154788D01*
Y210113D01*
X154244D01*
Y210657D01*
X153700D01*
Y211201D01*
X153155D01*
Y211745D01*
X153700D01*
Y211201D01*
X154244D01*
Y210657D01*
X154788D01*
Y211201D01*
X154244D01*
Y211745D01*
X153700D01*
Y212289D01*
X153155D01*
Y212833D01*
X153700D01*
Y212289D01*
X154244D01*
Y211745D01*
X154788D01*
Y212289D01*
X154244D01*
Y212833D01*
X153700D01*
Y213377D01*
X153155D01*
Y213921D01*
X152611D01*
Y214465D01*
X152067D01*
Y215009D01*
X152611D01*
Y214465D01*
X153155D01*
Y213921D01*
X153700D01*
Y214465D01*
X153155D01*
Y215009D01*
X155876D01*
Y214465D01*
D02*
G37*
G36*
X142818D02*
X143362D01*
Y213921D01*
X143906D01*
Y213377D01*
X144450D01*
Y212833D01*
X144994D01*
Y212289D01*
X144450D01*
Y211745D01*
X144994D01*
Y211201D01*
X145539D01*
Y210657D01*
X146083D01*
Y210113D01*
X145539D01*
Y210657D01*
X144994D01*
Y211201D01*
X144450D01*
Y210657D01*
X144994D01*
Y210113D01*
X144450D01*
Y209569D01*
X144994D01*
Y209025D01*
X144450D01*
Y209569D01*
X143906D01*
Y209025D01*
X143362D01*
Y208480D01*
X143906D01*
Y207936D01*
X143362D01*
Y208480D01*
X142818D01*
Y209025D01*
X142274D01*
Y208480D01*
X142818D01*
Y207936D01*
X142274D01*
Y208480D01*
X141730D01*
Y209025D01*
X141186D01*
Y209569D01*
X141730D01*
Y210113D01*
X141186D01*
Y210657D01*
X141730D01*
Y210113D01*
X142274D01*
Y210657D01*
X142818D01*
Y211201D01*
X142274D01*
Y211745D01*
X141730D01*
Y212289D01*
X141186D01*
Y212833D01*
X141730D01*
Y213377D01*
X141186D01*
Y213921D01*
X140642D01*
Y214465D01*
X140098D01*
Y213921D01*
X140642D01*
Y213377D01*
X140098D01*
Y213921D01*
X139554D01*
Y214465D01*
X139010D01*
Y215009D01*
X140642D01*
Y214465D01*
X141186D01*
Y215009D01*
X141730D01*
Y214465D01*
X142274D01*
Y213921D01*
X142818D01*
Y214465D01*
X142274D01*
Y215009D01*
X142818D01*
Y214465D01*
D02*
G37*
G36*
X125408D02*
X125952D01*
Y213921D01*
X126496D01*
Y213377D01*
X125952D01*
Y212833D01*
Y212289D01*
Y211745D01*
X126496D01*
Y211201D01*
X125952D01*
Y211745D01*
X125408D01*
Y212289D01*
X124864D01*
Y211745D01*
X125408D01*
Y211201D01*
X125952D01*
Y210657D01*
X126496D01*
Y210113D01*
X125952D01*
Y210657D01*
X125408D01*
Y211201D01*
X124864D01*
Y211745D01*
X124320D01*
Y212289D01*
X123776D01*
Y212833D01*
X124320D01*
Y213377D01*
X123776D01*
Y213921D01*
X123232D01*
Y214465D01*
X122688D01*
Y213921D01*
X123232D01*
Y213377D01*
X122688D01*
Y213921D01*
X122144D01*
Y214465D01*
X121600D01*
Y215009D01*
X123232D01*
Y214465D01*
X123776D01*
Y213921D01*
X124320D01*
Y214465D01*
X123776D01*
Y215009D01*
X124320D01*
Y214465D01*
X124864D01*
Y213921D01*
X125408D01*
Y214465D01*
X124864D01*
Y215009D01*
X125408D01*
Y214465D01*
D02*
G37*
G36*
X121056D02*
X121600D01*
Y213921D01*
X121056D01*
Y214465D01*
X120512D01*
Y215009D01*
X121056D01*
Y214465D01*
D02*
G37*
G36*
X118879D02*
X119424D01*
Y213921D01*
X118879D01*
Y214465D01*
X118335D01*
Y213921D01*
X118879D01*
Y213377D01*
X118335D01*
Y213921D01*
X117791D01*
Y214465D01*
X117247D01*
Y215009D01*
X118879D01*
Y214465D01*
D02*
G37*
G36*
X340858D02*
X340313D01*
Y213921D01*
X340858D01*
Y213377D01*
X340313D01*
Y213921D01*
X339769D01*
Y213377D01*
X339225D01*
Y212833D01*
X339769D01*
Y212289D01*
X339225D01*
Y211745D01*
X338681D01*
Y212289D01*
X338137D01*
Y212833D01*
X338681D01*
Y213377D01*
X338137D01*
Y213921D01*
X337593D01*
Y214465D01*
X337049D01*
Y215009D01*
X340858D01*
Y214465D01*
D02*
G37*
G36*
X328888D02*
X329432D01*
Y213921D01*
X329976D01*
Y213377D01*
X329432D01*
Y213921D01*
X328888D01*
Y214465D01*
X328344D01*
Y213921D01*
X328888D01*
Y213377D01*
X328344D01*
Y212833D01*
X328888D01*
Y212289D01*
X329432D01*
Y211745D01*
X329976D01*
Y211201D01*
X329432D01*
Y211745D01*
X328888D01*
Y212289D01*
X328344D01*
Y211745D01*
X328888D01*
Y211201D01*
X329432D01*
Y210657D01*
X329976D01*
Y210113D01*
X330520D01*
Y209569D01*
X331064D01*
Y209025D01*
X330520D01*
Y208480D01*
X331064D01*
Y207936D01*
X331608D01*
Y207392D01*
X332152D01*
Y206848D01*
X331608D01*
Y206304D01*
X332152D01*
Y205760D01*
X332696D01*
Y205216D01*
X333241D01*
Y204672D01*
X333785D01*
Y204128D01*
X334329D01*
Y203584D01*
X333785D01*
Y203040D01*
X334329D01*
Y202496D01*
X333785D01*
Y201952D01*
X334329D01*
Y201408D01*
X333785D01*
Y200864D01*
X333241D01*
Y201408D01*
X332696D01*
Y200864D01*
X333241D01*
Y200319D01*
X332696D01*
Y200864D01*
X332152D01*
Y201408D01*
X331608D01*
Y201952D01*
X332152D01*
Y202496D01*
X331608D01*
Y203040D01*
X331064D01*
Y203584D01*
X330520D01*
Y204128D01*
X329976D01*
Y204672D01*
X329432D01*
Y205216D01*
X329976D01*
Y204672D01*
X330520D01*
Y204128D01*
X331064D01*
Y204672D01*
X330520D01*
Y205216D01*
X329976D01*
Y205760D01*
X329432D01*
Y206304D01*
X329976D01*
Y206848D01*
X329432D01*
Y207392D01*
X328888D01*
Y207936D01*
X328344D01*
Y208480D01*
X327800D01*
Y209025D01*
X327256D01*
Y209569D01*
X327800D01*
Y210113D01*
X327256D01*
Y210657D01*
X326712D01*
Y211201D01*
X326168D01*
Y211745D01*
X326712D01*
Y212289D01*
X326168D01*
Y212833D01*
X325624D01*
Y213377D01*
X325080D01*
Y213921D01*
X324535D01*
Y214465D01*
X323991D01*
Y215009D01*
X328888D01*
Y214465D01*
D02*
G37*
G36*
X312566D02*
X313110D01*
Y213921D01*
X313654D01*
Y213377D01*
X313110D01*
Y213921D01*
X312566D01*
Y214465D01*
X312022D01*
Y215009D01*
X312566D01*
Y214465D01*
D02*
G37*
G36*
X310390Y215553D02*
X310934D01*
Y215009D01*
X311478D01*
Y214465D01*
X312022D01*
Y213921D01*
X312566D01*
Y213377D01*
X312022D01*
Y213921D01*
X311478D01*
Y214465D01*
X310934D01*
Y215009D01*
X310390D01*
Y215553D01*
X309846D01*
Y216097D01*
X310390D01*
Y215553D01*
D02*
G37*
G36*
X309302Y214465D02*
X309846D01*
Y213921D01*
X310390D01*
Y213377D01*
X309846D01*
Y213921D01*
X309302D01*
Y214465D01*
X308758D01*
Y213921D01*
X308214D01*
Y214465D01*
X307670D01*
Y213921D01*
X308214D01*
Y213377D01*
X307670D01*
Y213921D01*
X307125D01*
Y214465D01*
X306581D01*
Y215009D01*
X309302D01*
Y214465D01*
D02*
G37*
G36*
X306581Y213921D02*
X307125D01*
Y213377D01*
X306581D01*
Y212833D01*
X307125D01*
Y212289D01*
X306581D01*
Y211745D01*
X306037D01*
Y212289D01*
X305493D01*
Y211745D01*
X306037D01*
Y211201D01*
X305493D01*
Y210657D01*
X306037D01*
Y210113D01*
X305493D01*
Y209569D01*
X306037D01*
Y209025D01*
X305493D01*
Y209569D01*
X304949D01*
Y209025D01*
X305493D01*
Y208480D01*
X306037D01*
Y207936D01*
X305493D01*
Y207392D01*
X306037D01*
Y206848D01*
X305493D01*
Y207392D01*
X304949D01*
Y206848D01*
X305493D01*
Y206304D01*
X306037D01*
Y205760D01*
X305493D01*
Y205216D01*
X306037D01*
Y204672D01*
X306581D01*
Y204128D01*
X307125D01*
Y203584D01*
X306581D01*
Y204128D01*
X306037D01*
Y204672D01*
X305493D01*
Y204128D01*
X306037D01*
Y203584D01*
X306581D01*
Y203040D01*
X307125D01*
Y202496D01*
X307670D01*
Y201952D01*
X310390D01*
Y201408D01*
X310934D01*
Y200864D01*
X311478D01*
Y200319D01*
X310934D01*
Y200864D01*
X310390D01*
Y201408D01*
X309846D01*
Y200864D01*
X310390D01*
Y200319D01*
X309846D01*
Y200864D01*
X309302D01*
Y201408D01*
X308758D01*
Y200864D01*
X309302D01*
Y200319D01*
X308758D01*
Y200864D01*
X308214D01*
Y201408D01*
X307670D01*
Y200864D01*
X308214D01*
Y200319D01*
X307670D01*
Y200864D01*
X307125D01*
Y201408D01*
X306581D01*
Y201952D01*
X306037D01*
Y202496D01*
X305493D01*
Y201952D01*
X306037D01*
Y201408D01*
X305493D01*
Y201952D01*
X304949D01*
Y202496D01*
X304405D01*
Y203040D01*
X303861D01*
Y203584D01*
X303317D01*
Y204128D01*
X303861D01*
Y204672D01*
X303317D01*
Y205216D01*
X302773D01*
Y205760D01*
X302229D01*
Y206304D01*
X302773D01*
Y206848D01*
X302229D01*
Y207392D01*
X302773D01*
Y207936D01*
X302229D01*
Y208480D01*
X302773D01*
Y209025D01*
X302229D01*
Y209569D01*
X302773D01*
Y210113D01*
X302229D01*
Y210657D01*
X302773D01*
Y211201D01*
X303317D01*
Y211745D01*
X303861D01*
Y212289D01*
X303317D01*
Y212833D01*
X303861D01*
Y212289D01*
X304405D01*
Y212833D01*
X304949D01*
Y213377D01*
X304405D01*
Y213921D01*
X304949D01*
Y213377D01*
X305493D01*
Y213921D01*
X306037D01*
Y214465D01*
X306581D01*
Y213921D01*
D02*
G37*
G36*
X262512Y214465D02*
X263056D01*
Y213921D01*
X263600D01*
Y213377D01*
X263056D01*
Y213921D01*
X262512D01*
Y214465D01*
X261968D01*
Y215009D01*
X262512D01*
Y214465D01*
D02*
G37*
G36*
X261424D02*
X261968D01*
Y213921D01*
X262512D01*
Y213377D01*
X261968D01*
Y213921D01*
X261424D01*
Y214465D01*
X260880D01*
Y215009D01*
X261424D01*
Y214465D01*
D02*
G37*
G36*
X242926D02*
X243470D01*
Y213921D01*
X244014D01*
Y213377D01*
X243470D01*
Y213921D01*
X242926D01*
Y214465D01*
X242382D01*
Y213921D01*
X242926D01*
Y213377D01*
X242382D01*
Y213921D01*
X241838D01*
Y214465D01*
X241294D01*
Y215009D01*
X242926D01*
Y214465D01*
D02*
G37*
G36*
X235309D02*
X235853D01*
Y213921D01*
X236397D01*
Y213377D01*
X235853D01*
Y213921D01*
X235309D01*
Y214465D01*
X234765D01*
Y215009D01*
X235309D01*
Y214465D01*
D02*
G37*
G36*
X187432D02*
X187976D01*
Y213921D01*
X188520D01*
Y213377D01*
X187976D01*
Y213921D01*
X187432D01*
Y214465D01*
X186887D01*
Y215009D01*
X187432D01*
Y214465D01*
D02*
G37*
G36*
X156964D02*
X157508D01*
Y213921D01*
X158052D01*
Y213377D01*
X157508D01*
Y213921D01*
X156964D01*
Y214465D01*
X156420D01*
Y215009D01*
X156964D01*
Y214465D01*
D02*
G37*
G36*
X138466D02*
X139010D01*
Y213921D01*
X139554D01*
Y213377D01*
X139010D01*
Y213921D01*
X138466D01*
Y214465D01*
X137922D01*
Y213921D01*
X138466D01*
Y213377D01*
X137922D01*
Y213921D01*
X137378D01*
Y214465D01*
X136833D01*
Y213921D01*
X137378D01*
Y213377D01*
X136833D01*
Y212833D01*
X137378D01*
Y212289D01*
X136833D01*
Y212833D01*
X136290D01*
Y213377D01*
X135745D01*
Y212833D01*
X136290D01*
Y212289D01*
X136833D01*
Y211745D01*
X136290D01*
Y212289D01*
X135745D01*
Y211745D01*
X136290D01*
Y211201D01*
X136833D01*
Y210657D01*
X137378D01*
Y210113D01*
X136833D01*
Y210657D01*
X136290D01*
Y211201D01*
X135745D01*
Y210657D01*
X136290D01*
Y210113D01*
X136833D01*
Y209569D01*
X136290D01*
Y210113D01*
X135745D01*
Y209569D01*
X136290D01*
Y209025D01*
X136833D01*
Y208480D01*
X137378D01*
Y207936D01*
X137922D01*
Y207392D01*
X138466D01*
Y206848D01*
X137922D01*
Y207392D01*
X137378D01*
Y207936D01*
X136833D01*
Y207392D01*
X137378D01*
Y206848D01*
X136833D01*
Y207392D01*
X136290D01*
Y207936D01*
X135745D01*
Y207392D01*
X136290D01*
Y206848D01*
X136833D01*
Y206304D01*
X137378D01*
Y205760D01*
X136833D01*
Y206304D01*
X136290D01*
Y206848D01*
X135745D01*
Y206304D01*
X136290D01*
Y205760D01*
X136833D01*
Y205216D01*
X137378D01*
Y204672D01*
X136833D01*
Y205216D01*
X136290D01*
Y205760D01*
X135745D01*
Y205216D01*
X136290D01*
Y204672D01*
X136833D01*
Y204128D01*
X137378D01*
Y203584D01*
X136833D01*
Y204128D01*
X136290D01*
Y204672D01*
X135745D01*
Y204128D01*
X136290D01*
Y203584D01*
X136833D01*
Y203040D01*
X137378D01*
Y202496D01*
X136833D01*
Y203040D01*
X136290D01*
Y203584D01*
X135745D01*
Y203040D01*
X136290D01*
Y202496D01*
X136833D01*
Y201952D01*
X137378D01*
Y201408D01*
X137922D01*
Y200864D01*
X138466D01*
Y200319D01*
X137922D01*
Y200864D01*
X137378D01*
Y201408D01*
X136833D01*
Y200864D01*
X137378D01*
Y200319D01*
X136833D01*
Y200864D01*
X136290D01*
Y201408D01*
X135745D01*
Y200864D01*
X136290D01*
Y200319D01*
X135745D01*
Y200864D01*
X135201D01*
Y201408D01*
X134657D01*
Y200864D01*
X135201D01*
Y200319D01*
X134657D01*
Y200864D01*
X134113D01*
Y201408D01*
X133569D01*
Y200864D01*
X134113D01*
Y200319D01*
X133569D01*
Y200864D01*
X133025D01*
Y201408D01*
X132481D01*
Y201952D01*
X134113D01*
Y202496D01*
X133569D01*
Y203040D01*
X134113D01*
Y203584D01*
X133569D01*
Y204128D01*
X134113D01*
Y204672D01*
X133569D01*
Y205216D01*
X133025D01*
Y205760D01*
X132481D01*
Y206304D01*
X133025D01*
Y205760D01*
X133569D01*
Y205216D01*
X134113D01*
Y205760D01*
X133569D01*
Y206304D01*
X134113D01*
Y206848D01*
X133569D01*
Y207392D01*
X134113D01*
Y207936D01*
X133569D01*
Y208480D01*
X134113D01*
Y209025D01*
X133569D01*
Y209569D01*
X134113D01*
Y210113D01*
X133569D01*
Y210657D01*
X134113D01*
Y211201D01*
X133569D01*
Y211745D01*
X134113D01*
Y212289D01*
X133569D01*
Y212833D01*
X134113D01*
Y213377D01*
X133569D01*
Y213921D01*
X133025D01*
Y214465D01*
X132481D01*
Y215009D01*
X138466D01*
Y214465D01*
D02*
G37*
G36*
X119424Y215009D02*
X119967D01*
Y214465D01*
X120512D01*
Y213921D01*
X121056D01*
Y213377D01*
X120512D01*
Y213921D01*
X119967D01*
Y214465D01*
X119424D01*
Y215009D01*
X118879D01*
Y215553D01*
X119424D01*
Y215009D01*
D02*
G37*
G36*
X371325Y214465D02*
X371869D01*
Y213921D01*
X372413D01*
Y213377D01*
X371869D01*
Y213921D01*
X371325D01*
Y214465D01*
X370781D01*
Y213921D01*
X371325D01*
Y213377D01*
X370781D01*
Y213921D01*
X370237D01*
Y214465D01*
X369693D01*
Y213921D01*
X370237D01*
Y213377D01*
X369693D01*
Y213921D01*
X369149D01*
Y214465D01*
X368605D01*
Y213921D01*
X369149D01*
Y213377D01*
X368605D01*
Y212833D01*
X369149D01*
Y212289D01*
X368605D01*
Y211745D01*
X369149D01*
Y211201D01*
X368605D01*
Y210657D01*
X369149D01*
Y210113D01*
X368605D01*
Y209569D01*
X369149D01*
Y209025D01*
X368605D01*
Y208480D01*
X369149D01*
Y207936D01*
X369693D01*
Y207392D01*
X369149D01*
Y207936D01*
X368605D01*
Y207392D01*
X369149D01*
Y206848D01*
X368605D01*
Y206304D01*
X369149D01*
Y205760D01*
X368605D01*
Y205216D01*
X369149D01*
Y204672D01*
X368605D01*
Y204128D01*
X369149D01*
Y203584D01*
X368605D01*
Y203040D01*
X369149D01*
Y202496D01*
X368605D01*
Y201952D01*
X369149D01*
Y201408D01*
X369693D01*
Y200864D01*
X369149D01*
Y201408D01*
X368605D01*
Y200864D01*
X369149D01*
Y200319D01*
X368605D01*
Y200864D01*
X368061D01*
Y201408D01*
X367517D01*
Y200864D01*
X368061D01*
Y200319D01*
X367517D01*
Y200864D01*
X366973D01*
Y201408D01*
X366428D01*
Y200864D01*
X366973D01*
Y200319D01*
X366428D01*
Y200864D01*
X365884D01*
Y201408D01*
X365340D01*
Y201952D01*
X365884D01*
Y202496D01*
X366428D01*
Y203040D01*
X365884D01*
Y203584D01*
X365340D01*
Y204128D01*
X365884D01*
Y203584D01*
X366428D01*
Y203040D01*
X366973D01*
Y203584D01*
X366428D01*
Y204128D01*
X365884D01*
Y204672D01*
X366428D01*
Y204128D01*
X366973D01*
Y204672D01*
X366428D01*
Y205216D01*
X365884D01*
Y205760D01*
X365340D01*
Y206304D01*
X365884D01*
Y205760D01*
X366428D01*
Y205216D01*
X366973D01*
Y205760D01*
X366428D01*
Y206304D01*
X365884D01*
Y206848D01*
X366428D01*
Y206304D01*
X366973D01*
Y206848D01*
X366428D01*
Y207392D01*
X365884D01*
Y207936D01*
X365340D01*
Y208480D01*
X365884D01*
Y207936D01*
X366428D01*
Y207392D01*
X366973D01*
Y207936D01*
X366428D01*
Y208480D01*
X366973D01*
Y209025D01*
X366428D01*
Y209569D01*
X365884D01*
Y210113D01*
X365340D01*
Y210657D01*
X365884D01*
Y210113D01*
X366428D01*
Y209569D01*
X366973D01*
Y210113D01*
X366428D01*
Y210657D01*
X365884D01*
Y211201D01*
X366428D01*
Y210657D01*
X366973D01*
Y211201D01*
X366428D01*
Y211745D01*
X365884D01*
Y212289D01*
X365340D01*
Y212833D01*
X365884D01*
Y212289D01*
X366428D01*
Y211745D01*
X366973D01*
Y212289D01*
X366428D01*
Y212833D01*
X365884D01*
Y213377D01*
X365340D01*
Y213921D01*
X364796D01*
Y214465D01*
X364252D01*
Y215009D01*
X364796D01*
Y214465D01*
X365340D01*
Y213921D01*
X365884D01*
Y213377D01*
X366428D01*
Y212833D01*
X366973D01*
Y213377D01*
X366428D01*
Y213921D01*
X365884D01*
Y214465D01*
X365340D01*
Y215009D01*
X371325D01*
Y214465D01*
D02*
G37*
G36*
X315830D02*
X316375D01*
Y213921D01*
X316919D01*
Y213377D01*
X317463D01*
Y212833D01*
X318007D01*
Y212289D01*
X318551D01*
Y211745D01*
X319095D01*
Y211201D01*
X318551D01*
Y210657D01*
X319095D01*
Y210113D01*
X319639D01*
Y209569D01*
X320183D01*
Y209025D01*
X319639D01*
Y208480D01*
X320183D01*
Y207936D01*
X319639D01*
Y207392D01*
X320183D01*
Y206848D01*
X319639D01*
Y206304D01*
X320183D01*
Y205760D01*
X319639D01*
Y206304D01*
X319095D01*
Y206848D01*
X318551D01*
Y206304D01*
X319095D01*
Y205760D01*
X318551D01*
Y205216D01*
X319095D01*
Y204672D01*
X318551D01*
Y204128D01*
X319095D01*
Y203584D01*
X318551D01*
Y204128D01*
X318007D01*
Y204672D01*
X317463D01*
Y204128D01*
X318007D01*
Y203584D01*
X317463D01*
Y203040D01*
X318007D01*
Y202496D01*
X317463D01*
Y203040D01*
X316919D01*
Y203584D01*
X316375D01*
Y203040D01*
X316919D01*
Y202496D01*
X316375D01*
Y201952D01*
X316919D01*
Y201408D01*
X316375D01*
Y201952D01*
X315830D01*
Y202496D01*
X315286D01*
Y201952D01*
X315830D01*
Y201408D01*
X315286D01*
Y201952D01*
X314742D01*
Y202496D01*
X314198D01*
Y203040D01*
X314742D01*
Y203584D01*
X315286D01*
Y204128D01*
X315830D01*
Y204672D01*
X315286D01*
Y205216D01*
X315830D01*
Y204672D01*
X316375D01*
Y205216D01*
X315830D01*
Y205760D01*
X315286D01*
Y206304D01*
X315830D01*
Y205760D01*
X316375D01*
Y205216D01*
X316919D01*
Y205760D01*
X316375D01*
Y206304D01*
X316919D01*
Y206848D01*
X316375D01*
Y207392D01*
X316919D01*
Y207936D01*
X316375D01*
Y208480D01*
X316919D01*
Y209025D01*
X316375D01*
Y209569D01*
X315830D01*
Y210113D01*
X315286D01*
Y210657D01*
X315830D01*
Y210113D01*
X316375D01*
Y209569D01*
X316919D01*
Y210113D01*
X316375D01*
Y210657D01*
X315830D01*
Y211201D01*
X315286D01*
Y211745D01*
X315830D01*
Y211201D01*
X316375D01*
Y210657D01*
X316919D01*
Y211201D01*
X316375D01*
Y211745D01*
X315830D01*
Y212289D01*
X315286D01*
Y212833D01*
X314742D01*
Y213377D01*
X314198D01*
Y213921D01*
X313654D01*
Y214465D01*
X313110D01*
Y215009D01*
X314742D01*
Y214465D01*
X315286D01*
Y213921D01*
X315830D01*
Y213377D01*
X316375D01*
Y212833D01*
X316919D01*
Y213377D01*
X316375D01*
Y213921D01*
X315830D01*
Y214465D01*
X315286D01*
Y215009D01*
X315830D01*
Y214465D01*
D02*
G37*
G36*
X358268D02*
X358811D01*
Y213921D01*
X359356D01*
Y213377D01*
X358811D01*
Y212833D01*
X359356D01*
Y212289D01*
X358811D01*
Y212833D01*
X358268D01*
Y213377D01*
X357723D01*
Y213921D01*
X357179D01*
Y214465D01*
X356635D01*
Y213921D01*
X357179D01*
Y213377D01*
X356635D01*
Y213921D01*
X356091D01*
Y214465D01*
X355547D01*
Y213921D01*
X356091D01*
Y213377D01*
X355547D01*
Y213921D01*
X355003D01*
Y214465D01*
X354459D01*
Y215009D01*
X358268D01*
Y214465D01*
D02*
G37*
G36*
X223340D02*
X222796D01*
Y213921D01*
X223340D01*
Y213377D01*
X223884D01*
Y212833D01*
X224428D01*
Y212289D01*
X223884D01*
Y211745D01*
X224428D01*
Y211201D01*
X224972D01*
Y210657D01*
X225516D01*
Y210113D01*
X224972D01*
Y209569D01*
X225516D01*
Y209025D01*
X226060D01*
Y208480D01*
X226604D01*
Y207936D01*
X226060D01*
Y207392D01*
X226604D01*
Y206848D01*
X227148D01*
Y206304D01*
X227692D01*
Y205760D01*
X227148D01*
Y205216D01*
X227692D01*
Y204672D01*
X228236D01*
Y204128D01*
X228780D01*
Y203584D01*
X229324D01*
Y203040D01*
X229869D01*
Y202496D01*
X229324D01*
Y203040D01*
X228780D01*
Y203584D01*
X228236D01*
Y203040D01*
X228780D01*
Y202496D01*
X229324D01*
Y201952D01*
X229869D01*
Y201408D01*
X230413D01*
Y200864D01*
X230956D01*
Y200319D01*
X230413D01*
Y200864D01*
X229869D01*
Y201408D01*
X229324D01*
Y200864D01*
X229869D01*
Y200319D01*
X229324D01*
Y200864D01*
X228780D01*
Y201408D01*
X228236D01*
Y200864D01*
X228780D01*
Y200319D01*
X228236D01*
Y200864D01*
X227692D01*
Y201408D01*
X227148D01*
Y200864D01*
X227692D01*
Y200319D01*
X227148D01*
Y200864D01*
X226604D01*
Y201408D01*
X226060D01*
Y201952D01*
X226604D01*
Y202496D01*
X226060D01*
Y203040D01*
X226604D01*
Y203584D01*
X226060D01*
Y204128D01*
X225516D01*
Y204672D01*
X224972D01*
Y205216D01*
X224428D01*
Y205760D01*
X223884D01*
Y206304D01*
X224428D01*
Y206848D01*
X223884D01*
Y207392D01*
X224428D01*
Y207936D01*
X223884D01*
Y208480D01*
X223340D01*
Y209025D01*
X222796D01*
Y209569D01*
X222251D01*
Y210113D01*
X221707D01*
Y210657D01*
X222251D01*
Y211201D01*
X220619D01*
Y211745D01*
X220075D01*
Y212289D01*
X219531D01*
Y212833D01*
X220075D01*
Y212289D01*
X220619D01*
Y211745D01*
X221163D01*
Y212289D01*
X220619D01*
Y212833D01*
X221163D01*
Y213377D01*
X220619D01*
Y213921D01*
X221163D01*
Y214465D01*
X221707D01*
Y215009D01*
X223340D01*
Y214465D01*
D02*
G37*
G36*
X262512Y215553D02*
X263056D01*
Y215009D01*
X264688D01*
Y214465D01*
X265233D01*
Y215009D01*
X265777D01*
Y214465D01*
X266321D01*
Y213921D01*
X266865D01*
Y213377D01*
X266321D01*
Y212833D01*
X266865D01*
Y212289D01*
X266321D01*
Y211745D01*
X266865D01*
Y211201D01*
X266321D01*
Y211745D01*
X265777D01*
Y212289D01*
X265233D01*
Y212833D01*
X264688D01*
Y213377D01*
X264144D01*
Y213921D01*
X263600D01*
Y214465D01*
X263056D01*
Y215009D01*
X262512D01*
Y215553D01*
X261968D01*
Y216097D01*
X262512D01*
Y215553D01*
D02*
G37*
G36*
X220075Y211201D02*
X220619D01*
Y210657D01*
X221163D01*
Y210113D01*
X220619D01*
Y209569D01*
X221163D01*
Y209025D01*
X220619D01*
Y209569D01*
X220075D01*
Y209025D01*
X219531D01*
Y208480D01*
X220075D01*
Y207936D01*
X219531D01*
Y207392D01*
X218987D01*
Y207936D01*
X218443D01*
Y207392D01*
X218987D01*
Y206848D01*
X219531D01*
Y206304D01*
X220075D01*
Y205760D01*
X220619D01*
Y205216D01*
X221163D01*
Y204672D01*
X220619D01*
Y205216D01*
X220075D01*
Y205760D01*
X219531D01*
Y206304D01*
X218987D01*
Y206848D01*
X218443D01*
Y206304D01*
X218987D01*
Y205760D01*
X219531D01*
Y205216D01*
X220075D01*
Y204672D01*
X219531D01*
Y205216D01*
X218987D01*
Y205760D01*
X218443D01*
Y205216D01*
X218987D01*
Y204672D01*
X218443D01*
Y205216D01*
X217899D01*
Y205760D01*
X217355D01*
Y206304D01*
X216811D01*
Y206848D01*
X217355D01*
Y206304D01*
X217899D01*
Y206848D01*
X217355D01*
Y207392D01*
X217899D01*
Y207936D01*
X217355D01*
Y208480D01*
X218987D01*
Y209025D01*
X218443D01*
Y209569D01*
X218987D01*
Y210113D01*
X218443D01*
Y210657D01*
X218987D01*
Y210113D01*
X219531D01*
Y210657D01*
X218987D01*
Y211201D01*
X219531D01*
Y210657D01*
X220075D01*
Y211201D01*
X219531D01*
Y211745D01*
X220075D01*
Y211201D01*
D02*
G37*
G36*
X166757D02*
X167301D01*
Y210657D01*
X167845D01*
Y210113D01*
X167301D01*
Y209569D01*
X167845D01*
Y209025D01*
X167301D01*
Y208480D01*
X167845D01*
Y207936D01*
X167301D01*
Y208480D01*
X166757D01*
Y209025D01*
X166213D01*
Y209569D01*
X165669D01*
Y210113D01*
X166213D01*
Y209569D01*
X166757D01*
Y210113D01*
X166213D01*
Y210657D01*
X166757D01*
Y211201D01*
X166213D01*
Y211745D01*
X166757D01*
Y211201D01*
D02*
G37*
G36*
X357179Y210113D02*
X357723D01*
Y209569D01*
X358268D01*
Y209025D01*
X357723D01*
Y209569D01*
X357179D01*
Y210113D01*
X356635D01*
Y210657D01*
X357179D01*
Y210113D01*
D02*
G37*
G36*
X337593Y212289D02*
X338137D01*
Y211745D01*
X338681D01*
Y211201D01*
X338137D01*
Y210657D01*
X338681D01*
Y210113D01*
X338137D01*
Y209569D01*
X338681D01*
Y209025D01*
X338137D01*
Y209569D01*
X337593D01*
Y210113D01*
X337049D01*
Y210657D01*
X337593D01*
Y211201D01*
X337049D01*
Y211745D01*
X337593D01*
Y212289D01*
X337049D01*
Y212833D01*
X337593D01*
Y212289D01*
D02*
G37*
G36*
X202665Y211201D02*
X203209D01*
Y210657D01*
X203753D01*
Y210113D01*
X203209D01*
Y209569D01*
X203753D01*
Y209025D01*
X203209D01*
Y209569D01*
X202665D01*
Y210113D01*
X202121D01*
Y210657D01*
X202665D01*
Y211201D01*
X202121D01*
Y211745D01*
X202665D01*
Y211201D01*
D02*
G37*
G36*
X357179Y209025D02*
X356635D01*
Y208480D01*
X357179D01*
Y207936D01*
X357723D01*
Y207392D01*
X358268D01*
Y206848D01*
X357723D01*
Y207392D01*
X357179D01*
Y207936D01*
X356635D01*
Y207392D01*
X357179D01*
Y206848D01*
X356635D01*
Y207392D01*
X356091D01*
Y207936D01*
X355547D01*
Y207392D01*
X356091D01*
Y206848D01*
X355547D01*
Y207392D01*
X355003D01*
Y207936D01*
X354459D01*
Y208480D01*
X353915D01*
Y209025D01*
X353371D01*
Y209569D01*
X353915D01*
Y209025D01*
X354459D01*
Y208480D01*
X355003D01*
Y209025D01*
X354459D01*
Y209569D01*
X355003D01*
Y209025D01*
X355547D01*
Y208480D01*
X356091D01*
Y209025D01*
X355547D01*
Y209569D01*
X357179D01*
Y209025D01*
D02*
G37*
G36*
X244558Y208480D02*
X245102D01*
Y207936D01*
X244558D01*
Y207392D01*
X245102D01*
Y206848D01*
X245646D01*
Y206304D01*
X246190D01*
Y205760D01*
X246734D01*
Y205216D01*
X247278D01*
Y204672D01*
X247823D01*
Y204128D01*
X248367D01*
Y203584D01*
X248911D01*
Y203040D01*
X249455D01*
Y202496D01*
X249999D01*
Y201952D01*
X251631D01*
Y201408D01*
X251087D01*
Y200864D01*
X251631D01*
Y200319D01*
X251087D01*
Y200864D01*
X250543D01*
Y201408D01*
X249999D01*
Y200864D01*
X250543D01*
Y200319D01*
X249999D01*
Y200864D01*
X249455D01*
Y201408D01*
X248911D01*
Y200864D01*
X249455D01*
Y200319D01*
X248911D01*
Y200864D01*
X248367D01*
Y201408D01*
X247823D01*
Y200864D01*
X247278D01*
Y201408D01*
X246734D01*
Y201952D01*
X247278D01*
Y202496D01*
X245646D01*
Y203040D01*
X245102D01*
Y203584D01*
X244558D01*
Y204128D01*
X245102D01*
Y204672D01*
X244558D01*
Y205216D01*
X244014D01*
Y205760D01*
X243470D01*
Y206304D01*
X242926D01*
Y206848D01*
X242382D01*
Y207392D01*
X241838D01*
Y207936D01*
X241294D01*
Y208480D01*
X242926D01*
Y209025D01*
X243470D01*
Y208480D01*
X244014D01*
Y209025D01*
X244558D01*
Y208480D01*
D02*
G37*
G36*
X153700Y210113D02*
X154244D01*
Y209569D01*
X154788D01*
Y209025D01*
X155332D01*
Y208480D01*
X155876D01*
Y207936D01*
X155332D01*
Y207392D01*
X155876D01*
Y206848D01*
X155332D01*
Y207392D01*
X154788D01*
Y207936D01*
X154244D01*
Y208480D01*
X153700D01*
Y209025D01*
X153155D01*
Y209569D01*
X153700D01*
Y209025D01*
X154244D01*
Y208480D01*
X154788D01*
Y209025D01*
X154244D01*
Y209569D01*
X153700D01*
Y210113D01*
X153155D01*
Y210657D01*
X153700D01*
Y210113D01*
D02*
G37*
G36*
X336505D02*
X337049D01*
Y209569D01*
X337593D01*
Y209025D01*
X337049D01*
Y208480D01*
X337593D01*
Y207936D01*
X337049D01*
Y208480D01*
X336505D01*
Y209025D01*
X335961D01*
Y209569D01*
X336505D01*
Y210113D01*
X335961D01*
Y210657D01*
X336505D01*
Y210113D01*
D02*
G37*
G36*
X189608Y211201D02*
X190152D01*
Y210657D01*
X190696D01*
Y210113D01*
X190152D01*
Y209569D01*
X190696D01*
Y209025D01*
X191240D01*
Y208480D01*
X191784D01*
Y207936D01*
X191240D01*
Y208480D01*
X190696D01*
Y209025D01*
X190152D01*
Y209569D01*
X189608D01*
Y210113D01*
X189064D01*
Y210657D01*
X189608D01*
Y211201D01*
X189064D01*
Y211745D01*
X189608D01*
Y211201D01*
D02*
G37*
G36*
X140642Y209025D02*
X141186D01*
Y208480D01*
X141730D01*
Y207936D01*
X141186D01*
Y207392D01*
X141730D01*
Y206848D01*
X141186D01*
Y206304D01*
X142818D01*
Y205760D01*
X143362D01*
Y205216D01*
X143906D01*
Y204672D01*
X143362D01*
Y204128D01*
X144994D01*
Y203584D01*
X144450D01*
Y203040D01*
X146083D01*
Y202496D01*
X146627D01*
Y201952D01*
X147171D01*
Y201408D01*
X147715D01*
Y200864D01*
X148259D01*
Y200319D01*
X147715D01*
Y200864D01*
X147171D01*
Y201408D01*
X146627D01*
Y200864D01*
X147171D01*
Y200319D01*
X146627D01*
Y200864D01*
X146083D01*
Y201408D01*
X145539D01*
Y200864D01*
X146083D01*
Y200319D01*
X145539D01*
Y200864D01*
X144994D01*
Y201408D01*
X144450D01*
Y200864D01*
X144994D01*
Y200319D01*
X144450D01*
Y200864D01*
X143906D01*
Y201408D01*
X143362D01*
Y201952D01*
X142818D01*
Y202496D01*
X142274D01*
Y203040D01*
X141730D01*
Y203584D01*
X141186D01*
Y204128D01*
X140642D01*
Y204672D01*
X140098D01*
Y205216D01*
X139554D01*
Y205760D01*
X139010D01*
Y206304D01*
X139554D01*
Y206848D01*
X139010D01*
Y207392D01*
X138466D01*
Y207936D01*
X137922D01*
Y208480D01*
X138466D01*
Y207936D01*
X139010D01*
Y208480D01*
X140642D01*
Y209025D01*
X140098D01*
Y209569D01*
X140642D01*
Y209025D01*
D02*
G37*
G36*
X336505Y207936D02*
X337049D01*
Y207392D01*
X336505D01*
Y207936D01*
X335961D01*
Y208480D01*
X336505D01*
Y207936D01*
D02*
G37*
G36*
X202121Y209569D02*
X202665D01*
Y209025D01*
X202121D01*
Y208480D01*
X202665D01*
Y207936D01*
X202121D01*
Y207392D01*
X201577D01*
Y207936D01*
X201033D01*
Y208480D01*
X201577D01*
Y209025D01*
X201033D01*
Y209569D01*
X201577D01*
Y210113D01*
X202121D01*
Y209569D01*
D02*
G37*
G36*
X372957Y208480D02*
X373501D01*
Y207936D01*
X374045D01*
Y207392D01*
X374589D01*
Y206848D01*
X374045D01*
Y207392D01*
X373501D01*
Y207936D01*
X372957D01*
Y207392D01*
X373501D01*
Y206848D01*
X374045D01*
Y206304D01*
X374589D01*
Y205760D01*
X375133D01*
Y205216D01*
X375677D01*
Y204672D01*
X376222D01*
Y204128D01*
X376766D01*
Y203584D01*
X377310D01*
Y203040D01*
X377854D01*
Y202496D01*
X378398D01*
Y201952D01*
X380030D01*
Y201408D01*
X380574D01*
Y200864D01*
X381118D01*
Y200319D01*
X380574D01*
Y200864D01*
X380030D01*
Y201408D01*
X379486D01*
Y200864D01*
X380030D01*
Y200319D01*
X379486D01*
Y200864D01*
X378942D01*
Y201408D01*
X378398D01*
Y200864D01*
X378942D01*
Y200319D01*
X378398D01*
Y200864D01*
X377854D01*
Y201408D01*
X377310D01*
Y200864D01*
X377854D01*
Y200319D01*
X377310D01*
Y200864D01*
X376766D01*
Y201408D01*
X376222D01*
Y201952D01*
X375677D01*
Y202496D01*
X375133D01*
Y203040D01*
X374589D01*
Y203584D01*
X374045D01*
Y204128D01*
X373501D01*
Y204672D01*
X372957D01*
Y205216D01*
X372413D01*
Y205760D01*
X371869D01*
Y206304D01*
X371325D01*
Y206848D01*
X370781D01*
Y207392D01*
X370237D01*
Y207936D01*
X369693D01*
Y208480D01*
X372413D01*
Y209025D01*
X372957D01*
Y208480D01*
D02*
G37*
G36*
X351739Y209025D02*
X352283D01*
Y208480D01*
X352827D01*
Y207936D01*
X353371D01*
Y207392D01*
X353915D01*
Y206848D01*
X353371D01*
Y207392D01*
X352827D01*
Y207936D01*
X352283D01*
Y208480D01*
X351739D01*
Y209025D01*
X351195D01*
Y209569D01*
X351739D01*
Y209025D01*
D02*
G37*
G36*
X165669D02*
X166213D01*
Y208480D01*
X166757D01*
Y207936D01*
X166213D01*
Y207392D01*
X166757D01*
Y206848D01*
X166213D01*
Y207392D01*
X165669D01*
Y206848D01*
X165125D01*
Y206304D01*
X165669D01*
Y205760D01*
X165125D01*
Y205216D01*
X164581D01*
Y205760D01*
X164037D01*
Y206304D01*
X164581D01*
Y206848D01*
X164037D01*
Y207392D01*
X164581D01*
Y207936D01*
X165125D01*
Y208480D01*
X165669D01*
Y209025D01*
X165125D01*
Y209569D01*
X165669D01*
Y209025D01*
D02*
G37*
G36*
X153700Y207936D02*
X154244D01*
Y207392D01*
X154788D01*
Y206848D01*
X155332D01*
Y206304D01*
X155876D01*
Y205760D01*
X155332D01*
Y205216D01*
X155876D01*
Y204672D01*
X155332D01*
Y205216D01*
X154788D01*
Y205760D01*
X154244D01*
Y206304D01*
X153700D01*
Y206848D01*
X153155D01*
Y207392D01*
X153700D01*
Y206848D01*
X154244D01*
Y206304D01*
X154788D01*
Y206848D01*
X154244D01*
Y207392D01*
X153700D01*
Y207936D01*
X153155D01*
Y208480D01*
X153700D01*
Y207936D01*
D02*
G37*
G36*
X189608Y209025D02*
X190152D01*
Y208480D01*
X190696D01*
Y207936D01*
X190152D01*
Y207392D01*
X190696D01*
Y206848D01*
X191240D01*
Y206304D01*
X191784D01*
Y205760D01*
X191240D01*
Y206304D01*
X190696D01*
Y206848D01*
X190152D01*
Y207392D01*
X189608D01*
Y207936D01*
X189064D01*
Y208480D01*
X189608D01*
Y209025D01*
X189064D01*
Y209569D01*
X189608D01*
Y209025D01*
D02*
G37*
G36*
X335417Y207936D02*
X335961D01*
Y207392D01*
X336505D01*
Y206848D01*
X335961D01*
Y206304D01*
X336505D01*
Y205760D01*
X335961D01*
Y205216D01*
X335417D01*
Y205760D01*
X334873D01*
Y206304D01*
X335417D01*
Y206848D01*
X334873D01*
Y207392D01*
X335417D01*
Y207936D01*
X334873D01*
Y208480D01*
X335417D01*
Y207936D01*
D02*
G37*
G36*
X221163Y205760D02*
X221707D01*
Y205216D01*
X221163D01*
Y205760D01*
X220619D01*
Y206304D01*
X221163D01*
Y205760D01*
D02*
G37*
G36*
X200489Y207936D02*
X201033D01*
Y207392D01*
X201577D01*
Y206848D01*
X201033D01*
Y206304D01*
X201577D01*
Y205760D01*
X201033D01*
Y205216D01*
X200489D01*
Y205760D01*
X199945D01*
Y206304D01*
X200489D01*
Y206848D01*
X199945D01*
Y207392D01*
X200489D01*
Y207936D01*
X199945D01*
Y208480D01*
X200489D01*
Y207936D01*
D02*
G37*
G36*
X189608Y206848D02*
X190152D01*
Y206304D01*
X190696D01*
Y205760D01*
X191240D01*
Y205216D01*
X190696D01*
Y205760D01*
X190152D01*
Y205216D01*
X190696D01*
Y204672D01*
X191240D01*
Y204128D01*
X191784D01*
Y203584D01*
X191240D01*
Y204128D01*
X190696D01*
Y204672D01*
X190152D01*
Y205216D01*
X189608D01*
Y205760D01*
X189064D01*
Y206304D01*
X189608D01*
Y206848D01*
X189064D01*
Y207392D01*
X189608D01*
Y206848D01*
D02*
G37*
G36*
X222251Y205760D02*
X222796D01*
Y205216D01*
X223340D01*
Y204672D01*
X222796D01*
Y205216D01*
X222251D01*
Y205760D01*
X221707D01*
Y206304D01*
X222251D01*
Y205760D01*
D02*
G37*
G36*
X153700D02*
X154244D01*
Y205216D01*
X154788D01*
Y204672D01*
X155332D01*
Y204128D01*
X155876D01*
Y203584D01*
X155332D01*
Y203040D01*
X155876D01*
Y202496D01*
X155332D01*
Y203040D01*
X154788D01*
Y203584D01*
X154244D01*
Y204128D01*
X153700D01*
Y204672D01*
X153155D01*
Y205216D01*
X153700D01*
Y204672D01*
X154244D01*
Y204128D01*
X154788D01*
Y204672D01*
X154244D01*
Y205216D01*
X153700D01*
Y205760D01*
X153155D01*
Y206304D01*
X153700D01*
Y205760D01*
D02*
G37*
G36*
X334329D02*
X334873D01*
Y205216D01*
X335417D01*
Y204672D01*
X334873D01*
Y204128D01*
X335417D01*
Y203584D01*
X334873D01*
Y204128D01*
X334329D01*
Y204672D01*
X333785D01*
Y205216D01*
X334329D01*
Y205760D01*
X333785D01*
Y206304D01*
X334329D01*
Y205760D01*
D02*
G37*
G36*
X255984Y204672D02*
X256528D01*
Y204128D01*
X258160D01*
Y203584D01*
X257616D01*
Y203040D01*
X258160D01*
Y202496D01*
X258704D01*
Y201952D01*
X260336D01*
Y201408D01*
X260880D01*
Y200864D01*
X261424D01*
Y200319D01*
X260880D01*
Y200864D01*
X260336D01*
Y201408D01*
X259792D01*
Y200864D01*
X260336D01*
Y200319D01*
X259792D01*
Y200864D01*
X259248D01*
Y201408D01*
X258704D01*
Y201952D01*
X258160D01*
Y201408D01*
X258704D01*
Y200864D01*
X259248D01*
Y200319D01*
X258704D01*
Y200864D01*
X258160D01*
Y201408D01*
X257616D01*
Y200864D01*
X258160D01*
Y200319D01*
X257616D01*
Y200864D01*
X257072D01*
Y201408D01*
X256528D01*
Y201952D01*
X255984D01*
Y202496D01*
X255439D01*
Y203040D01*
X255984D01*
Y202496D01*
X256528D01*
Y201952D01*
X257072D01*
Y202496D01*
X256528D01*
Y203040D01*
X255984D01*
Y203584D01*
X255439D01*
Y204128D01*
X255984D01*
Y203584D01*
X256528D01*
Y204128D01*
X255984D01*
Y204672D01*
X255439D01*
Y205216D01*
X255984D01*
Y204672D01*
D02*
G37*
G36*
X216811Y205760D02*
X217355D01*
Y205216D01*
X217899D01*
Y204672D01*
X217355D01*
Y204128D01*
X217899D01*
Y203584D01*
X217355D01*
Y204128D01*
X216811D01*
Y204672D01*
X216267D01*
Y205216D01*
X216811D01*
Y205760D01*
X216267D01*
Y206304D01*
X216811D01*
Y205760D01*
D02*
G37*
G36*
X117247Y213921D02*
X117791D01*
Y213377D01*
X117247D01*
Y212833D01*
X117791D01*
Y212289D01*
X117247D01*
Y211745D01*
X117791D01*
Y211201D01*
X118335D01*
Y210657D01*
X118879D01*
Y210113D01*
X119424D01*
Y209569D01*
X119967D01*
Y210113D01*
X119424D01*
Y210657D01*
X119967D01*
Y210113D01*
X120512D01*
Y209569D01*
X121056D01*
Y209025D01*
X121600D01*
Y208480D01*
X122144D01*
Y209025D01*
X121600D01*
Y209569D01*
X122144D01*
Y209025D01*
X122688D01*
Y208480D01*
X123232D01*
Y207936D01*
X123776D01*
Y207392D01*
X124320D01*
Y207936D01*
X123776D01*
Y208480D01*
X124320D01*
Y207936D01*
X124864D01*
Y207392D01*
X125408D01*
Y206848D01*
X125952D01*
Y206304D01*
X126496D01*
Y205760D01*
X127040D01*
Y205216D01*
X127584D01*
Y204672D01*
X127040D01*
Y204128D01*
X127584D01*
Y203584D01*
X127040D01*
Y203040D01*
X126496D01*
Y202496D01*
X125952D01*
Y201952D01*
X126496D01*
Y201408D01*
X125952D01*
Y201952D01*
X125408D01*
Y202496D01*
X124864D01*
Y203040D01*
X124320D01*
Y203584D01*
X123776D01*
Y204128D01*
X124320D01*
Y203584D01*
X124864D01*
Y203040D01*
X125408D01*
Y203584D01*
X124864D01*
Y204128D01*
X124320D01*
Y204672D01*
X123776D01*
Y205216D01*
X123232D01*
Y205760D01*
X122688D01*
Y206304D01*
X122144D01*
Y206848D01*
X121600D01*
Y206304D01*
X122144D01*
Y205760D01*
X121600D01*
Y206304D01*
X121056D01*
Y206848D01*
X120512D01*
Y207392D01*
X119967D01*
Y207936D01*
X119424D01*
Y207392D01*
X119967D01*
Y206848D01*
X119424D01*
Y207392D01*
X118879D01*
Y207936D01*
X118335D01*
Y208480D01*
X117791D01*
Y209025D01*
X117247D01*
Y208480D01*
X117791D01*
Y207936D01*
X117247D01*
Y208480D01*
X116703D01*
Y209025D01*
X116159D01*
Y209569D01*
X115615D01*
Y210113D01*
X115071D01*
Y210657D01*
X115615D01*
Y211201D01*
X115071D01*
Y211745D01*
X115615D01*
Y212289D01*
X115071D01*
Y212833D01*
X115615D01*
Y213377D01*
X116159D01*
Y213921D01*
X116703D01*
Y214465D01*
X117247D01*
Y213921D01*
D02*
G37*
G36*
X359356Y203584D02*
X359900D01*
Y203040D01*
X360444D01*
Y202496D01*
X359900D01*
Y203040D01*
X359356D01*
Y203584D01*
X358811D01*
Y204128D01*
X359356D01*
Y203584D01*
D02*
G37*
G36*
X358811Y203040D02*
X359356D01*
Y202496D01*
X358811D01*
Y201952D01*
X359356D01*
Y201408D01*
X358811D01*
Y200864D01*
X358268D01*
Y201408D01*
X357723D01*
Y200864D01*
X358268D01*
Y200319D01*
X357723D01*
Y200864D01*
X357179D01*
Y201408D01*
X356635D01*
Y201952D01*
X357179D01*
Y202496D01*
X357723D01*
Y201952D01*
X358268D01*
Y202496D01*
X357723D01*
Y203040D01*
X358268D01*
Y203584D01*
X358811D01*
Y203040D01*
D02*
G37*
G36*
X216267Y204128D02*
X216811D01*
Y203584D01*
X216267D01*
Y203040D01*
X216811D01*
Y202496D01*
X216267D01*
Y201952D01*
X216811D01*
Y201408D01*
X217355D01*
Y200864D01*
X217899D01*
Y200319D01*
X217355D01*
Y200864D01*
X216811D01*
Y201408D01*
X216267D01*
Y200864D01*
X216811D01*
Y200319D01*
X216267D01*
Y200864D01*
X215723D01*
Y201408D01*
X215179D01*
Y200864D01*
X215723D01*
Y200319D01*
X215179D01*
Y200864D01*
X214635D01*
Y201408D01*
X214091D01*
Y201952D01*
X214635D01*
Y202496D01*
X214091D01*
Y203040D01*
X214635D01*
Y202496D01*
X215179D01*
Y201952D01*
X215723D01*
Y202496D01*
X215179D01*
Y203040D01*
X215723D01*
Y203584D01*
X215179D01*
Y204128D01*
X215723D01*
Y204672D01*
X216267D01*
Y204128D01*
D02*
G37*
G36*
X189608Y204672D02*
X190152D01*
Y204128D01*
X190696D01*
Y203584D01*
X190152D01*
Y203040D01*
X190696D01*
Y202496D01*
X191240D01*
Y201952D01*
X191784D01*
Y201408D01*
X192328D01*
Y200864D01*
X191784D01*
Y201408D01*
X191240D01*
Y200864D01*
X190696D01*
Y201408D01*
X190152D01*
Y200864D01*
X190696D01*
Y200319D01*
X190152D01*
Y200864D01*
X189608D01*
Y201408D01*
X189064D01*
Y201952D01*
X189608D01*
Y202496D01*
X189064D01*
Y203040D01*
X189608D01*
Y202496D01*
X190152D01*
Y201952D01*
X190696D01*
Y202496D01*
X190152D01*
Y203040D01*
X189608D01*
Y203584D01*
X189064D01*
Y204128D01*
X189608D01*
Y204672D01*
X189064D01*
Y205216D01*
X189608D01*
Y204672D01*
D02*
G37*
G36*
X153700Y203584D02*
X154244D01*
Y203040D01*
X154788D01*
Y202496D01*
X155332D01*
Y201952D01*
X155876D01*
Y201408D01*
X156420D01*
Y200864D01*
X155876D01*
Y201408D01*
X155332D01*
Y200864D01*
X155876D01*
Y200319D01*
X155332D01*
Y200864D01*
X154788D01*
Y201408D01*
X154244D01*
Y200864D01*
X154788D01*
Y200319D01*
X154244D01*
Y200864D01*
X153700D01*
Y201408D01*
X153155D01*
Y201952D01*
X153700D01*
Y202496D01*
X153155D01*
Y203040D01*
X153700D01*
Y202496D01*
X154244D01*
Y201952D01*
X154788D01*
Y202496D01*
X154244D01*
Y203040D01*
X153700D01*
Y203584D01*
X153155D01*
Y204128D01*
X153700D01*
Y203584D01*
D02*
G37*
G36*
X124320Y202496D02*
X124864D01*
Y201952D01*
X125408D01*
Y201408D01*
X124864D01*
Y200864D01*
X124320D01*
Y201408D01*
X123776D01*
Y200864D01*
X124320D01*
Y200319D01*
X123776D01*
Y200864D01*
X123232D01*
Y201408D01*
X122688D01*
Y200864D01*
X123232D01*
Y200319D01*
X122688D01*
Y200864D01*
X122144D01*
Y201408D01*
X121600D01*
Y201952D01*
X123232D01*
Y202496D01*
X123776D01*
Y201952D01*
X124320D01*
Y202496D01*
X123776D01*
Y203040D01*
X124320D01*
Y202496D01*
D02*
G37*
G36*
X264688D02*
X265233D01*
Y201952D01*
X265777D01*
Y201408D01*
X265233D01*
Y200864D01*
X264688D01*
Y201408D01*
X264144D01*
Y200864D01*
X264688D01*
Y200319D01*
X264144D01*
Y200864D01*
X263600D01*
Y201408D01*
X263056D01*
Y201952D01*
X264688D01*
Y202496D01*
X264144D01*
Y203040D01*
X264688D01*
Y202496D01*
D02*
G37*
G36*
X225516Y201408D02*
X226060D01*
Y200864D01*
X225516D01*
Y201408D01*
X224972D01*
Y201952D01*
X225516D01*
Y201408D01*
D02*
G37*
G36*
X364796D02*
X365340D01*
Y200864D01*
X365884D01*
Y200319D01*
X365340D01*
Y200864D01*
X364796D01*
Y201408D01*
X364252D01*
Y201952D01*
X364796D01*
Y201408D01*
D02*
G37*
G36*
X356091D02*
X356635D01*
Y200864D01*
X357179D01*
Y200319D01*
X356635D01*
Y200864D01*
X356091D01*
Y201408D01*
X355547D01*
Y200864D01*
X356091D01*
Y200319D01*
X355547D01*
Y200864D01*
X355003D01*
Y201408D01*
X354459D01*
Y201952D01*
X356091D01*
Y201408D01*
D02*
G37*
G36*
X353915D02*
X354459D01*
Y200864D01*
X355003D01*
Y200319D01*
X354459D01*
Y200864D01*
X353915D01*
Y201408D01*
X353371D01*
Y201952D01*
X353915D01*
Y201408D01*
D02*
G37*
G36*
X352827D02*
X353371D01*
Y200864D01*
X353915D01*
Y200319D01*
X353371D01*
Y200864D01*
X352827D01*
Y201408D01*
X352283D01*
Y201952D01*
X352827D01*
Y201408D01*
D02*
G37*
G36*
X346298D02*
X346842D01*
Y200864D01*
X347386D01*
Y200319D01*
X346842D01*
Y200864D01*
X346298D01*
Y201408D01*
X345754D01*
Y201952D01*
X346298D01*
Y201408D01*
D02*
G37*
G36*
X314198Y201952D02*
X314742D01*
Y201408D01*
X314198D01*
Y200864D01*
X314742D01*
Y200319D01*
X314198D01*
Y200864D01*
X313654D01*
Y201408D01*
X313110D01*
Y201952D01*
X313654D01*
Y202496D01*
X314198D01*
Y201952D01*
D02*
G37*
G36*
X312566Y201408D02*
X313110D01*
Y200864D01*
X313654D01*
Y200319D01*
X313110D01*
Y200864D01*
X312566D01*
Y201408D01*
X312022D01*
Y201952D01*
X312566D01*
Y201408D01*
D02*
G37*
G36*
X311478D02*
X312022D01*
Y200864D01*
X312566D01*
Y200319D01*
X312022D01*
Y200864D01*
X311478D01*
Y201408D01*
X310934D01*
Y201952D01*
X311478D01*
Y201408D01*
D02*
G37*
G36*
X298421D02*
X298965D01*
Y200864D01*
X299509D01*
Y200319D01*
X298965D01*
Y200864D01*
X298421D01*
Y201408D01*
X297876D01*
Y201952D01*
X298421D01*
Y201408D01*
D02*
G37*
G36*
X283187D02*
X283731D01*
Y200864D01*
X284275D01*
Y200319D01*
X283731D01*
Y200864D01*
X283187D01*
Y201408D01*
X282643D01*
Y201952D01*
X283187D01*
Y201408D01*
D02*
G37*
G36*
X262512D02*
X263056D01*
Y200864D01*
X263600D01*
Y200319D01*
X263056D01*
Y200864D01*
X262512D01*
Y201408D01*
X261968D01*
Y201952D01*
X262512D01*
Y201408D01*
D02*
G37*
G36*
X261424D02*
X261968D01*
Y200864D01*
X262512D01*
Y200319D01*
X261968D01*
Y200864D01*
X261424D01*
Y201408D01*
X260880D01*
Y201952D01*
X261424D01*
Y201408D01*
D02*
G37*
G36*
X236397D02*
X236941D01*
Y200864D01*
X237485D01*
Y200319D01*
X236941D01*
Y200864D01*
X236397D01*
Y201408D01*
X235853D01*
Y201952D01*
X236397D01*
Y201408D01*
D02*
G37*
G36*
X235309D02*
X235853D01*
Y200864D01*
X236397D01*
Y200319D01*
X235853D01*
Y200864D01*
X235309D01*
Y201408D01*
X234765D01*
Y201952D01*
X235309D01*
Y201408D01*
D02*
G37*
G36*
X230956D02*
X231501D01*
Y200864D01*
X232045D01*
Y200319D01*
X231501D01*
Y200864D01*
X230956D01*
Y201408D01*
X230413D01*
Y201952D01*
X230956D01*
Y201408D01*
D02*
G37*
G36*
X217899D02*
X218443D01*
Y200864D01*
X218987D01*
Y200319D01*
X218443D01*
Y200864D01*
X217899D01*
Y201408D01*
X217355D01*
Y201952D01*
X217899D01*
Y201408D01*
D02*
G37*
G36*
X213547D02*
X214091D01*
Y200864D01*
X214635D01*
Y200319D01*
X214091D01*
Y200864D01*
X213547D01*
Y201408D01*
X213002D01*
Y201952D01*
X213547D01*
Y201408D01*
D02*
G37*
G36*
X203753D02*
X204297D01*
Y200864D01*
X204841D01*
Y200319D01*
X204297D01*
Y200864D01*
X203753D01*
Y201408D01*
X203209D01*
Y201952D01*
X203753D01*
Y201408D01*
D02*
G37*
G36*
X202665D02*
X203209D01*
Y200864D01*
X203753D01*
Y200319D01*
X203209D01*
Y200864D01*
X202665D01*
Y201408D01*
X202121D01*
Y201952D01*
X202665D01*
Y201408D01*
D02*
G37*
G36*
X188520D02*
X189064D01*
Y200864D01*
X189608D01*
Y200319D01*
X189064D01*
Y200864D01*
X188520D01*
Y201408D01*
X187976D01*
Y201952D01*
X188520D01*
Y201408D01*
D02*
G37*
G36*
X167845D02*
X168389D01*
Y200864D01*
X168933D01*
Y200319D01*
X168389D01*
Y200864D01*
X167845D01*
Y201408D01*
X167301D01*
Y201952D01*
X167845D01*
Y201408D01*
D02*
G37*
G36*
X152611D02*
X153155D01*
Y200864D01*
X153700D01*
Y200319D01*
X153155D01*
Y200864D01*
X152611D01*
Y201408D01*
X152067D01*
Y201952D01*
X152611D01*
Y201408D01*
D02*
G37*
G36*
X148259D02*
X148803D01*
Y200864D01*
X149347D01*
Y200319D01*
X148803D01*
Y200864D01*
X148259D01*
Y201408D01*
X147715D01*
Y201952D01*
X148259D01*
Y201408D01*
D02*
G37*
G36*
X121056D02*
X121600D01*
Y200864D01*
X122144D01*
Y200319D01*
X121600D01*
Y200864D01*
X121056D01*
Y201408D01*
X120512D01*
Y200864D01*
X121056D01*
Y200319D01*
X120512D01*
Y200864D01*
X119967D01*
Y201408D01*
X119424D01*
Y201952D01*
X121056D01*
Y201408D01*
D02*
G37*
G36*
X115615Y204672D02*
X116159D01*
Y204128D01*
X116703D01*
Y203584D01*
X117247D01*
Y203040D01*
X117791D01*
Y202496D01*
X117247D01*
Y201952D01*
X118879D01*
Y201408D01*
X119424D01*
Y200864D01*
X119967D01*
Y200319D01*
X119424D01*
Y200864D01*
X118879D01*
Y201408D01*
X118335D01*
Y200864D01*
X118879D01*
Y200319D01*
X118335D01*
Y200864D01*
X117791D01*
Y201408D01*
X117247D01*
Y201952D01*
X116703D01*
Y201408D01*
X116159D01*
Y200864D01*
X116703D01*
Y200319D01*
X116159D01*
Y200864D01*
X115615D01*
Y201408D01*
X115071D01*
Y201952D01*
X115615D01*
Y202496D01*
X115071D01*
Y203040D01*
X115615D01*
Y203584D01*
X115071D01*
Y204128D01*
X115615D01*
Y204672D01*
X115071D01*
Y205216D01*
X115615D01*
Y204672D01*
D02*
G37*
%LPC*%
G36*
X276658Y324366D02*
X276114D01*
Y323822D01*
X276658D01*
Y324366D01*
D02*
G37*
G36*
Y322190D02*
X276114D01*
Y321646D01*
X276658D01*
Y322190D01*
D02*
G37*
G36*
X274482D02*
X273938D01*
Y321646D01*
X274482D01*
Y322190D01*
D02*
G37*
G36*
X276658Y320014D02*
X276114D01*
Y319470D01*
X276658D01*
Y320014D01*
D02*
G37*
G36*
Y317837D02*
X276114D01*
Y317293D01*
X276658D01*
Y317837D01*
D02*
G37*
G36*
X274482D02*
X273938D01*
Y317293D01*
X274482D01*
Y317837D01*
D02*
G37*
G36*
X276658Y315661D02*
X276114D01*
Y315117D01*
X276658D01*
Y315661D01*
D02*
G37*
G36*
Y313485D02*
X276114D01*
Y312941D01*
X276658D01*
Y313485D01*
D02*
G37*
G36*
X274482D02*
X273938D01*
Y312941D01*
X274482D01*
Y313485D01*
D02*
G37*
G36*
X276658Y311309D02*
X276114D01*
Y310765D01*
X276658D01*
Y311309D01*
D02*
G37*
G36*
Y309132D02*
X276114D01*
Y308588D01*
X276658D01*
Y309132D01*
D02*
G37*
G36*
X274482D02*
X273938D01*
Y308588D01*
X274482D01*
Y309132D01*
D02*
G37*
G36*
X276658Y306956D02*
X276114D01*
Y306412D01*
X276658D01*
Y306956D01*
D02*
G37*
G36*
Y304780D02*
X276114D01*
Y304236D01*
X276658D01*
Y304780D01*
D02*
G37*
G36*
X274482D02*
X273938D01*
Y304236D01*
X274482D01*
Y304780D01*
D02*
G37*
G36*
X253807Y303692D02*
X253263D01*
Y303148D01*
X253807D01*
Y303692D01*
D02*
G37*
G36*
X276658Y302603D02*
X276114D01*
Y302059D01*
X276658D01*
Y302603D01*
D02*
G37*
G36*
X257072D02*
X256528D01*
Y302059D01*
X257072D01*
Y302603D01*
D02*
G37*
G36*
X250543D02*
X249999D01*
Y302059D01*
X250543D01*
Y302603D01*
D02*
G37*
G36*
X248367D02*
X247823D01*
Y302059D01*
X248367D01*
Y302603D01*
D02*
G37*
G36*
X246190D02*
X245646D01*
Y302059D01*
X246190D01*
Y302603D01*
D02*
G37*
G36*
X244014D02*
X243470D01*
Y302059D01*
X244014D01*
Y302603D01*
D02*
G37*
G36*
X241838D02*
X241294D01*
Y302059D01*
X241838D01*
Y302603D01*
D02*
G37*
G36*
X247278D02*
X246734D01*
Y302059D01*
X247278D01*
Y301515D01*
X245646D01*
Y302059D01*
X245102D01*
Y301515D01*
X242382D01*
Y300971D01*
X241838D01*
Y301515D01*
X241294D01*
Y300971D01*
X240750D01*
Y301515D01*
X240206D01*
Y300971D01*
X240750D01*
Y300427D01*
X240206D01*
Y300971D01*
X239662D01*
Y301515D01*
X239118D01*
Y300971D01*
X239662D01*
Y300427D01*
X239118D01*
Y300971D01*
X238573D01*
Y301515D01*
X238029D01*
Y300971D01*
X238573D01*
Y300427D01*
X236941D01*
Y299883D01*
X237485D01*
Y299339D01*
X236941D01*
Y299883D01*
X236397D01*
Y300427D01*
X235853D01*
Y299883D01*
X236397D01*
Y299339D01*
X234765D01*
Y298795D01*
X234221D01*
Y299339D01*
X233677D01*
Y298795D01*
X234221D01*
Y298251D01*
X233677D01*
Y298795D01*
X233133D01*
Y298251D01*
X232589D01*
Y297707D01*
X233133D01*
Y297163D01*
X232589D01*
Y297707D01*
X232045D01*
Y298251D01*
X231501D01*
Y297707D01*
X232045D01*
Y297163D01*
X230413D01*
Y296619D01*
X229869D01*
Y296075D01*
X229324D01*
Y295531D01*
X228780D01*
Y296075D01*
X228236D01*
Y295531D01*
X228780D01*
Y294987D01*
X228236D01*
Y294443D01*
X227692D01*
Y294987D01*
X227148D01*
Y294443D01*
X227692D01*
Y293899D01*
X227148D01*
Y293354D01*
X226604D01*
Y293899D01*
X226060D01*
Y293354D01*
X226604D01*
Y292810D01*
X226060D01*
Y292266D01*
X225516D01*
Y292810D01*
X224972D01*
Y292266D01*
X225516D01*
Y291722D01*
X224972D01*
Y291178D01*
X224428D01*
Y291722D01*
X223884D01*
Y291178D01*
X224428D01*
Y290634D01*
X223884D01*
Y290090D01*
X223340D01*
Y289546D01*
X222796D01*
Y289002D01*
X223340D01*
Y288458D01*
X222796D01*
Y287914D01*
X222251D01*
Y287370D01*
X221707D01*
Y286826D01*
X222251D01*
Y286282D01*
X221707D01*
Y285737D01*
X221163D01*
Y286282D01*
X220619D01*
Y285737D01*
X221163D01*
Y285194D01*
X220619D01*
Y284649D01*
X221163D01*
Y284105D01*
X220619D01*
Y283561D01*
X221163D01*
Y283017D01*
X220619D01*
Y283561D01*
X220075D01*
Y283017D01*
X219531D01*
Y282473D01*
X220075D01*
Y281929D01*
X219531D01*
Y281385D01*
X220075D01*
Y280841D01*
X219531D01*
Y280297D01*
X220075D01*
Y279753D01*
X219531D01*
Y280297D01*
X218987D01*
Y279753D01*
X219531D01*
Y279209D01*
X218987D01*
Y279753D01*
X218443D01*
Y279209D01*
X218987D01*
Y278665D01*
X219531D01*
Y278121D01*
X220075D01*
Y277577D01*
X219531D01*
Y278121D01*
X218987D01*
Y278665D01*
X218443D01*
Y278121D01*
X218987D01*
Y277577D01*
X218443D01*
Y277033D01*
X218987D01*
Y276488D01*
X218443D01*
Y275944D01*
X218987D01*
Y275400D01*
X218443D01*
Y274856D01*
X218987D01*
Y274312D01*
X218443D01*
Y273768D01*
X218987D01*
Y273224D01*
X218443D01*
Y272680D01*
X218987D01*
Y272136D01*
X218443D01*
Y271592D01*
X218987D01*
Y271048D01*
X218443D01*
Y270504D01*
X218987D01*
Y269960D01*
X219531D01*
Y269416D01*
X220075D01*
Y268871D01*
X219531D01*
Y269416D01*
X218987D01*
Y269960D01*
X218443D01*
Y269416D01*
X218987D01*
Y268871D01*
X219531D01*
Y268328D01*
Y267783D01*
Y267239D01*
X220075D01*
Y266695D01*
X219531D01*
Y266151D01*
X220075D01*
Y265607D01*
X219531D01*
Y265063D01*
X220075D01*
Y264519D01*
X220619D01*
Y263975D01*
X221163D01*
Y263431D01*
X220619D01*
Y262887D01*
X221163D01*
Y262343D01*
X221707D01*
Y261799D01*
X222251D01*
Y261255D01*
X221707D01*
Y260711D01*
X222251D01*
Y260166D01*
X222796D01*
Y259622D01*
X223340D01*
Y259078D01*
X223884D01*
Y258534D01*
X224428D01*
Y257990D01*
X223884D01*
Y258534D01*
X223340D01*
Y259078D01*
X222796D01*
Y258534D01*
X223340D01*
Y257990D01*
X223884D01*
Y257446D01*
X224428D01*
Y256902D01*
X224972D01*
Y256358D01*
X225516D01*
Y255814D01*
X226060D01*
Y255270D01*
X226604D01*
Y254726D01*
X227148D01*
Y254182D01*
X227692D01*
Y253638D01*
X228236D01*
Y253094D01*
X228780D01*
Y252550D01*
X229324D01*
Y252006D01*
X229869D01*
Y251462D01*
X230413D01*
Y250917D01*
X230956D01*
Y251462D01*
X230413D01*
Y252006D01*
X230956D01*
Y251462D01*
X231501D01*
Y250917D01*
X232045D01*
Y250373D01*
X232589D01*
Y249829D01*
X234221D01*
Y249285D01*
X234765D01*
Y248741D01*
X235309D01*
Y249285D01*
X234765D01*
Y249829D01*
X235309D01*
Y249285D01*
X235853D01*
Y248741D01*
X236397D01*
Y248197D01*
X236941D01*
Y247653D01*
X237485D01*
Y248197D01*
X236941D01*
Y248741D01*
X237485D01*
Y248197D01*
X238029D01*
Y247653D01*
X238573D01*
Y248197D01*
X238029D01*
Y248741D01*
X238573D01*
Y248197D01*
X239118D01*
Y247653D01*
X240750D01*
Y247109D01*
X241294D01*
Y246565D01*
X241838D01*
Y247109D01*
X241294D01*
Y247653D01*
X241838D01*
Y247109D01*
X242382D01*
Y246565D01*
X242926D01*
Y247109D01*
X242382D01*
Y247653D01*
X242926D01*
Y247109D01*
X243470D01*
Y246565D01*
X244014D01*
Y247109D01*
X243470D01*
Y247653D01*
X244014D01*
Y247109D01*
X244558D01*
Y246565D01*
X245102D01*
Y247109D01*
X244558D01*
Y247653D01*
X245102D01*
Y247109D01*
X245646D01*
Y246565D01*
X246190D01*
Y247109D01*
X245646D01*
Y247653D01*
X246190D01*
Y247109D01*
X246734D01*
Y246565D01*
X247278D01*
Y247109D01*
X247823D01*
Y246565D01*
X248367D01*
Y247109D01*
X247823D01*
Y247653D01*
X248367D01*
Y247109D01*
X248911D01*
Y246565D01*
X249455D01*
Y247109D01*
X248911D01*
Y247653D01*
X249455D01*
Y247109D01*
X249999D01*
Y246565D01*
X250543D01*
Y247109D01*
X249999D01*
Y247653D01*
X250543D01*
Y247109D01*
X251087D01*
Y246565D01*
X251631D01*
Y247109D01*
X251087D01*
Y247653D01*
X251631D01*
Y247109D01*
X252175D01*
Y247653D01*
X253807D01*
Y248197D01*
X254351D01*
Y247653D01*
X254895D01*
Y248197D01*
X254351D01*
Y248741D01*
X254895D01*
Y248197D01*
X255439D01*
Y247653D01*
X255984D01*
Y248197D01*
X255439D01*
Y248741D01*
X257072D01*
Y249285D01*
X256528D01*
Y249829D01*
X257072D01*
Y249285D01*
X257616D01*
Y248741D01*
X258160D01*
Y249285D01*
X257616D01*
Y249829D01*
X258160D01*
Y249285D01*
X258704D01*
Y249829D01*
X259248D01*
Y250373D01*
X259792D01*
Y249829D01*
X260336D01*
Y250373D01*
X259792D01*
Y250917D01*
X260336D01*
Y250373D01*
X260880D01*
Y250917D01*
X261424D01*
Y251462D01*
X260880D01*
Y252006D01*
X261424D01*
Y251462D01*
X261968D01*
Y250917D01*
X262512D01*
Y251462D01*
X261968D01*
Y252006D01*
X262512D01*
Y252550D01*
X263056D01*
Y252006D01*
X263600D01*
Y252550D01*
X263056D01*
Y253094D01*
X263600D01*
Y253638D01*
X264144D01*
Y253094D01*
X264688D01*
Y253638D01*
X264144D01*
Y254182D01*
X264688D01*
Y253638D01*
X265233D01*
Y254182D01*
X265777D01*
Y254726D01*
X265233D01*
Y255270D01*
X265777D01*
Y254726D01*
X266321D01*
Y255270D01*
X265777D01*
Y255814D01*
X266321D01*
Y255270D01*
X266865D01*
Y255814D01*
X266321D01*
Y256358D01*
X266865D01*
Y255814D01*
X267409D01*
Y256358D01*
X266865D01*
Y256902D01*
X267409D01*
Y256358D01*
X267953D01*
Y256902D01*
X267409D01*
Y257446D01*
X267953D01*
Y257990D01*
X267409D01*
Y258534D01*
X267953D01*
Y257990D01*
X268497D01*
Y257446D01*
X269041D01*
Y257990D01*
X268497D01*
Y258534D01*
X269041D01*
Y259078D01*
X268497D01*
Y259622D01*
X269041D01*
Y259078D01*
X269585D01*
Y258534D01*
X270129D01*
Y259078D01*
X269585D01*
Y259622D01*
X270129D01*
Y260166D01*
X269585D01*
Y260711D01*
X270129D01*
Y261255D01*
X270673D01*
Y261799D01*
X271217D01*
Y262343D01*
X270673D01*
Y262887D01*
X271217D01*
Y263431D01*
X270673D01*
Y263975D01*
X271217D01*
Y263431D01*
X271761D01*
Y262887D01*
X272305D01*
Y263431D01*
X271761D01*
Y263975D01*
X272305D01*
Y264519D01*
X271761D01*
Y265063D01*
X272305D01*
Y265607D01*
X271761D01*
Y266151D01*
X272305D01*
Y265607D01*
X272849D01*
Y266151D01*
X272305D01*
Y266695D01*
X271761D01*
Y267239D01*
X272305D01*
Y266695D01*
X272849D01*
Y266151D01*
X273393D01*
Y266695D01*
X272849D01*
Y267239D01*
X273393D01*
Y267783D01*
X272849D01*
Y268328D01*
X273393D01*
Y268871D01*
X272849D01*
Y269416D01*
X273393D01*
Y269960D01*
X272849D01*
Y270504D01*
X273393D01*
Y271048D01*
X272849D01*
Y271592D01*
X273393D01*
Y272136D01*
X272849D01*
Y272680D01*
X273393D01*
Y272136D01*
X273938D01*
Y271592D01*
X274482D01*
Y272136D01*
X273938D01*
Y272680D01*
X273393D01*
Y273224D01*
X272849D01*
Y273768D01*
X273393D01*
Y273224D01*
X273938D01*
Y273768D01*
X273393D01*
Y274312D01*
X272849D01*
Y274856D01*
X273393D01*
Y274312D01*
X273938D01*
Y273768D01*
X274482D01*
Y274312D01*
X273938D01*
Y274856D01*
X273393D01*
Y275400D01*
X272849D01*
Y275944D01*
X273393D01*
Y275400D01*
X273938D01*
Y275944D01*
X273393D01*
Y276488D01*
X272849D01*
Y277033D01*
X273393D01*
Y276488D01*
X273938D01*
Y275944D01*
X274482D01*
Y276488D01*
X273938D01*
Y277033D01*
X273393D01*
Y277577D01*
X272849D01*
Y278121D01*
X273393D01*
Y278665D01*
X272849D01*
Y279209D01*
X273393D01*
Y279753D01*
X272849D01*
Y280297D01*
X273393D01*
Y280841D01*
X272849D01*
Y281385D01*
X272305D01*
Y281929D01*
X271761D01*
Y282473D01*
X272305D01*
Y283017D01*
X271761D01*
Y283561D01*
X272305D01*
Y284105D01*
X271761D01*
Y284649D01*
X271217D01*
Y285194D01*
X270673D01*
Y285737D01*
X271217D01*
Y286282D01*
X270673D01*
Y286826D01*
X271217D01*
Y287370D01*
X270673D01*
Y287914D01*
X270129D01*
Y288458D01*
X269585D01*
Y289002D01*
X269041D01*
Y289546D01*
X268497D01*
Y290090D01*
X267953D01*
Y290634D01*
X267409D01*
Y291178D01*
X267953D01*
Y291722D01*
X267409D01*
Y292266D01*
X266865D01*
Y292810D01*
X266321D01*
Y293354D01*
X265777D01*
Y293899D01*
X265233D01*
Y294443D01*
X264688D01*
Y294987D01*
X264144D01*
Y295531D01*
X263600D01*
Y296075D01*
X261968D01*
Y296619D01*
X261424D01*
Y297163D01*
X260880D01*
Y297707D01*
X260336D01*
Y298251D01*
X259792D01*
Y298795D01*
X259248D01*
Y298251D01*
X258704D01*
Y298795D01*
X258160D01*
Y299339D01*
X257616D01*
Y298795D01*
X258160D01*
Y298251D01*
X257616D01*
Y298795D01*
X257072D01*
Y299339D01*
X256528D01*
Y299883D01*
X255984D01*
Y300427D01*
X255439D01*
Y299883D01*
X255984D01*
Y299339D01*
X255439D01*
Y299883D01*
X254895D01*
Y300427D01*
X253263D01*
Y300971D01*
X252719D01*
Y301515D01*
X252175D01*
Y300971D01*
X252719D01*
Y300427D01*
X252175D01*
Y300971D01*
X251631D01*
Y301515D01*
X251087D01*
Y300971D01*
X251631D01*
Y300427D01*
X251087D01*
Y300971D01*
X250543D01*
Y301515D01*
X248911D01*
Y300971D01*
X249455D01*
Y300427D01*
X248911D01*
Y300971D01*
X248367D01*
Y301515D01*
X247823D01*
Y302059D01*
X247278D01*
Y302603D01*
D02*
G37*
G36*
X260336Y301515D02*
X259792D01*
Y300971D01*
X260336D01*
Y301515D01*
D02*
G37*
G36*
X253807D02*
X253263D01*
Y300971D01*
X253807D01*
Y301515D01*
D02*
G37*
G36*
X276658Y300427D02*
X276114D01*
Y299883D01*
X276658D01*
Y300427D01*
D02*
G37*
G36*
X274482D02*
X273938D01*
Y299883D01*
X274482D01*
Y300427D01*
D02*
G37*
G36*
X261424D02*
X260880D01*
Y299883D01*
X261424D01*
Y300427D01*
D02*
G37*
G36*
X257072D02*
X256528D01*
Y299883D01*
X257072D01*
Y300427D01*
D02*
G37*
G36*
X235309D02*
X234765D01*
Y299883D01*
X235309D01*
Y300427D01*
D02*
G37*
G36*
X263600Y299339D02*
X263056D01*
Y298795D01*
X263600D01*
Y299339D01*
D02*
G37*
G36*
X276658Y298251D02*
X276114D01*
Y297707D01*
X276658D01*
Y298251D01*
D02*
G37*
G36*
X274482D02*
X273938D01*
Y297707D01*
X274482D01*
Y298251D01*
D02*
G37*
G36*
X261424D02*
X260880D01*
Y297707D01*
X261424D01*
Y298251D01*
D02*
G37*
G36*
X230956D02*
X230413D01*
Y297707D01*
X230956D01*
Y298251D01*
D02*
G37*
G36*
X262512Y297163D02*
X261968D01*
Y296619D01*
X262512D01*
Y297163D01*
D02*
G37*
G36*
X276658Y296075D02*
X276114D01*
Y295531D01*
X276658D01*
Y296075D01*
D02*
G37*
G36*
X274482D02*
X273938D01*
Y295531D01*
X274482D01*
Y296075D01*
D02*
G37*
G36*
X276658Y293899D02*
X276114D01*
Y293354D01*
X276658D01*
Y293899D01*
D02*
G37*
G36*
X274482D02*
X273938D01*
Y293354D01*
X274482D01*
Y293899D01*
D02*
G37*
G36*
Y291722D02*
X273938D01*
Y291178D01*
X274482D01*
Y291722D01*
D02*
G37*
G36*
X269041Y290634D02*
X268497D01*
Y290090D01*
X269041D01*
Y290634D01*
D02*
G37*
G36*
X276658Y289546D02*
X276114D01*
Y289002D01*
X276658D01*
Y289546D01*
D02*
G37*
G36*
X272305D02*
X271761D01*
Y289002D01*
X272305D01*
Y289546D01*
D02*
G37*
G36*
X270129D02*
X269585D01*
Y289002D01*
X270129D01*
Y289546D01*
D02*
G37*
G36*
X273393Y288458D02*
X272849D01*
Y287914D01*
X273393D01*
Y288458D01*
D02*
G37*
G36*
X276658Y287370D02*
X276114D01*
Y286826D01*
X276658D01*
Y287370D01*
D02*
G37*
G36*
Y285194D02*
X276114D01*
Y284649D01*
X276658D01*
Y285194D01*
D02*
G37*
G36*
X272305D02*
X271761D01*
Y284649D01*
X272305D01*
Y285194D01*
D02*
G37*
G36*
X276658Y283017D02*
X276114D01*
Y282473D01*
X276658D01*
Y283017D01*
D02*
G37*
G36*
X273393Y281929D02*
X272849D01*
Y281385D01*
X273393D01*
Y281929D01*
D02*
G37*
G36*
X276658Y280841D02*
X276114D01*
Y280297D01*
X276658D01*
Y280841D01*
D02*
G37*
G36*
Y278665D02*
X276114D01*
Y278121D01*
X276658D01*
Y278665D01*
D02*
G37*
G36*
X274482D02*
X273938D01*
Y278121D01*
X274482D01*
Y278665D01*
D02*
G37*
G36*
X276658Y276488D02*
X276114D01*
Y275944D01*
X276658D01*
Y276488D01*
D02*
G37*
G36*
Y274312D02*
X276114D01*
Y273768D01*
X276658D01*
Y274312D01*
D02*
G37*
G36*
Y272136D02*
X276114D01*
Y271592D01*
X276658D01*
Y272136D01*
D02*
G37*
G36*
X218987Y268871D02*
X218443D01*
Y268328D01*
X218987D01*
Y268871D01*
D02*
G37*
G36*
X216811D02*
X216267D01*
Y268328D01*
X216811D01*
Y268871D01*
D02*
G37*
G36*
Y266695D02*
X216267D01*
Y266151D01*
X216811D01*
Y266695D01*
D02*
G37*
G36*
X274482Y263431D02*
X273938D01*
Y262887D01*
X274482D01*
Y263431D01*
D02*
G37*
G36*
X272305Y259078D02*
X271761D01*
Y258534D01*
X272305D01*
Y259078D01*
D02*
G37*
G36*
X220075D02*
X219531D01*
Y258534D01*
X220075D01*
Y259078D01*
D02*
G37*
G36*
X225516Y255814D02*
X224972D01*
Y255270D01*
X225516D01*
Y255814D01*
D02*
G37*
G36*
X226604Y254726D02*
X226060D01*
Y254182D01*
X226604D01*
Y254726D01*
D02*
G37*
G36*
X223340D02*
X222796D01*
Y254182D01*
X223340D01*
Y254726D01*
D02*
G37*
G36*
X227692Y253638D02*
X227148D01*
Y253094D01*
X227692D01*
Y253638D01*
D02*
G37*
G36*
X225516Y252550D02*
X224972D01*
Y252006D01*
X225516D01*
Y252550D01*
D02*
G37*
G36*
X228780Y250373D02*
X228236D01*
Y249829D01*
X228780D01*
Y250373D01*
D02*
G37*
G36*
X234221Y249285D02*
X233677D01*
Y248741D01*
X234221D01*
Y249285D01*
D02*
G37*
G36*
X229869D02*
X229324D01*
Y248741D01*
X229869D01*
Y249285D01*
D02*
G37*
G36*
X240750Y247109D02*
X240206D01*
Y246565D01*
X240750D01*
Y247109D01*
D02*
G37*
G36*
X234221D02*
X233677D01*
Y246565D01*
X234221D01*
Y247109D01*
D02*
G37*
G36*
X254895Y246021D02*
X254351D01*
Y245477D01*
X254895D01*
Y246021D01*
D02*
G37*
G36*
X237485D02*
X236941D01*
Y245477D01*
X237485D01*
Y246021D01*
D02*
G37*
G36*
X359356Y302603D02*
X358811D01*
Y302059D01*
X359356D01*
Y302603D01*
D02*
G37*
G36*
X357179D02*
X356635D01*
Y302059D01*
X357179D01*
Y302603D01*
D02*
G37*
G36*
X355003D02*
X354459D01*
Y302059D01*
X355003D01*
Y302603D01*
D02*
G37*
G36*
X352827D02*
X352283D01*
Y302059D01*
X352827D01*
Y302603D01*
D02*
G37*
G36*
X356091D02*
X355547D01*
Y302059D01*
X356091D01*
Y301515D01*
X354459D01*
Y302059D01*
X353915D01*
Y301515D01*
X353371D01*
Y300971D01*
X352827D01*
Y301515D01*
X352283D01*
Y300971D01*
X351739D01*
Y301515D01*
X351195D01*
Y300971D01*
X351739D01*
Y300427D01*
X351195D01*
Y300971D01*
X350651D01*
Y301515D01*
X350107D01*
Y300971D01*
X350651D01*
Y300427D01*
X350107D01*
Y300971D01*
X349562D01*
Y301515D01*
X349018D01*
Y300971D01*
X349562D01*
Y300427D01*
X349018D01*
Y300971D01*
X348474D01*
Y300427D01*
X347930D01*
Y299883D01*
X348474D01*
Y299339D01*
X347930D01*
Y299883D01*
X347386D01*
Y300427D01*
X346842D01*
Y299883D01*
X346298D01*
Y300427D01*
X345754D01*
Y299883D01*
X346298D01*
Y299339D01*
X345754D01*
Y299883D01*
X345210D01*
Y299339D01*
X344666D01*
Y298795D01*
X344122D01*
Y299339D01*
X343578D01*
Y298795D01*
X344122D01*
Y298251D01*
X343578D01*
Y298795D01*
X343034D01*
Y299339D01*
X342490D01*
Y298795D01*
X343034D01*
Y298251D01*
X341401D01*
Y297707D01*
X341946D01*
Y297163D01*
X341401D01*
Y297707D01*
X340858D01*
Y297163D01*
X340313D01*
Y296619D01*
X340858D01*
Y296075D01*
X340313D01*
Y296619D01*
X339769D01*
Y296075D01*
X339225D01*
Y295531D01*
X339769D01*
Y294987D01*
X339225D01*
Y295531D01*
X338681D01*
Y296075D01*
X338137D01*
Y295531D01*
X338681D01*
Y294987D01*
X338137D01*
Y294443D01*
X337593D01*
Y294987D01*
X337049D01*
Y294443D01*
X337593D01*
Y293899D01*
X337049D01*
Y294443D01*
X336505D01*
Y293899D01*
X335961D01*
Y293354D01*
X336505D01*
Y292810D01*
X335961D01*
Y292266D01*
X335417D01*
Y292810D01*
X334873D01*
Y292266D01*
X335417D01*
Y291722D01*
X334873D01*
Y291178D01*
X335417D01*
Y290634D01*
X334873D01*
Y291178D01*
X334329D01*
Y291722D01*
X333785D01*
Y291178D01*
X334329D01*
Y290634D01*
X333785D01*
Y290090D01*
X333241D01*
Y289546D01*
X332696D01*
Y289002D01*
X333241D01*
Y288458D01*
X332696D01*
Y289002D01*
X332152D01*
Y288458D01*
X331608D01*
Y287914D01*
X332152D01*
Y287370D01*
X331608D01*
Y286826D01*
X332152D01*
Y286282D01*
X331608D01*
Y285737D01*
X331064D01*
Y286282D01*
X330520D01*
Y285737D01*
X331064D01*
Y285194D01*
X330520D01*
Y284649D01*
X331064D01*
Y284105D01*
X330520D01*
Y284649D01*
X329976D01*
Y284105D01*
X330520D01*
Y283561D01*
X329976D01*
Y284105D01*
X329432D01*
Y283561D01*
X329976D01*
Y283017D01*
X329432D01*
Y282473D01*
X329976D01*
Y281929D01*
X329432D01*
Y281385D01*
X329976D01*
Y280841D01*
X329432D01*
Y281385D01*
X328888D01*
Y280841D01*
X329432D01*
Y280297D01*
X329976D01*
Y279753D01*
X329432D01*
Y279209D01*
X329976D01*
Y278665D01*
X329432D01*
Y279209D01*
X328888D01*
Y279753D01*
X328344D01*
Y279209D01*
X328888D01*
Y278665D01*
X328344D01*
Y278121D01*
X328888D01*
Y277577D01*
X328344D01*
Y277033D01*
X328888D01*
Y276488D01*
X328344D01*
Y275944D01*
X328888D01*
Y275400D01*
X328344D01*
Y274856D01*
X328888D01*
Y274312D01*
X328344D01*
Y273768D01*
X328888D01*
Y273224D01*
X328344D01*
Y272680D01*
X328888D01*
Y272136D01*
X328344D01*
Y271592D01*
X328888D01*
Y271048D01*
X328344D01*
Y270504D01*
X328888D01*
Y269960D01*
X328344D01*
Y269416D01*
X328888D01*
Y268871D01*
X329432D01*
Y268328D01*
X329976D01*
Y267783D01*
X329432D01*
Y268328D01*
X328888D01*
Y268871D01*
X328344D01*
Y268328D01*
X328888D01*
Y267783D01*
X329432D01*
Y267239D01*
X329976D01*
Y266695D01*
X329432D01*
Y266151D01*
X329976D01*
Y265607D01*
X330520D01*
Y265063D01*
X331064D01*
Y264519D01*
X330520D01*
Y265063D01*
X329976D01*
Y265607D01*
X329432D01*
Y265063D01*
X329976D01*
Y264519D01*
X330520D01*
Y263975D01*
X331064D01*
Y263431D01*
X330520D01*
Y262887D01*
X331064D01*
Y262343D01*
X331608D01*
Y261799D01*
X332152D01*
Y261255D01*
X331608D01*
Y261799D01*
X331064D01*
Y261255D01*
X331608D01*
Y260711D01*
X332152D01*
Y260166D01*
X332696D01*
Y259622D01*
X333241D01*
Y259078D01*
X332696D01*
Y258534D01*
X334329D01*
Y257990D01*
X333785D01*
Y257446D01*
X334329D01*
Y256902D01*
X334873D01*
Y256358D01*
X335417D01*
Y255814D01*
X335961D01*
Y255270D01*
X336505D01*
Y254726D01*
X337049D01*
Y254182D01*
X337593D01*
Y253638D01*
X338137D01*
Y253094D01*
X338681D01*
Y252550D01*
X339225D01*
Y252006D01*
X340858D01*
Y251462D01*
X341401D01*
Y250917D01*
X341946D01*
Y250373D01*
X342490D01*
Y249829D01*
X344122D01*
Y249285D01*
X344666D01*
Y248741D01*
X345210D01*
Y249285D01*
X344666D01*
Y249829D01*
X345210D01*
Y249285D01*
X345754D01*
Y248741D01*
X346298D01*
Y248197D01*
X346842D01*
Y247653D01*
X347386D01*
Y248197D01*
X346842D01*
Y248741D01*
X346298D01*
Y249285D01*
X345754D01*
Y249829D01*
X346298D01*
Y249285D01*
X346842D01*
Y248741D01*
X347386D01*
Y248197D01*
X347930D01*
Y247653D01*
X351739D01*
Y247109D01*
X352283D01*
Y246565D01*
X352827D01*
Y247109D01*
X352283D01*
Y247653D01*
X352827D01*
Y247109D01*
X353371D01*
Y246565D01*
X353915D01*
Y247109D01*
X353371D01*
Y247653D01*
X353915D01*
Y247109D01*
X354459D01*
Y246565D01*
X355003D01*
Y247109D01*
X354459D01*
Y247653D01*
X355003D01*
Y247109D01*
X355547D01*
Y246565D01*
X357179D01*
Y247109D01*
X356635D01*
Y247653D01*
X357179D01*
Y247109D01*
X357723D01*
Y246565D01*
X358268D01*
Y247109D01*
X357723D01*
Y247653D01*
X358268D01*
Y247109D01*
X358811D01*
Y246565D01*
X359356D01*
Y247109D01*
X358811D01*
Y247653D01*
X359356D01*
Y247109D01*
X359900D01*
Y246565D01*
X360444D01*
Y247109D01*
X359900D01*
Y247653D01*
X360444D01*
Y247109D01*
X360988D01*
Y247653D01*
X363708D01*
Y248197D01*
X364252D01*
Y247653D01*
X364796D01*
Y248197D01*
X364252D01*
Y248741D01*
X364796D01*
Y248197D01*
X365340D01*
Y247653D01*
X365884D01*
Y248197D01*
X365340D01*
Y248741D01*
X365884D01*
Y248197D01*
X366428D01*
Y248741D01*
X366973D01*
Y249285D01*
X367517D01*
Y248741D01*
X368061D01*
Y249285D01*
X367517D01*
Y249829D01*
X369149D01*
Y250373D01*
X369693D01*
Y249829D01*
X370237D01*
Y250373D01*
X369693D01*
Y250917D01*
X370237D01*
Y251462D01*
X370781D01*
Y250917D01*
X371325D01*
Y251462D01*
X370781D01*
Y252006D01*
X371325D01*
Y251462D01*
X371869D01*
Y252006D01*
X372413D01*
Y252550D01*
X372957D01*
Y253094D01*
X373501D01*
Y253638D01*
X374045D01*
Y253094D01*
X374589D01*
Y253638D01*
X374045D01*
Y254182D01*
X374589D01*
Y254726D01*
X375133D01*
Y254182D01*
X375677D01*
Y254726D01*
X375133D01*
Y255270D01*
X375677D01*
Y255814D01*
X376222D01*
Y255270D01*
X376766D01*
Y255814D01*
X376222D01*
Y256358D01*
X376766D01*
Y256902D01*
X377310D01*
Y256358D01*
X377854D01*
Y256902D01*
X377310D01*
Y257446D01*
X377854D01*
Y257990D01*
X377310D01*
Y258534D01*
X377854D01*
Y257990D01*
X378398D01*
Y258534D01*
X378942D01*
Y259078D01*
X378398D01*
Y259622D01*
X378942D01*
Y259078D01*
X379486D01*
Y259622D01*
X378942D01*
Y260166D01*
X379486D01*
Y259622D01*
X380030D01*
Y260166D01*
X379486D01*
Y260711D01*
X380030D01*
Y261255D01*
X379486D01*
Y261799D01*
X380030D01*
Y261255D01*
X380574D01*
Y260711D01*
X381118D01*
Y261255D01*
X380574D01*
Y261799D01*
X381118D01*
Y262343D01*
X380574D01*
Y262887D01*
X381118D01*
Y263431D01*
X380574D01*
Y263975D01*
X381118D01*
Y263431D01*
X381662D01*
Y263975D01*
X381118D01*
Y264519D01*
X381662D01*
Y263975D01*
X382206D01*
Y264519D01*
X381662D01*
Y265063D01*
X382206D01*
Y265607D01*
X381662D01*
Y266151D01*
X382206D01*
Y266695D01*
X381662D01*
Y267239D01*
X382206D01*
Y266695D01*
X382750D01*
Y267239D01*
X382206D01*
Y267783D01*
X382750D01*
Y267239D01*
X383294D01*
Y267783D01*
X382750D01*
Y268328D01*
X383294D01*
Y268871D01*
X382750D01*
Y269416D01*
X383294D01*
Y269960D01*
X382750D01*
Y270504D01*
X383294D01*
Y271048D01*
X382750D01*
Y271592D01*
X383294D01*
Y272136D01*
X382750D01*
Y272680D01*
X383294D01*
Y272136D01*
X383839D01*
Y272680D01*
X383294D01*
Y273224D01*
X382750D01*
Y273768D01*
X383294D01*
Y274312D01*
X382750D01*
Y274856D01*
X383294D01*
Y274312D01*
X383839D01*
Y274856D01*
X383294D01*
Y275400D01*
X382750D01*
Y275944D01*
X383294D01*
Y276488D01*
X382750D01*
Y277033D01*
X383294D01*
Y277577D01*
X382750D01*
Y278121D01*
X383294D01*
Y278665D01*
X382750D01*
Y279209D01*
X383294D01*
Y279753D01*
X382750D01*
Y280297D01*
X382206D01*
Y280841D01*
X381662D01*
Y281385D01*
X382206D01*
Y280841D01*
X382750D01*
Y280297D01*
X383294D01*
Y280841D01*
X382750D01*
Y281385D01*
X382206D01*
Y281929D01*
X381662D01*
Y282473D01*
X382206D01*
Y283017D01*
X381662D01*
Y283561D01*
X381118D01*
Y284105D01*
X380574D01*
Y284649D01*
X381118D01*
Y284105D01*
X381662D01*
Y283561D01*
X382206D01*
Y284105D01*
X381662D01*
Y284649D01*
X381118D01*
Y285194D01*
X380574D01*
Y285737D01*
X381118D01*
Y286282D01*
X380574D01*
Y286826D01*
X380030D01*
Y287370D01*
X379486D01*
Y287914D01*
X380030D01*
Y288458D01*
X379486D01*
Y289002D01*
X378942D01*
Y289546D01*
X378398D01*
Y290090D01*
X377854D01*
Y290634D01*
X377310D01*
Y291178D01*
X377854D01*
Y291722D01*
X377310D01*
Y292266D01*
X376766D01*
Y292810D01*
X376222D01*
Y293354D01*
X375677D01*
Y293899D01*
X375133D01*
Y294443D01*
X374589D01*
Y294987D01*
X374045D01*
Y295531D01*
X373501D01*
Y296075D01*
X372957D01*
Y296619D01*
X372413D01*
Y297163D01*
X371869D01*
Y296619D01*
X372413D01*
Y296075D01*
X371869D01*
Y296619D01*
X371325D01*
Y297163D01*
X370781D01*
Y297707D01*
X370237D01*
Y298251D01*
X369693D01*
Y297707D01*
X370237D01*
Y297163D01*
X369693D01*
Y297707D01*
X369149D01*
Y298251D01*
X368605D01*
Y298795D01*
X368061D01*
Y299339D01*
X367517D01*
Y298795D01*
X368061D01*
Y298251D01*
X367517D01*
Y298795D01*
X366973D01*
Y299339D01*
X366428D01*
Y299883D01*
X365884D01*
Y300427D01*
X365340D01*
Y299883D01*
X365884D01*
Y299339D01*
X365340D01*
Y299883D01*
X364796D01*
Y300427D01*
X364252D01*
Y300971D01*
X363708D01*
Y300427D01*
X363164D01*
Y300971D01*
X362620D01*
Y301515D01*
X362076D01*
Y300971D01*
X362620D01*
Y300427D01*
X362076D01*
Y300971D01*
X361532D01*
Y301515D01*
X360988D01*
Y300971D01*
X361532D01*
Y300427D01*
X360988D01*
Y300971D01*
X360444D01*
Y301515D01*
X359900D01*
Y300971D01*
X360444D01*
Y300427D01*
X359900D01*
Y300971D01*
X359356D01*
Y301515D01*
X358811D01*
Y302059D01*
X358268D01*
Y301515D01*
X356635D01*
Y302059D01*
X356091D01*
Y302603D01*
D02*
G37*
G36*
X366973Y300427D02*
X366428D01*
Y299883D01*
X366973D01*
Y300427D01*
D02*
G37*
G36*
X373501Y299339D02*
X372957D01*
Y298795D01*
X373501D01*
Y299339D01*
D02*
G37*
G36*
X369149D02*
X368605D01*
Y298795D01*
X369149D01*
Y299339D01*
D02*
G37*
G36*
X377854Y296075D02*
X377310D01*
Y295531D01*
X377854D01*
Y296075D01*
D02*
G37*
G36*
X374589D02*
X374045D01*
Y295531D01*
X374589D01*
Y296075D01*
D02*
G37*
G36*
X376766Y293899D02*
X376222D01*
Y293354D01*
X376766D01*
Y293899D01*
D02*
G37*
G36*
X381118Y291722D02*
X380574D01*
Y291178D01*
X381118D01*
Y291722D01*
D02*
G37*
G36*
Y287370D02*
X380574D01*
Y286826D01*
X381118D01*
Y287370D01*
D02*
G37*
G36*
X331064D02*
X330520D01*
Y286826D01*
X331064D01*
Y287370D01*
D02*
G37*
G36*
X383294Y283017D02*
X382750D01*
Y282473D01*
X383294D01*
Y283017D01*
D02*
G37*
G36*
X328888Y280841D02*
X328344D01*
Y280297D01*
X328888D01*
Y280841D01*
D02*
G37*
G36*
X326712D02*
X326168D01*
Y280297D01*
X326712D01*
Y280841D01*
D02*
G37*
G36*
X384383Y275400D02*
X383839D01*
Y274856D01*
X384383D01*
Y275400D01*
D02*
G37*
G36*
X328888Y267783D02*
X328344D01*
Y267239D01*
X328888D01*
Y267783D01*
D02*
G37*
G36*
X326712D02*
X326168D01*
Y267239D01*
X326712D01*
Y267783D01*
D02*
G37*
G36*
X329976Y264519D02*
X329432D01*
Y263975D01*
X329976D01*
Y264519D01*
D02*
G37*
G36*
X383294Y261255D02*
X382750D01*
Y260711D01*
X383294D01*
Y261255D01*
D02*
G37*
G36*
X328888D02*
X328344D01*
Y260711D01*
X328888D01*
Y261255D01*
D02*
G37*
G36*
X383294Y260166D02*
X382750D01*
Y259622D01*
X383294D01*
Y260166D01*
D02*
G37*
G36*
Y259078D02*
X382750D01*
Y258534D01*
X383294D01*
Y259078D01*
D02*
G37*
G36*
X329976D02*
X329432D01*
Y258534D01*
X329976D01*
Y259078D01*
D02*
G37*
G36*
X332152Y255814D02*
X331608D01*
Y255270D01*
X332152D01*
Y255814D01*
D02*
G37*
G36*
X336505Y254726D02*
X335961D01*
Y254182D01*
X336505D01*
Y254726D01*
D02*
G37*
G36*
X333241D02*
X332696D01*
Y254182D01*
X333241D01*
Y254726D01*
D02*
G37*
G36*
X335417Y252550D02*
X334873D01*
Y252006D01*
X335417D01*
Y252550D01*
D02*
G37*
G36*
X340858Y251462D02*
X340313D01*
Y250917D01*
X340858D01*
Y251462D01*
D02*
G37*
G36*
X336505D02*
X335961D01*
Y250917D01*
X336505D01*
Y251462D01*
D02*
G37*
G36*
X341946Y250373D02*
X341401D01*
Y249829D01*
X341946D01*
Y250373D01*
D02*
G37*
G36*
X337593D02*
X337049D01*
Y249829D01*
X337593D01*
Y250373D01*
D02*
G37*
G36*
X341946Y248197D02*
X341401D01*
Y247653D01*
X341946D01*
Y248197D01*
D02*
G37*
G36*
X351739Y247109D02*
X351195D01*
Y246565D01*
X351739D01*
Y247109D01*
D02*
G37*
G36*
X346298Y246021D02*
X345754D01*
Y245477D01*
X346298D01*
Y246021D01*
D02*
G37*
G36*
X294068Y285194D02*
X293524D01*
Y284649D01*
X294068D01*
Y285194D01*
D02*
G37*
G36*
X290804Y275400D02*
X290259D01*
Y274856D01*
X290804D01*
Y275400D01*
D02*
G37*
G36*
Y271048D02*
X290259D01*
Y270504D01*
X290804D01*
Y271048D01*
D02*
G37*
G36*
Y266695D02*
X290259D01*
Y266151D01*
X290804D01*
Y266695D01*
D02*
G37*
G36*
Y262343D02*
X290259D01*
Y261799D01*
X290804D01*
Y262343D01*
D02*
G37*
G36*
X201577Y303692D02*
X201033D01*
Y303148D01*
X201577D01*
Y303692D01*
D02*
G37*
G36*
X152611Y302603D02*
X152067D01*
Y302059D01*
X152611D01*
Y302603D01*
D02*
G37*
G36*
X150435D02*
X149891D01*
Y302059D01*
X150435D01*
Y302603D01*
D02*
G37*
G36*
X152611Y300427D02*
X152067D01*
Y299883D01*
X152611D01*
Y300427D01*
D02*
G37*
G36*
X150435D02*
X149891D01*
Y299883D01*
X150435D01*
Y300427D01*
D02*
G37*
G36*
X152611Y298251D02*
X152067D01*
Y297707D01*
X152611D01*
Y298251D01*
D02*
G37*
G36*
X150435D02*
X149891D01*
Y297707D01*
X150435D01*
Y298251D01*
D02*
G37*
G36*
X152611Y296075D02*
X152067D01*
Y295531D01*
X152611D01*
Y296075D01*
D02*
G37*
G36*
X150435D02*
X149891D01*
Y295531D01*
X150435D01*
Y296075D01*
D02*
G37*
G36*
X152611Y293899D02*
X152067D01*
Y293354D01*
X152611D01*
Y293899D01*
D02*
G37*
G36*
X150435D02*
X149891D01*
Y293354D01*
X150435D01*
Y293899D01*
D02*
G37*
G36*
X152611Y291722D02*
X152067D01*
Y291178D01*
X152611D01*
Y291722D01*
D02*
G37*
G36*
X150435D02*
X149891D01*
Y291178D01*
X150435D01*
Y291722D01*
D02*
G37*
G36*
X152611Y289546D02*
X152067D01*
Y289002D01*
X152611D01*
Y289546D01*
D02*
G37*
G36*
X150435D02*
X149891D01*
Y289002D01*
X150435D01*
Y289546D01*
D02*
G37*
G36*
X152611Y287370D02*
X152067D01*
Y286826D01*
X152611D01*
Y287370D01*
D02*
G37*
G36*
X150435D02*
X149891D01*
Y286826D01*
X150435D01*
Y287370D01*
D02*
G37*
G36*
X152611Y285194D02*
X152067D01*
Y284649D01*
X152611D01*
Y285194D01*
D02*
G37*
G36*
X150435D02*
X149891D01*
Y284649D01*
X150435D01*
Y285194D01*
D02*
G37*
G36*
X152611Y283017D02*
X152067D01*
Y282473D01*
X152611D01*
Y283017D01*
D02*
G37*
G36*
X150435D02*
X149891D01*
Y282473D01*
X150435D01*
Y283017D01*
D02*
G37*
G36*
X152611Y280841D02*
X152067D01*
Y280297D01*
X152611D01*
Y280841D01*
D02*
G37*
G36*
X150435D02*
X149891D01*
Y280297D01*
X150435D01*
Y280841D01*
D02*
G37*
G36*
X152611Y278665D02*
X152067D01*
Y278121D01*
X152611D01*
Y278665D01*
D02*
G37*
G36*
X150435D02*
X149891D01*
Y278121D01*
X150435D01*
Y278665D01*
D02*
G37*
G36*
X152611Y276488D02*
X152067D01*
Y275944D01*
X152611D01*
Y276488D01*
D02*
G37*
G36*
X150435D02*
X149891D01*
Y275944D01*
X150435D01*
Y276488D01*
D02*
G37*
G36*
X152611Y274312D02*
X152067D01*
Y273768D01*
X152611D01*
Y274312D01*
D02*
G37*
G36*
X150435D02*
X149891D01*
Y273768D01*
X150435D01*
Y274312D01*
D02*
G37*
G36*
X152611Y272136D02*
X152067D01*
Y271592D01*
X152611D01*
Y272136D01*
D02*
G37*
G36*
X150435D02*
X149891D01*
Y271592D01*
X150435D01*
Y272136D01*
D02*
G37*
G36*
Y269960D02*
X149891D01*
Y269416D01*
X150435D01*
Y269960D01*
D02*
G37*
G36*
X151523Y262343D02*
X150979D01*
Y261799D01*
X151523D01*
Y262343D01*
D02*
G37*
G36*
X152611Y259078D02*
X152067D01*
Y258534D01*
X152611D01*
Y259078D01*
D02*
G37*
G36*
X155876Y257990D02*
X155332D01*
Y257446D01*
X155876D01*
Y257990D01*
D02*
G37*
G36*
X196136Y256902D02*
X195592D01*
Y256358D01*
X196136D01*
Y256902D01*
D02*
G37*
G36*
X158052Y254726D02*
X157508D01*
Y254182D01*
X158052D01*
Y254726D01*
D02*
G37*
G36*
X154788D02*
X154244D01*
Y254182D01*
X154788D01*
Y254726D01*
D02*
G37*
G36*
X159140Y253638D02*
X158596D01*
Y253094D01*
X159140D01*
Y253638D01*
D02*
G37*
G36*
X160228Y252550D02*
X159684D01*
Y252006D01*
X160228D01*
Y252550D01*
D02*
G37*
G36*
X161316Y251462D02*
X160772D01*
Y250917D01*
X161316D01*
Y251462D01*
D02*
G37*
G36*
X156964D02*
X156420D01*
Y250917D01*
X156964D01*
Y251462D01*
D02*
G37*
G36*
X158052Y250373D02*
X157508D01*
Y249829D01*
X158052D01*
Y250373D01*
D02*
G37*
G36*
X164581Y249285D02*
X164037D01*
Y248741D01*
X164581D01*
Y249285D01*
D02*
G37*
G36*
X161316Y248197D02*
X160772D01*
Y247653D01*
X161316D01*
Y248197D01*
D02*
G37*
G36*
X171110Y247109D02*
X170565D01*
Y246565D01*
X171110D01*
Y247109D01*
D02*
G37*
G36*
X185255Y246021D02*
X184711D01*
Y245477D01*
X185255D01*
Y246021D01*
D02*
G37*
G36*
X165669D02*
X165125D01*
Y245477D01*
X165669D01*
Y246021D01*
D02*
G37*
G36*
X171110Y244933D02*
X170565D01*
Y244389D01*
X171110D01*
Y244933D01*
D02*
G37*
G36*
X134113Y303692D02*
X133569D01*
Y303148D01*
X134113D01*
Y303692D01*
D02*
G37*
G36*
X119967Y298251D02*
X119424D01*
Y297707D01*
X119967D01*
Y298251D01*
D02*
G37*
G36*
X111263Y276488D02*
X110718D01*
Y275944D01*
X111263D01*
Y276488D01*
D02*
G37*
G36*
X109086D02*
X108542D01*
Y275944D01*
X109086D01*
Y276488D01*
D02*
G37*
G36*
Y274312D02*
X108542D01*
Y273768D01*
X109086D01*
Y274312D01*
D02*
G37*
G36*
X111263Y272136D02*
X110718D01*
Y271592D01*
X111263D01*
Y272136D01*
D02*
G37*
G36*
X109086D02*
X108542D01*
Y271592D01*
X109086D01*
Y272136D01*
D02*
G37*
G36*
X111263Y269960D02*
X110718D01*
Y269416D01*
X111263D01*
Y269960D01*
D02*
G37*
G36*
X109086D02*
X108542D01*
Y269416D01*
X109086D01*
Y269960D01*
D02*
G37*
G36*
X111263Y267783D02*
X110718D01*
Y267239D01*
X111263D01*
Y267783D01*
D02*
G37*
G36*
X109086D02*
X108542D01*
Y267239D01*
X109086D01*
Y267783D01*
D02*
G37*
G36*
Y265607D02*
X108542D01*
Y265063D01*
X109086D01*
Y265607D01*
D02*
G37*
G36*
X111263Y263431D02*
X110718D01*
Y262887D01*
X111263D01*
Y263431D01*
D02*
G37*
G36*
X109086D02*
X108542D01*
Y262887D01*
X109086D01*
Y263431D01*
D02*
G37*
G36*
X111263Y261255D02*
X110718D01*
Y260711D01*
X111263D01*
Y261255D01*
D02*
G37*
G36*
X109086D02*
X108542D01*
Y260711D01*
X109086D01*
Y261255D01*
D02*
G37*
G36*
X111263Y259078D02*
X110718D01*
Y258534D01*
X111263D01*
Y259078D01*
D02*
G37*
G36*
X109086D02*
X108542D01*
Y258534D01*
X109086D01*
Y259078D01*
D02*
G37*
G36*
Y256902D02*
X108542D01*
Y256358D01*
X109086D01*
Y256902D01*
D02*
G37*
G36*
X111263Y254726D02*
X110718D01*
Y254182D01*
X111263D01*
Y254726D01*
D02*
G37*
G36*
X109086D02*
X108542D01*
Y254182D01*
X109086D01*
Y254726D01*
D02*
G37*
G36*
X111263Y252550D02*
X110718D01*
Y252006D01*
X111263D01*
Y252550D01*
D02*
G37*
G36*
X109086D02*
X108542D01*
Y252006D01*
X109086D01*
Y252550D01*
D02*
G37*
G36*
X111263Y250373D02*
X110718D01*
Y249829D01*
X111263D01*
Y250373D01*
D02*
G37*
G36*
X109086D02*
X108542D01*
Y249829D01*
X109086D01*
Y250373D01*
D02*
G37*
G36*
Y248197D02*
X108542D01*
Y247653D01*
X109086D01*
Y248197D01*
D02*
G37*
G36*
X111263Y246021D02*
X110718D01*
Y245477D01*
X111263D01*
Y246021D01*
D02*
G37*
G36*
X109086D02*
X108542D01*
Y245477D01*
X109086D01*
Y246021D01*
D02*
G37*
G36*
X373501Y214465D02*
X372957D01*
Y213921D01*
X373501D01*
Y214465D01*
D02*
G37*
G36*
X374589Y213377D02*
X374045D01*
Y212833D01*
X374589D01*
Y213377D01*
D02*
G37*
G36*
X258160Y212289D02*
X257616D01*
Y211745D01*
X258160D01*
Y212289D01*
D02*
G37*
G36*
X257072Y211201D02*
X256528D01*
Y210657D01*
X257072D01*
Y211201D01*
D02*
G37*
G36*
X260336Y210113D02*
X259792D01*
Y209569D01*
X260336D01*
Y210113D01*
D02*
G37*
G36*
X259248Y209025D02*
X258704D01*
Y208480D01*
X259248D01*
Y209025D01*
D02*
G37*
G36*
X264688Y207936D02*
X264144D01*
Y207392D01*
X264688D01*
Y207936D01*
D02*
G37*
G36*
X263600Y206848D02*
X263056D01*
Y206304D01*
X263600D01*
Y206848D01*
D02*
G37*
G36*
X239662Y209025D02*
X239118D01*
Y208480D01*
X239662D01*
Y209025D01*
D02*
G37*
G36*
Y202496D02*
X239118D01*
Y201952D01*
X239662D01*
Y202496D01*
D02*
G37*
G36*
X192872Y213377D02*
X192328D01*
Y212833D01*
X192872D01*
Y213377D01*
D02*
G37*
G36*
X193960Y211201D02*
X193416D01*
Y210657D01*
X193960D01*
Y211201D01*
D02*
G37*
G36*
X195048Y210113D02*
X194504D01*
Y209569D01*
X195048D01*
Y210113D01*
D02*
G37*
G36*
X193960Y209025D02*
X193416D01*
Y208480D01*
X193960D01*
Y209025D01*
D02*
G37*
G36*
X198313Y204672D02*
X197769D01*
Y204128D01*
X198313D01*
Y204672D01*
D02*
G37*
G36*
X197225Y203584D02*
X196681D01*
Y203040D01*
X197225D01*
Y203584D01*
D02*
G37*
G36*
X168933Y212289D02*
X168389D01*
Y211745D01*
X168933D01*
Y211201D01*
X169477D01*
Y210657D01*
X170021D01*
Y211201D01*
X169477D01*
Y211745D01*
X168933D01*
Y212289D01*
D02*
G37*
G36*
Y211201D02*
X168389D01*
Y210657D01*
X168933D01*
Y210113D01*
X169477D01*
Y210657D01*
X168933D01*
Y211201D01*
D02*
G37*
G36*
X170021Y209025D02*
X169477D01*
Y208480D01*
X170021D01*
Y209025D01*
D02*
G37*
G36*
Y204672D02*
X169477D01*
Y204128D01*
X170021D01*
Y204672D01*
D02*
G37*
G36*
X348474Y213377D02*
X347930D01*
Y212833D01*
X348474D01*
Y213377D01*
D02*
G37*
G36*
X292980Y212289D02*
X292436D01*
Y211745D01*
X292980D01*
Y212289D01*
D02*
G37*
G36*
X291892Y206848D02*
X291348D01*
Y206304D01*
X291892D01*
Y206848D01*
D02*
G37*
G36*
X292980Y205760D02*
X292436D01*
Y205216D01*
X292980D01*
Y205760D01*
D02*
G37*
G36*
X294068Y204672D02*
X293524D01*
Y204128D01*
X294068D01*
Y204672D01*
D02*
G37*
G36*
X295156Y203584D02*
X294612D01*
Y203040D01*
X295156D01*
Y203584D01*
D02*
G37*
G36*
X292980D02*
X292436D01*
Y203040D01*
X292980D01*
Y203584D01*
D02*
G37*
G36*
X296244Y202496D02*
X295700D01*
Y201952D01*
X296244D01*
Y202496D01*
D02*
G37*
G36*
X294068D02*
X293524D01*
Y201952D01*
X294068D01*
Y202496D01*
D02*
G37*
G36*
X285363Y211201D02*
X284819D01*
Y210657D01*
X285363D01*
Y211201D01*
D02*
G37*
G36*
Y209025D02*
X284819D01*
Y208480D01*
X285363D01*
Y209025D01*
D02*
G37*
G36*
Y206848D02*
X284819D01*
Y206304D01*
X285363D01*
Y206848D01*
D02*
G37*
G36*
Y204672D02*
X284819D01*
Y204128D01*
X285363D01*
Y204672D01*
D02*
G37*
G36*
X245102Y214465D02*
X244558D01*
Y213921D01*
X245102D01*
Y214465D01*
D02*
G37*
G36*
X207018Y211201D02*
X206474D01*
Y210657D01*
X207018D01*
Y211201D01*
D02*
G37*
G36*
X204841D02*
X204297D01*
Y210657D01*
X204841D01*
Y211201D01*
D02*
G37*
G36*
X207018Y209025D02*
X206474D01*
Y208480D01*
X207018D01*
Y209025D01*
D02*
G37*
G36*
Y206848D02*
X206474D01*
Y206304D01*
X207018D01*
Y206848D01*
D02*
G37*
G36*
Y204672D02*
X206474D01*
Y204128D01*
X207018D01*
Y204672D01*
D02*
G37*
G36*
Y202496D02*
X206474D01*
Y201952D01*
X207018D01*
Y202496D01*
D02*
G37*
G36*
X154788Y213377D02*
X154244D01*
Y212833D01*
X154788D01*
Y213377D01*
D02*
G37*
G36*
X158052Y212289D02*
X157508D01*
Y211745D01*
X158052D01*
Y212289D01*
D02*
G37*
G36*
X155876D02*
X155332D01*
Y211745D01*
X155876D01*
Y212289D01*
D02*
G37*
G36*
X156964Y211201D02*
X156420D01*
Y210657D01*
X156964D01*
Y211201D01*
D02*
G37*
G36*
X160228Y205760D02*
X159684D01*
Y205216D01*
X160228D01*
Y205760D01*
D02*
G37*
G36*
X162405Y204672D02*
X161860D01*
Y204128D01*
X162405D01*
Y204672D01*
D02*
G37*
G36*
X161316D02*
X160772D01*
Y204128D01*
X161316D01*
Y204672D01*
D02*
G37*
G36*
X142818Y212289D02*
X142274D01*
Y211745D01*
X142818D01*
Y212289D01*
D02*
G37*
G36*
X325624Y214465D02*
X325080D01*
Y213921D01*
X325624D01*
Y214465D01*
D02*
G37*
G36*
X326712Y213377D02*
X326168D01*
Y212833D01*
X326712D01*
Y213377D01*
D02*
G37*
G36*
X329976Y210113D02*
X329432D01*
Y209569D01*
X329976D01*
Y210113D01*
D02*
G37*
G36*
X328888Y209025D02*
X328344D01*
Y208480D01*
X328888D01*
Y209025D01*
D02*
G37*
G36*
X333241Y204672D02*
X332696D01*
Y204128D01*
X333241D01*
Y204672D01*
D02*
G37*
G36*
Y202496D02*
X332696D01*
Y201952D01*
X333241D01*
Y202496D01*
D02*
G37*
G36*
X304949Y209025D02*
X304405D01*
Y208480D01*
X304949D01*
Y209025D01*
D02*
G37*
G36*
Y206848D02*
X304405D01*
Y206304D01*
X304949D01*
Y206848D01*
D02*
G37*
G36*
X307125Y202496D02*
X306581D01*
Y201952D01*
X307125D01*
Y202496D01*
D02*
G37*
G36*
X134113Y214465D02*
X133569D01*
Y213921D01*
X134113D01*
Y214465D01*
D02*
G37*
G36*
X136290Y209025D02*
X135745D01*
Y208480D01*
X136290D01*
Y209025D01*
D02*
G37*
G36*
X314742Y214465D02*
X314198D01*
Y213921D01*
X314742D01*
Y214465D01*
D02*
G37*
G36*
X319095Y210113D02*
X318551D01*
Y209569D01*
X319095D01*
Y210113D01*
D02*
G37*
G36*
X224428Y211201D02*
X223884D01*
Y210657D01*
X224428D01*
Y211201D01*
D02*
G37*
G36*
X223340Y210113D02*
X222796D01*
Y209569D01*
X223340D01*
Y210113D01*
D02*
G37*
G36*
X226604Y206848D02*
X226060D01*
Y206304D01*
X226604D01*
Y206848D01*
D02*
G37*
G36*
X225516Y205760D02*
X224972D01*
Y205216D01*
X225516D01*
Y205760D01*
D02*
G37*
G36*
X226604Y204672D02*
X226060D01*
Y204128D01*
X226604D01*
Y204672D01*
D02*
G37*
G36*
X264688Y214465D02*
X264144D01*
Y213921D01*
X264688D01*
Y214465D01*
D02*
G37*
G36*
X265777Y213377D02*
X265233D01*
Y212833D01*
X265777D01*
Y213377D01*
D02*
G37*
G36*
X245102Y206848D02*
X244558D01*
Y206304D01*
X245102D01*
Y206848D01*
D02*
G37*
G36*
X246190Y205760D02*
X245646D01*
Y205216D01*
X246190D01*
Y205760D01*
D02*
G37*
G36*
Y203584D02*
X245646D01*
Y203040D01*
X246190D01*
Y203584D01*
D02*
G37*
G36*
X247278Y204672D02*
X246734D01*
Y204128D01*
X247278D01*
Y203584D01*
X247823D01*
Y203040D01*
X248367D01*
Y202496D01*
X248911D01*
Y201952D01*
X249455D01*
Y202496D01*
X248911D01*
Y203040D01*
X248367D01*
Y203584D01*
X247823D01*
Y204128D01*
X247278D01*
Y204672D01*
D02*
G37*
G36*
X142818Y205760D02*
X142274D01*
Y205216D01*
X142818D01*
Y205760D01*
D02*
G37*
G36*
X140642D02*
X140098D01*
Y205216D01*
X140642D01*
Y205760D01*
D02*
G37*
G36*
X141730Y204672D02*
X141186D01*
Y204128D01*
X141730D01*
Y204672D01*
D02*
G37*
G36*
X142818Y203584D02*
X142274D01*
Y203040D01*
X142818D01*
Y203584D01*
D02*
G37*
G36*
X146083Y202496D02*
X145539D01*
Y201952D01*
X146083D01*
Y202496D01*
D02*
G37*
G36*
X143906D02*
X143362D01*
Y201952D01*
X143906D01*
Y202496D01*
D02*
G37*
G36*
X371325Y207936D02*
X370781D01*
Y207392D01*
X371325D01*
Y207936D01*
D02*
G37*
G36*
X372413Y206848D02*
X371869D01*
Y206304D01*
X372413D01*
Y206848D01*
D02*
G37*
G36*
X374589Y204672D02*
X374045D01*
Y204128D01*
X374589D01*
Y204672D01*
D02*
G37*
G36*
X376766Y202496D02*
X376222D01*
Y201952D01*
X376766D01*
Y202496D01*
D02*
G37*
G36*
X117791Y211201D02*
X117247D01*
Y210657D01*
X117791D01*
Y211201D01*
D02*
G37*
G36*
X116703Y210113D02*
X116159D01*
Y209569D01*
X116703D01*
Y210113D01*
D02*
G37*
G36*
X121056Y207936D02*
X120512D01*
Y207392D01*
X121056D01*
Y207936D01*
D02*
G37*
G36*
X123232Y206848D02*
X122688D01*
Y206304D01*
X123232D01*
Y206848D01*
D02*
G37*
G36*
X124320Y205760D02*
X123776D01*
Y205216D01*
X124320D01*
Y205760D01*
D02*
G37*
G36*
X116703Y203584D02*
X116159D01*
Y203040D01*
X116703D01*
Y203584D01*
D02*
G37*
%LPD*%
D10*
X63773Y182257D02*
G03*
X63773Y182257I-1250J0D01*
G01*
X439107Y48460D02*
G03*
X439107Y48460I-1250J0D01*
G01*
Y156410D02*
G03*
X439107Y156410I-1250J0D01*
G01*
Y266900D02*
G03*
X439107Y266900I-1250J0D01*
G01*
Y377390D02*
G03*
X439107Y377390I-1250J0D01*
G01*
X393480Y436587D02*
G03*
X393480Y436587I-1250J0D01*
G01*
X308390D02*
G03*
X308390Y436587I-1250J0D01*
G01*
X223300D02*
G03*
X223300Y436587I-1250J0D01*
G01*
X138210D02*
G03*
X138210Y436587I-1250J0D01*
G01*
X65043Y402390D02*
G03*
X65043Y402390I-1250J0D01*
G01*
X63773Y292323D02*
G03*
X63773Y292323I-1250J0D01*
G01*
Y73460D02*
G03*
X63773Y73460I-1250J0D01*
G01*
D11*
X157080Y39370D02*
G03*
X157080Y39370I-25000J0D01*
G01*
X61830Y464820D02*
G03*
X61830Y464820I-25000J0D01*
G01*
X388220Y39370D02*
G03*
X388220Y39370I-25000J0D01*
G01*
X479660Y464820D02*
G03*
X479660Y464820I-25000J0D01*
G01*
X373191Y308107D02*
X381189D01*
Y313438D01*
X373191Y321436D02*
Y316104D01*
X381189D01*
Y321436D01*
X377190Y316104D02*
Y318770D01*
X373191Y324102D02*
X381189D01*
Y328100D01*
X379856Y329433D01*
X374524D01*
X373191Y328100D01*
Y324102D01*
X141285Y176367D02*
X137952D01*
X139618D01*
Y168036D01*
X137952Y166370D01*
X136286D01*
X134620Y168036D01*
X151281Y174701D02*
X149615Y176367D01*
X146283D01*
X144617Y174701D01*
Y173034D01*
X146283Y171368D01*
X149615D01*
X151281Y169702D01*
Y168036D01*
X149615Y166370D01*
X146283D01*
X144617Y168036D01*
X154614Y176367D02*
X161278D01*
X157946D01*
Y166370D01*
X181272Y174701D02*
X179606Y176367D01*
X176273D01*
X174607Y174701D01*
Y168036D01*
X176273Y166370D01*
X179606D01*
X181272Y168036D01*
X189602Y176367D02*
X186270D01*
X184604Y174701D01*
Y168036D01*
X186270Y166370D01*
X189602D01*
X191268Y168036D01*
Y174701D01*
X189602Y176367D01*
X194601Y166370D02*
Y176367D01*
X201265Y166370D01*
Y176367D01*
X204597Y166370D02*
Y176367D01*
X211262Y166370D01*
Y176367D01*
X221259D02*
X214594D01*
Y166370D01*
X221259D01*
X214594Y171368D02*
X217927D01*
X231255Y174701D02*
X229589Y176367D01*
X226257D01*
X224591Y174701D01*
Y168036D01*
X226257Y166370D01*
X229589D01*
X231255Y168036D01*
X234588Y176367D02*
X241252D01*
X237920D01*
Y166370D01*
X249583Y176367D02*
X246251D01*
X244585Y174701D01*
Y168036D01*
X246251Y166370D01*
X249583D01*
X251249Y168036D01*
Y174701D01*
X249583Y176367D01*
X254581Y166370D02*
Y176367D01*
X259580D01*
X261246Y174701D01*
Y171368D01*
X259580Y169702D01*
X254581D01*
X257914D02*
X261246Y166370D01*
X281239Y176367D02*
X277907D01*
X279573D01*
Y168036D01*
X277907Y166370D01*
X276241D01*
X274575Y168036D01*
X284572Y176367D02*
Y168036D01*
X286238Y166370D01*
X289570D01*
X291236Y168036D01*
Y176367D01*
X294569Y166370D02*
Y176367D01*
X301233Y166370D01*
Y176367D01*
X311230Y174701D02*
X309564Y176367D01*
X306231D01*
X304565Y174701D01*
Y168036D01*
X306231Y166370D01*
X309564D01*
X311230Y168036D01*
X314562Y176367D02*
X321227D01*
X317894D01*
Y166370D01*
X324559Y176367D02*
X327891D01*
X326225D01*
Y166370D01*
X324559D01*
X327891D01*
X337888Y176367D02*
X334556D01*
X332890Y174701D01*
Y168036D01*
X334556Y166370D01*
X337888D01*
X339554Y168036D01*
Y174701D01*
X337888Y176367D01*
X342886Y166370D02*
Y176367D01*
X349551Y166370D01*
Y176367D01*
X421640Y377188D02*
X431797D01*
X426718Y382267D02*
Y372110D01*
X417830Y46988D02*
X427987D01*
X422908Y52067D02*
Y41910D01*
X422910Y156208D02*
X433067D01*
X427988Y161287D02*
Y151130D01*
X422910Y265428D02*
X433067D01*
X427988Y270507D02*
Y260350D01*
X71120Y73658D02*
X81277D01*
X76198Y78737D02*
Y68580D01*
X68580Y182878D02*
X78737D01*
X73658Y187957D02*
Y177800D01*
X68580Y292098D02*
X78737D01*
X73658Y297177D02*
Y287020D01*
X69850Y402588D02*
X80007D01*
X74928Y407667D02*
Y397510D01*
X388620Y426718D02*
X398777D01*
X393698Y431797D02*
Y421640D01*
X304800Y426718D02*
X314957D01*
X309878Y431797D02*
Y421640D01*
X218440Y426718D02*
X228597D01*
X223518Y431797D02*
Y421640D01*
X420370Y73660D02*
X430527D01*
X422910Y290830D02*
X433067D01*
X422910Y403860D02*
X433067D01*
X422910Y176530D02*
X433067D01*
X69850Y44450D02*
X80007D01*
X67310Y265430D02*
X77467D01*
X66040Y151130D02*
X76197D01*
X69850Y373380D02*
X80007D01*
X363220Y430530D02*
X373377D01*
X276860D02*
X287017D01*
X191770Y427990D02*
X201927D01*
X106680D02*
X116837D01*
X133350Y426718D02*
X143507D01*
X138428Y431797D02*
Y421640D01*
X393703Y69846D02*
Y64768D01*
Y67307D01*
X408938D01*
X406398Y69846D01*
X393703Y46994D02*
Y57150D01*
X403859Y46994D01*
X406398D01*
X408938Y49533D01*
Y54611D01*
X406398Y57150D01*
X82552Y60959D02*
Y55881D01*
Y58420D01*
X97788D01*
X95248Y60959D01*
X128459Y418748D02*
X120461D01*
Y412750D01*
X124460Y414749D01*
X126459D01*
X128459Y412750D01*
Y408751D01*
X126459Y406752D01*
X122461D01*
X120461Y408751D01*
X212279Y417478D02*
X208280Y415479D01*
X204281Y411480D01*
Y407481D01*
X206281Y405482D01*
X210279D01*
X212279Y407481D01*
Y409481D01*
X210279Y411480D01*
X204281D01*
X363094Y378271D02*
Y386269D01*
X367093D01*
X368426Y384936D01*
Y382270D01*
X367093Y380937D01*
X363094D01*
X365760D02*
X368426Y378271D01*
X192656Y115488D02*
X199320Y105492D01*
Y115488D02*
X192656Y105492D01*
X202653Y115488D02*
X209317D01*
X205985D01*
Y105492D01*
X219314Y115488D02*
X215982Y113822D01*
X212649Y110490D01*
Y107158D01*
X214315Y105492D01*
X217648D01*
X219314Y107158D01*
Y108824D01*
X217648Y110490D01*
X212649D01*
X222646Y113822D02*
X224312Y115488D01*
X227645D01*
X229311Y113822D01*
Y107158D01*
X227645Y105492D01*
X224312D01*
X222646Y107158D01*
Y113822D01*
X232643Y110490D02*
X239307D01*
X249304Y115488D02*
X242640D01*
Y110490D01*
X245972D01*
X242640D01*
Y105492D01*
X375731Y415479D02*
X377731Y417478D01*
X381729D01*
X383729Y415479D01*
Y413479D01*
X381729Y411480D01*
X383729Y409481D01*
Y407481D01*
X381729Y405482D01*
X377731D01*
X375731Y407481D01*
Y409481D01*
X377731Y411480D01*
X375731Y413479D01*
Y415479D01*
X377731Y411480D02*
X381729D01*
X289371Y418748D02*
X297369D01*
Y416749D01*
X289371Y408751D01*
Y406752D01*
X397862Y173368D02*
Y169369D01*
Y171368D01*
X409858D01*
X407859Y173368D01*
X397862Y163371D02*
Y159372D01*
Y161372D01*
X409858D01*
X407859Y163371D01*
X400402Y287127D02*
Y283128D01*
Y285128D01*
X412398D01*
X410399Y287127D01*
Y277130D02*
X412398Y275131D01*
Y271132D01*
X410399Y269133D01*
X402401D01*
X400402Y271132D01*
Y275131D01*
X402401Y277130D01*
X410399D01*
X407481Y396429D02*
X405482Y394429D01*
Y390431D01*
X407481Y388431D01*
X415479D01*
X417478Y390431D01*
Y394429D01*
X415479Y396429D01*
X413479D01*
X411480Y394429D01*
Y388431D01*
X84172Y385351D02*
X96168D01*
X90170Y391349D01*
Y383351D01*
X94169Y280859D02*
X96168Y278859D01*
Y274861D01*
X94169Y272861D01*
X92169D01*
X90170Y274861D01*
Y276860D01*
Y274861D01*
X88171Y272861D01*
X86171D01*
X84172Y274861D01*
Y278859D01*
X86171Y280859D01*
X82902Y162371D02*
Y170369D01*
X90899Y162371D01*
X92899D01*
X94898Y164371D01*
Y168369D01*
X92899Y170369D01*
D12*
X424744Y299292D02*
G03*
X419943Y336260I-11994J17238D01*
G01*
X405557D02*
G03*
X400756Y299292I7193J-19730D01*
G01*
X422250D02*
X424744D01*
X400756D02*
X403250D01*
D13*
X166920Y78740D02*
G03*
X166920Y78740I-1000J0D01*
G01*
X-58980Y206757D02*
X56020D01*
Y132757D02*
Y206757D01*
X-58980Y132757D02*
X56020D01*
X-58980D02*
Y206757D01*
X444360Y23960D02*
X559360D01*
X444360D02*
Y97960D01*
X559360D01*
Y23960D02*
Y97960D01*
X444360Y131910D02*
X559360D01*
X444360D02*
Y205910D01*
X559360D01*
Y131910D02*
Y205910D01*
X444360Y242400D02*
X559360D01*
X444360D02*
Y316400D01*
X559360D01*
Y242400D02*
Y316400D01*
X444360Y352890D02*
X559360D01*
X444360D02*
Y426890D01*
X559360D01*
Y352890D02*
Y426890D01*
X416730Y443090D02*
Y558090D01*
X342730Y443090D02*
X416730D01*
X342730D02*
Y558090D01*
X416730D01*
X331640Y443090D02*
Y558090D01*
X257640Y443090D02*
X331640D01*
X257640D02*
Y558090D01*
X331640D01*
X246550Y443090D02*
Y558090D01*
X172550Y443090D02*
X246550D01*
X172550D02*
Y558090D01*
X246550D01*
X161460Y443090D02*
Y558090D01*
X87460Y443090D02*
X161460D01*
X87460D02*
Y558090D01*
X161460D01*
X-57710Y426890D02*
X57290D01*
Y352890D02*
Y426890D01*
X-57710Y352890D02*
X57290D01*
X-57710D02*
Y426890D01*
X-58980Y316823D02*
X56020D01*
Y242823D02*
Y316823D01*
X-58980Y242823D02*
X56020D01*
X-58980D02*
Y316823D01*
Y97960D02*
X56020D01*
Y23960D02*
Y97960D01*
X-58980Y23960D02*
X56020D01*
X-58980D02*
Y97960D01*
X329220Y368600D02*
X397220D01*
Y342600D02*
Y368600D01*
X329220Y342600D02*
X397220D01*
X329220D02*
Y368600D01*
X323470Y355600D02*
X329220D01*
X397220D02*
X402970D01*
D14*
X171420Y97240D02*
X191820D01*
X234020D02*
X263820D01*
X306020D02*
X326420D01*
Y-74760D02*
Y97240D01*
X171420Y-74760D02*
X326420D01*
X171420D02*
Y97240D01*
D15*
X416106Y343302D02*
X409250D01*
X412678Y346730D02*
Y339874D01*
M02*
